<?xml version="1.0" standalone="no"?>
<!DOCTYPE svg PUBLIC "-//W3C//DTD SVG 1.1//EN" "http://www.w3.org/Graphics/SVG/1.1/DTD/svg11.dtd" >
<svg>
<metadata>
Created by FontForge 20120731 at Mon Dec  1 10:34:12 2014
 By Orthosie Webhosting
(URW)++,Copyright 2003 by (URW)++ Design &#38; Development
</metadata>
<defs>
<font id="NimbusSansNovusW01DBlkCnRegular" horiz-adv-x="493" >
  <font-face 
    font-family="NimbusSansNovusW01DBlkCnRegular"
    font-weight="800"
    font-stretch="normal"
    units-per-em="1000"
    panose-1="4 0 10 6 0 0 0 0 0 0"
    ascent="756"
    descent="-244"
    x-height="504"
    cap-height="667"
    bbox="-45 -216 730 937"
    underline-thickness="119"
    underline-position="12"
    unicode-range="U+000D-2122"
  />
<missing-glyph horiz-adv-x="0" 
 />
    <glyph glyph-name=".notdef" horiz-adv-x="0" 
 />
    <glyph glyph-name=".null" horiz-adv-x="0" 
 />
    <glyph glyph-name="nonmarkingreturn" unicode="&#xd;" horiz-adv-x="0" 
 />
    <glyph glyph-name="space" unicode=" " horiz-adv-x="250" 
 />
    <glyph glyph-name="exclam" unicode="!" horiz-adv-x="245" 
d="M202 148v-148h-159v148h159zM204 667v-222l-18 -251h-127l-18 251v222h163z" />
    <glyph glyph-name="quotedbl" unicode="&#x22;" horiz-adv-x="527" 
d="M328 399l-39 268h211l-39 -268h-133zM66 399l-39 268h211l-39 -268h-133z" />
    <glyph glyph-name="numbersign" unicode="#" 
d="M213 375l-9 -83h76l9 83h-76zM345 57h-90l16 147h-76l-16 -147h-90l16 147h-76l9 88h76l9 83h-76l9 88h76l14 134h90l-14 -134h76l14 134h90l-14 -134h76l-9 -88h-76l-9 -83h76l-9 -88h-76z" />
    <glyph glyph-name="dollar" unicode="$" 
d="M203 744h79v-72q172 -13 171 -197h-163q0 45 -11.5 64t-38.5 19q-23 0 -36.5 -15t-13.5 -41q0 -16 3.5 -28t12.5 -21.5t24.5 -18.5t38.5 -19q69 -29 105.5 -49t53.5 -39q21 -23 30.5 -53.5t9.5 -75.5q0 -98 -45 -147.5t-141 -57.5v-73h-79v72q-100 5 -144.5 55.5
t-41.5 155.5h165q0 -57 11.5 -77.5t44.5 -20.5q26 0 41 17t15 48q0 43 -31 64q-5 3 -9.5 5.5t-16 8t-33.5 15t-62 27.5q-63 27 -91.5 70.5t-28.5 112.5q0 92 44 140.5t137 58.5v72z" />
    <glyph glyph-name="percent" unicode="%" horiz-adv-x="715" 
d="M547 271q-18 0 -24 -21t-6 -83q0 -60 6 -80.5t24 -20.5q9 0 15 4t9.5 15.5t4.5 31.5t1 52q0 31 -1.5 50.5t-4.5 31t-9 16t-15 4.5zM547 347q41 0 69 -9.5t45.5 -30.5t25 -55t7.5 -84t-7.5 -84t-25.5 -55t-47 -30t-71 -9q-39 0 -66.5 9.5t-44.5 31t-24.5 56.5t-7.5 85
q0 48 8 81.5t25 54.5t45 30t69 9zM554 671l-294 -684h-99l295 684h98zM168 590q-18 0 -24 -21t-6 -83q0 -30 1.5 -50t4.5 -31.5t9 -16t15 -4.5t15 4t9.5 15.5t4.5 32t1 52.5q0 31 -1.5 50.5t-4.5 31t-9 16t-15 4.5zM168 666q41 0 69 -9.5t45.5 -30.5t25 -55t7.5 -84
t-7.5 -84.5t-25.5 -55.5t-47 -30t-71 -9q-39 0 -66.5 9.5t-44.5 31.5t-24.5 56.5t-7.5 85.5q0 48 8 81.5t25 54t45 30t69 9.5z" />
    <glyph glyph-name="ampersand" unicode="&#x26;" horiz-adv-x="590" 
d="M225 265q-48 -32 -48 -75q0 -30 21 -51t50 -21q35 0 64 27zM262 448q54 44 54 81q0 22 -13.5 34t-36.5 12q-22 0 -35 -12.5t-13 -33.5q0 -13 12 -35.5t32 -45.5zM585 326q0 -25 -6 -54t-17 -57t-25.5 -52.5t-30.5 -40.5l89 -122h-183l-29 41q-67 -52 -165 -52
q-91 0 -140 43q-29 24 -45.5 63t-16.5 81q0 116 126 193q-20 27 -33 47t-20.5 36.5t-10.5 32t-3 33.5q0 72 50.5 113.5t138.5 41.5q91 0 141.5 -39.5t50.5 -108.5q0 -50 -30 -96t-85 -80l73 -101q10 12 17 34t7 40v4h147z" />
    <glyph glyph-name="quotesingle" unicode="'" horiz-adv-x="265" 
d="M66 399l-39 268h211l-39 -268h-133z" />
    <glyph glyph-name="parenleft" unicode="(" horiz-adv-x="317" 
d="M295 667q-52 -81 -80.5 -189t-28.5 -224q0 -119 26.5 -220t82.5 -197h-137q-65 97 -99.5 203.5t-34.5 209.5q0 220 134 417h137z" />
    <glyph glyph-name="parenright" unicode=")" horiz-adv-x="317" 
d="M22 -163q52 81 80.5 189t28.5 224q0 119 -26.5 220t-82.5 197h137q65 -97 99.5 -203.5t34.5 -209.5q0 -220 -134 -417h-137z" />
    <glyph glyph-name="asterisk" unicode="*" 
d="M289 559l119 40l29 -87l-119 -37l76 -102l-74 -55l-74 105l-74 -105l-74 55l76 102l-119 37l29 87l119 -40l-3 127h92z" />
    <glyph glyph-name="plus" unicode="+" 
d="M187 386v155h118v-155h155v-118h-155v-155h-118v155h-155v118h155z" />
    <glyph glyph-name="comma" unicode="," horiz-adv-x="211" 
d="M183 183v-112q0 -41 -1 -67.5t-3.5 -45t-7.5 -32t-12 -28.5q-35 -65 -131 -66v79q33 3 45 22t13 67h-58v183h155z" />
    <glyph glyph-name="hyphen" unicode="-" horiz-adv-x="294" 
d="M294 341v-141h-294v141h294z" />
    <glyph glyph-name="period" unicode="." horiz-adv-x="212" 
d="M184 183v-183h-156v183h156z" />
    <glyph glyph-name="slash" unicode="/" horiz-adv-x="400" 
d="M373 667l-264 -830h-133l264 830h133z" />
    <glyph glyph-name="zero" unicode="0" 
d="M247 557q-33 0 -42 -38q-2 -9 -3.5 -23.5t-2 -36.5t-1 -52t-0.5 -72q0 -79 1.5 -126.5t7 -72.5t15 -33t25.5 -8t25.5 7.5t15 31t7 68t1.5 119.5q0 79 -1.5 126t-6.5 71.5t-15 31.5t-26 7zM248 668q67 0 110 -18t70 -57q12 -17 20 -39t13 -52.5t7.5 -71t2.5 -94.5
q0 -86 -5.5 -141.5t-18.5 -90.5q-21 -61 -70.5 -89t-137.5 -28q-72 0 -116 23t-68 74q-9 19 -15 40.5t-10 50t-5.5 66t-1.5 88.5q0 55 2 96t7.5 72t14 53.5t20.5 40.5q53 77 181 77z" />
    <glyph glyph-name="one" unicode="1" 
d="M77 563q144 0 165 101h121v-664h-171v454h-126v109h11z" />
    <glyph glyph-name="two" unicode="2" 
d="M25 444q0 60 8 95.5t28 61.5q52 67 182 67q109 0 160 -46t51 -145q0 -33 -5 -59.5t-17.5 -51t-33.5 -49.5t-53 -56q-53 -50 -78 -78.5t-36 -51.5h225v-131h-434q-1 47 7.5 85.5t26.5 76.5q10 19 18 33.5t18 27.5t23.5 28t34.5 36l73 74q18 19 29.5 33t18 27t9 26.5
t2.5 31.5q0 42 -10.5 60t-34.5 18q-39 0 -46 -47q-2 -9 -2.5 -24.5t-0.5 -41.5h-163z" />
    <glyph glyph-name="three" unicode="3" 
d="M187 200q1 -58 11.5 -80t39.5 -22q26 0 37 19.5t11 68.5q0 34 -3.5 52.5t-11.5 28.5q-5 6 -10.5 9.5t-15 6t-24 3t-38.5 0.5h-6v108q5 -1 7.5 -1h7.5q31 0 45 3t22 11q19 21 19 81q0 37 -10 52.5t-34 15.5q-25 0 -36 -19t-11 -62v-7h-157q0 103 51.5 150.5t161.5 47.5
q104 0 153.5 -43t49.5 -134q0 -40 -10 -67.5t-33 -47.5q-24 -21 -48 -27q52 -10 79 -49t27 -105q0 -98 -51 -150q-53 -56 -174 -56q-113 0 -163.5 50.5t-50.5 162.5h165z" />
    <glyph glyph-name="four" unicode="4" 
d="M156 251h99v226zM20 256l208 399h190v-404h59v-129h-59v-122h-165v122h-233v134z" />
    <glyph glyph-name="five" unicode="5" 
d="M190 199q0 -59 10 -81t38 -22q14 0 23.5 6t15 21t8 39.5t2.5 61.5q0 65 -11 90t-39 25q-41 0 -47 -54h-158l14 369h385v-130h-253l-7 -124q20 31 47.5 44t72.5 13q89 0 128.5 -53.5t39.5 -174.5q0 -65 -12.5 -111t-39 -75t-68 -42.5t-100.5 -13.5q-79 0 -126 23t-70 73
q-9 20 -13.5 48t-4.5 68h165z" />
    <glyph glyph-name="six" unicode="6" 
d="M248 315q-27 0 -37 -21t-10 -77q0 -69 10 -94t38 -25t38.5 24t10.5 87q0 61 -10.5 83.5t-39.5 22.5zM294 494q-1 35 -11 49.5t-34 14.5q-40 0 -46 -48q-1 -10 -2 -18.5t-1.5 -21t-1.5 -32.5t-2 -53q38 55 116 55q84 0 122.5 -49t38.5 -155q0 -66 -12.5 -113.5t-39.5 -78
t-69.5 -44.5t-102.5 -14q-130 0 -182 74q-24 35 -34 90.5t-10 150.5q0 66 2 112.5t6.5 79.5t13 55.5t20.5 41.5q50 78 192 78q200 0 202 -174h-165z" />
    <glyph glyph-name="seven" unicode="7" 
d="M460 654v-130q-32 -49 -61 -113t-52 -134.5t-38.5 -142t-19.5 -134.5h-181q14 132 60.5 264t119.5 242h-259v148h431z" />
    <glyph glyph-name="eight" unicode="8" 
d="M245 295q-29 0 -40.5 -21.5t-11.5 -73.5q0 -60 12 -83.5t41 -23.5t40.5 23t11.5 80q0 56 -11.5 77.5t-41.5 21.5zM246 557q-47 0 -47 -79q0 -80 45 -80q46 0 46 82q0 42 -10.5 59.5t-33.5 17.5zM126 352q-92 32 -92 138q0 177 211 177q109 0 159.5 -41t50.5 -132
q0 -57 -23.5 -93.5t-68.5 -48.5q109 -24 109 -162q0 -48 -14 -87.5t-40 -65.5q-51 -50 -174 -50q-118 0 -171 48t-53 155q0 71 25.5 110t80.5 52z" />
    <glyph glyph-name="nine" unicode="9" 
d="M245 555q-29 0 -39.5 -24t-10.5 -88q0 -61 10.5 -83.5t39.5 -22.5t38.5 20t9.5 78q0 36 -2 59t-7.5 36.5t-15 19t-23.5 5.5zM199 159q1 -35 10.5 -49.5t34.5 -14.5q38 0 45 40q1 8 2.5 17t2 24t1.5 37.5t2 56.5q-19 -29 -45 -42t-66 -13q-86 0 -125.5 50.5t-39.5 160.5
q0 63 11 105t36 71q54 65 178 65q136 0 185 -76q21 -32 30 -89.5t9 -155.5q0 -63 -2 -107t-6.5 -75.5t-12.5 -53.5t-20 -41q-28 -43 -75 -63t-121 -20q-138 0 -181 88q-17 31 -17 85h164z" />
    <glyph glyph-name="colon" unicode=":" horiz-adv-x="212" 
d="M184 183v-183h-156v183h156zM184 499v-183h-156v183h156z" />
    <glyph glyph-name="semicolon" unicode=";" horiz-adv-x="212" 
d="M184 499v-183h-156v183h156zM183 183v-112q0 -41 -1 -67.5t-3.5 -45t-7.5 -32t-12 -28.5q-35 -65 -131 -66v79q33 3 45 22t13 67h-58v183h155z" />
    <glyph glyph-name="less" unicode="&#x3c;" horiz-adv-x="500" 
d="M466 466l-220 -128l219 -128l1 -200l-433 245v168l433 244v-201z" />
    <glyph glyph-name="equal" unicode="=" 
d="M460 468v-118h-428v118h428zM460 304v-118h-428v118h428z" />
    <glyph glyph-name="greater" unicode="&#x3e;" horiz-adv-x="500" 
d="M33 212l220 127l-219 129l-1 199l433 -244v-168l-433 -245v202z" />
    <glyph glyph-name="question" unicode="?" horiz-adv-x="434" 
d="M283 148v-148h-159v148h159zM7 451q0 56 7 89t25 59q50 76 173 76q96 0 148.5 -47.5t52.5 -135.5q0 -27 -5.5 -53t-16.5 -46q-8 -15 -22 -33t-44 -50q-15 -16 -23.5 -28t-13.5 -24t-6.5 -27t-2.5 -37h-152q0 43 2.5 70.5t10 48.5t20.5 39.5t36 42.5q16 17 26.5 30.5
t17 26t9 26t2.5 29.5q0 59 -43 59q-38 0 -44 -48q-2 -12 -2 -24.5v-42.5h-155z" />
    <glyph glyph-name="at" unicode="@" horiz-adv-x="708" 
d="M368 436q-29 0 -47 -54q-5 -16 -9.5 -34t-8 -35t-6 -32.5t-2.5 -26.5q-1 -20 9 -32.5t26 -12.5q9 0 15.5 3.5t12.5 12.5t11.5 24t12.5 38q4 12 7.5 27.5t6.5 30.5t4.5 27.5t1.5 19.5q0 20 -9 32t-25 12zM654 153q-18 -37 -47.5 -67.5t-66.5 -52.5t-79 -34t-85 -12
q-70 0 -131.5 26.5t-107 73t-72 108.5t-26.5 133q0 72 26 133.5t72 107.5t107.5 72t133.5 26q61 0 113.5 -21t91 -58t60.5 -86.5t22 -107.5q0 -48 -16 -92t-43 -78t-62 -54.5t-73 -20.5q-23 0 -41 10.5t-35 34.5q-21 -21 -41 -30.5t-44 -9.5q-25 0 -49 12.5t-40 32.5
q-29 38 -29 103q0 41 11.5 77.5t31 63.5t46.5 42.5t57 15.5q27 0 46.5 -10.5t37.5 -33.5l9 32h93l-45 -217q-2 -8 -3.5 -23.5t-1.5 -20.5q0 -10 5 -16t13 -6q13 0 29.5 11t32.5 31q24 29 37.5 67t13.5 76q0 47 -17.5 87.5t-48.5 70t-73 46.5t-90 17q-59 0 -109.5 -21.5
t-87 -59.5t-57.5 -90t-21 -112q0 -61 21.5 -113.5t59 -91.5t88 -61t109.5 -22q63 0 118.5 29.5t93.5 82.5h63z" />
    <glyph glyph-name="A" unicode="A" horiz-adv-x="534" 
d="M219 248h94l-48 279zM379 667l161 -667h-183l-20 111h-140l-20 -111h-182l164 667h220z" />
    <glyph glyph-name="B" unicode="B" horiz-adv-x="510" 
d="M206 125h16h18q75 0 75 83q0 60 -42 76q-6 2 -21 3.5t-32 1.5h-14v-164zM206 403h14q46 0 65 16t19 54t-18.5 53.5t-64.5 15.5h-15v-139zM266 667q52 0 84.5 -6t55.5 -20q35 -20 53.5 -57t18.5 -85q0 -60 -27.5 -98.5t-80.5 -50.5q126 -18 126 -159q0 -59 -22.5 -102.5
t-64.5 -66.5q-19 -10 -54 -16t-71 -6h-252v667h234z" />
    <glyph glyph-name="C" unicode="C" horiz-adv-x="502" 
d="M481 269q0 -32 -0.5 -50t-1.5 -30t-2 -22t-4 -24q-6 -39 -28 -73t-53 -54q-24 -15 -61 -23t-82 -8q-144 0 -194 97q-9 18 -15.5 39.5t-10.5 51.5t-5.5 69.5t-1.5 93.5q0 59 2.5 102t8 74.5t14.5 53.5t23 40q57 75 187 75q81 0 130.5 -26t72.5 -81q5 -12 8 -24.5t5 -29.5
t2.5 -39.5t0.5 -54.5h-168v10q0 37 -2.5 62t-8 39t-15.5 20t-25 6q-39 0 -48 -49q-4 -17 -5.5 -58t-1.5 -101q0 -57 1 -101.5t3 -71.5q3 -45 14.5 -62.5t36.5 -17.5q31 0 44 32.5t11 108.5v26h169z" />
    <glyph glyph-name="D" unicode="D" horiz-adv-x="518" 
d="M208 124h17q31 0 49.5 6.5t28.5 29.5t12.5 68t2.5 122q0 65 -3 103.5t-12.5 58.5t-28.5 25.5t-51 5.5h-15v-419zM254 667q36 0 64 -3t50 -10t39 -18.5t31 -27.5q16 -18 27 -40.5t18 -53t10 -70.5t3 -94q0 -60 -3.5 -112.5t-10.5 -87.5q-8 -44 -33 -77.5t-62 -50.5
q-27 -13 -52.5 -17.5t-68.5 -4.5h-234v667h222z" />
    <glyph glyph-name="E" unicode="E" horiz-adv-x="447" 
d="M426 667v-140h-220v-116h206v-137h-206v-134h230v-140h-404v667h394z" />
    <glyph glyph-name="F" unicode="F" horiz-adv-x="426" 
d="M427 667v-140h-219v-117h204v-138h-204v-272h-176v667h395z" />
    <glyph glyph-name="G" unicode="G" horiz-adv-x="510" 
d="M482 361v-361h-120l-2 19q-2 14 -2.5 24t-1.5 15q-14 -35 -49 -54t-89 -19q-116 0 -159 78q-10 19 -17 41.5t-11.5 52.5t-6.5 69t-2 91q0 66 2.5 113.5t8.5 81t15.5 57t24.5 41.5q29 36 74 53.5t111 17.5q113 0 165.5 -51.5t52.5 -160.5v-11h-167q-1 61 -12.5 83.5
t-40.5 22.5q-40 0 -48 -46q-4 -23 -5.5 -58.5t-1.5 -103.5q0 -42 0.5 -73.5t1 -54.5t2 -39.5t3.5 -29.5q5 -32 17 -45.5t35 -13.5q18 0 31.5 10.5t18.5 29.5q2 8 3.5 16.5t2.5 20.5t1.5 28.5t0.5 40.5h-61v115h225z" />
    <glyph glyph-name="H" unicode="H" horiz-adv-x="520" 
d="M311 422v245h176v-667h-176v276h-102v-276h-177v667h177v-245h102z" />
    <glyph glyph-name="I" unicode="I" horiz-adv-x="243" 
d="M211 667v-667h-177l-2 667h179z" />
    <glyph glyph-name="J" unicode="J" horiz-adv-x="446" 
d="M157 213q0 -34 2 -56t6.5 -34.5t12.5 -17t21 -4.5q38 0 42 50q1 8 1 24.5v40.5v451h176v-457q0 -57 -6.5 -90t-23.5 -58q-28 -41 -72 -59.5t-115 -18.5q-111 0 -160 53t-44 166q0 6 1 10h159z" />
    <glyph glyph-name="K" unicode="K" horiz-adv-x="524" 
d="M205 667v-239l127 239h187l-171 -286l194 -381h-197l-106 234l-34 -57v-177h-173v667h173z" />
    <glyph glyph-name="L" unicode="L" horiz-adv-x="423" 
d="M208 667v-527h215v-140h-389l-2 667h176z" />
    <glyph glyph-name="M" unicode="M" horiz-adv-x="708" 
d="M282 667l73 -403l70 403h250v-667h-164v485l-95 -485h-127l-95 485v-485h-162v667h250z" />
    <glyph glyph-name="N" unicode="N" horiz-adv-x="533" 
d="M224 667l112 -367v367h164v-667h-189l-117 380v-380h-162v667h192z" />
    <glyph glyph-name="O" unicode="O" horiz-adv-x="520" 
d="M259 563q-38 0 -49 -42q-2 -11 -3.5 -25t-2.5 -34.5t-1.5 -49t-0.5 -66.5q0 -80 2 -128t8 -74.5t17.5 -35t30.5 -8.5q18 0 29.5 8t18 31.5t8.5 66.5t2 112q0 45 -0.5 77.5t-1.5 56t-2.5 40t-4.5 28.5q-9 43 -50 43zM259 682q79 0 128.5 -24t75.5 -74q10 -20 17 -42
t11 -52t5.5 -69.5t1.5 -94.5q0 -83 -6 -135t-20 -90q-42 -117 -212 -117t-213 120q-13 37 -19 92.5t-6 143.5q0 51 2 89t6.5 67.5t12 52t18.5 42.5q49 91 198 91z" />
    <glyph glyph-name="P" unicode="P" horiz-adv-x="491" 
d="M206 380h20q45 0 62.5 17.5t17.5 62.5t-17.5 64t-60.5 19h-22v-163zM254 667q59 0 96.5 -7.5t60.5 -24.5q35 -26 54.5 -71t19.5 -102q0 -51 -16.5 -93t-45.5 -68q-28 -24 -66 -35t-95 -11h-25h-30v-255h-175v667h222z" />
    <glyph glyph-name="Q" unicode="Q" horiz-adv-x="519" 
d="M258 562q-37 0 -47 -37q-3 -11 -4.5 -24.5t-2.5 -34t-1.5 -49.5t-0.5 -69q0 -47 0.5 -80t1.5 -56.5t2.5 -39t4.5 -27.5q4 -21 16.5 -33t31.5 -12t30 9t17 38t8 83t2 143q0 58 -2.5 95t-8.5 58t-17.5 28.5t-29.5 7.5zM323 -1q-17 -8 -34.5 -11t-43.5 -3q-131 0 -181 86
q-12 19 -20 42.5t-13 54t-7 69.5t-2 90q0 62 2.5 106.5t9 77.5t17 56.5t25.5 43.5q29 37 72 53.5t110 16.5q75 0 121.5 -20.5t75.5 -65.5q12 -19 20.5 -41t13 -52.5t6.5 -71t2 -97.5q0 -59 -3 -103.5t-9 -76.5t-15.5 -53.5t-23.5 -35.5l84 -86l-102 -88z" />
    <glyph glyph-name="R" unicode="R" horiz-adv-x="506" 
d="M207 387h25q44 0 63 19t19 63q0 42 -18.5 58.5t-65.5 16.5h-23v-157zM274 667q57 0 90 -6.5t56 -21.5q68 -44 68 -152q0 -69 -27 -106.5t-87 -50.5q36 -6 57.5 -17t33.5 -35t16 -64.5t4 -106.5q0 -25 1 -40t3 -26t6 -20t10 -21h-178q-5 10 -7.5 19.5t-4.5 25.5t-3 40.5
t-2 63.5q-1 27 -2 44.5t-2.5 28.5t-4 17.5t-6.5 12.5q-8 11 -20 14.5t-37 3.5h-31v-270h-175v667h242z" />
    <glyph glyph-name="S" unicode="S" horiz-adv-x="490" 
d="M180 201q0 -58 12 -79t45 -21q27 0 42 17.5t15 49.5q0 43 -31 64q-5 4 -9.5 6.5t-16 8t-34 15t-63.5 27.5q-64 28 -93 72t-29 115q0 204 224 204q111 0 162 -48.5t51 -153.5h-165q0 46 -12 65t-39 19q-23 0 -36.5 -15.5t-13.5 -41.5q0 -16 4 -28t13 -22.5t24.5 -19.5
t38.5 -19q64 -27 103.5 -48.5t61.5 -45t29.5 -53.5t7.5 -73q0 -111 -57 -161t-183 -50q-116 0 -167.5 48t-51.5 157v11h168z" />
    <glyph glyph-name="T" unicode="T" horiz-adv-x="413" 
d="M426 667v-145h-131v-522h-175v522h-134v145h440z" />
    <glyph glyph-name="U" unicode="U" horiz-adv-x="509" 
d="M204 667v-457q0 -35 1 -49.5t4 -24.5q9 -35 46 -35q42 0 48 47q2 10 2.5 23.5t0.5 41.5v454h176v-421q0 -35 -1.5 -61t-5.5 -46.5t-9.5 -36.5t-14.5 -30q-27 -46 -75.5 -67t-125.5 -21q-158 0 -203 105q-11 24 -15 59.5t-4 97.5v421h176z" />
    <glyph glyph-name="V" unicode="V" horiz-adv-x="502" 
d="M183 667l71 -479l70 479h183l-145 -667h-223l-144 667h188z" />
    <glyph glyph-name="W" unicode="W" horiz-adv-x="722" 
d="M168 667l51 -456l64 456h158l69 -464l48 464h166l-113 -667h-189l-61 439l-60 -439h-189l-114 667h170z" />
    <glyph glyph-name="X" unicode="X" horiz-adv-x="504" 
d="M197 667l56 -188l57 188h192l-147 -328l159 -339h-197l-67 201l-68 -201h-193l159 340l-147 327h196z" />
    <glyph glyph-name="Y" unicode="Y" horiz-adv-x="487" 
d="M180 667l68 -228l64 228h189l-170 -404v-263h-174v263l-171 404h194z" />
    <glyph glyph-name="Z" unicode="Z" horiz-adv-x="436" 
d="M422 667v-121l-210 -406h210v-140h-411v121l209 407h-195v139h397z" />
    <glyph glyph-name="bracketleft" unicode="[" horiz-adv-x="330" 
d="M289 667v-120h-98v-590h98v-120h-251v830h251z" />
    <glyph glyph-name="backslash" unicode="\" horiz-adv-x="400" 
d="M424 -163h-133l-264 830h133z" />
    <glyph glyph-name="bracketright" unicode="]" horiz-adv-x="330" 
d="M41 -163v120h98v590h-98v120h251v-830h-251z" />
    <glyph glyph-name="asciicircum" unicode="^" horiz-adv-x="500" 
d="M3 333l135 339h223l135 -339h-175l-71 203l-71 -203h-176z" />
    <glyph glyph-name="underscore" unicode="_" horiz-adv-x="500" 
d="M500 -46v-119h-500v119h500z" />
    <glyph glyph-name="grave" unicode="`" horiz-adv-x="500" 
d="M315 567h-98l-85 135h143z" />
    <glyph glyph-name="a" unicode="a" horiz-adv-x="449" 
d="M235 230q-20 -8 -32 -14t-18.5 -13.5t-8.5 -18t-2 -26.5q0 -58 42 -58q26 0 37.5 18t11.5 61v63zM28 349q1 89 49 128.5t155 39.5q125 0 167 -60q7 -9 11 -19t6.5 -23.5t3.5 -33t1 -47.5v-207q0 -54 3.5 -81t12.5 -46h-160q-4 15 -6 31t-3 28q-35 -72 -124 -72
q-132 0 -132 150q0 91 49 127q10 7 19.5 12.5t25.5 10.5t41.5 11.5t67.5 15.5q28 7 39.5 19.5t11.5 36.5q0 46 -43 46q-25 0 -36 -16t-11 -51h-148z" />
    <glyph glyph-name="b" unicode="b" horiz-adv-x="480" 
d="M242 391q-14 0 -23.5 -6t-15 -22t-7.5 -43.5t-2 -69.5q0 -41 2 -68t7.5 -42.5t14.5 -22t23 -6.5t23.5 7t15 23.5t7.5 44.5t2 71q0 40 -2 66t-7.5 41t-14.5 21t-23 6zM197 451q23 35 49.5 50.5t66.5 15.5q92 0 125 -89q21 -54 21 -175q0 -141 -36.5 -203.5t-118.5 -62.5
q-41 0 -66 15.5t-45 53.5v-56h-163v667h167v-216z" />
    <glyph glyph-name="c" unicode="c" horiz-adv-x="461" 
d="M440 210q0 -57 -7.5 -91t-24.5 -60q-26 -40 -66.5 -56t-110.5 -16q-57 0 -97 14t-64.5 45.5t-36 81.5t-11.5 121q0 74 11.5 126t37.5 84.5t67 47t100 14.5q76 0 121 -22.5t65 -70.5q8 -20 12 -47.5t4 -69.5h-155q0 58 -9.5 79.5t-35.5 21.5q-15 0 -25 -7.5t-16 -25.5
t-8.5 -48.5t-2.5 -77.5q0 -48 2 -79t7.5 -48.5t15.5 -24t26 -6.5q15 0 24 5t14.5 17.5t8 35t2.5 57.5h152z" />
    <glyph glyph-name="d" unicode="d" horiz-adv-x="478" 
d="M238 392q-14 0 -23.5 -6t-14.5 -21.5t-7 -42t-2 -67.5q0 -42 2 -70t7.5 -44.5t14.5 -23t23 -6.5t23.5 6.5t15 22t7.5 42.5t2 68q0 43 -2 70.5t-7.5 43.5t-15 22t-23.5 6zM449 0h-161v62q-14 -36 -44 -55.5t-72 -19.5q-41 0 -69.5 14.5t-46.5 46t-26 81t-8 120.5
q0 75 7.5 122.5t23.5 76.5q38 69 120 69q39 0 64.5 -15t44.5 -50v215h167v-667z" />
    <glyph glyph-name="e" unicode="e" horiz-adv-x="460" 
d="M280 316q0 31 -2 50.5t-7 30.5t-13.5 15t-21.5 4q-27 0 -37 -21.5t-10 -78.5h91zM189 225v-38t0.5 -22.5t1.5 -14.5t2 -14q6 -47 44 -47q25 0 35 19t11 67h152q-3 -99 -51 -143.5t-151 -44.5q-59 0 -99.5 14t-65 45.5t-35.5 83t-11 126.5q0 72 11 122.5t36 81.5t65.5 45
t98.5 14q57 0 96.5 -13.5t63.5 -44t35 -79.5t11 -120v-37h-250z" />
    <glyph glyph-name="f" unicode="f" horiz-adv-x="266" 
d="M45 504v30q0 27 2 46t6.5 33.5t12 24.5t18.5 18q19 14 48 20t74 6q15 0 31.5 -0.5t39.5 -2.5v-110q-7 1 -11.5 1h-9.5q-15 0 -24 -1.5t-13.5 -7t-6 -16.5t-1.5 -29v-12h66v-111h-66v-393h-166v393h-60v111h60z" />
    <glyph glyph-name="g" unicode="g" horiz-adv-x="478" 
d="M238 394q-33 0 -41 -40q-6 -26 -6 -94q0 -37 2 -61t7.5 -38.5t14 -20t22.5 -5.5t23 6t14.5 20.5t8 39t2.5 62.5q0 74 -10 102.5t-37 28.5zM191 -29q1 -42 45 -42q28 0 39.5 17t11.5 58v78q-23 -37 -49.5 -52.5t-66.5 -15.5q-76 0 -112.5 61t-36.5 189q0 72 9 119t28 76
q39 59 118 59q43 0 70 -19.5t44 -63.5v69h157v-457q0 -32 -1.5 -55t-5 -40t-9.5 -30t-15 -25q-26 -35 -71 -51.5t-116 -16.5q-97 0 -143 34t-48 108h152z" />
    <glyph glyph-name="h" unicode="h" horiz-adv-x="474" 
d="M197 452q40 66 121 66q48 0 79.5 -21t42.5 -59q5 -14 6.5 -36t1.5 -60v-342h-168v313q0 25 -1 36.5t-4 18.5q-9 22 -33 22q-14 0 -24.5 -7.5t-15.5 -19.5q-3 -8 -4 -18t-1 -30v-315h-167v667h167v-215z" />
    <glyph glyph-name="i" unicode="i" horiz-adv-x="227" 
d="M198 667v-117h-168v117h168zM198 504v-504h-168v504h168z" />
    <glyph glyph-name="j" unicode="j" horiz-adv-x="226" 
d="M197 667v-117h-167v117h167zM197 504v-483q0 -45 -1 -68t-5 -40q-8 -42 -43.5 -60.5t-109.5 -18.5q-19 0 -36 0.5t-38 2.5v115q8 -1 13 -1.5t9 -0.5q28 0 36 11.5t8 49.5v493h167z" />
    <glyph glyph-name="k" unicode="k" horiz-adv-x="472" 
d="M195 667v-325l98 162h182l-144 -200l161 -304h-182l-84 175l-32 -45v-130h-164v667h165z" />
    <glyph glyph-name="l" unicode="l" horiz-adv-x="226" 
d="M196 667v-667h-166v667h166z" />
    <glyph glyph-name="m" unicode="m" horiz-adv-x="723" 
d="M191 504v-57q25 38 54.5 54.5t70.5 16.5q49 0 77.5 -17.5t45.5 -59.5q24 42 53.5 59.5t74.5 17.5q86 0 115 -61q8 -17 11.5 -38.5t3.5 -56.5v-362h-168v304q0 30 -1 43t-4 21q-8 22 -34 22q-43 0 -43 -67v-323h-167v316q0 34 -3 46q-7 28 -36 28q-32 0 -40 -32
q-1 -3 -1.5 -5.5t-1 -7t-1 -13t-0.5 -23.5v-309h-167v504h161z" />
    <glyph glyph-name="n" unicode="n" horiz-adv-x="476" 
d="M192 446q16 34 49.5 53t77.5 19q46 0 77 -18t43 -53q6 -16 8.5 -38.5t2.5 -58.5v-350h-169v320q0 41 -8 55.5t-31 14.5q-45 0 -45 -65v-325h-167v504h162v-58z" />
    <glyph glyph-name="o" unicode="o" horiz-adv-x="473" 
d="M237 411q-14 0 -23.5 -7t-15 -24.5t-7.5 -47.5t-2 -75q0 -49 2 -80.5t7 -50t14.5 -25.5t23.5 -7t23.5 7.5t15 25.5t7.5 49t2 79q0 47 -2 77.5t-7.5 48t-14.5 24t-23 6.5zM240 519q58 0 98.5 -14t65.5 -45t36 -81t11 -122q0 -74 -12 -125t-38 -83.5t-67.5 -47
t-101.5 -14.5q-59 0 -99 14t-64.5 45.5t-35.5 83t-11 126.5q0 71 12 121t38 81.5t67.5 46t100.5 14.5z" />
    <glyph glyph-name="p" unicode="p" horiz-adv-x="479" 
d="M242 392q-14 0 -23.5 -6.5t-15 -22t-8 -41t-2.5 -64.5q0 -44 2 -72t7 -44.5t14.5 -23t23.5 -6.5t23 6t14.5 21t8 40.5t2.5 63.5q0 44 -2 72.5t-7.5 45.5t-14.5 24t-22 7zM191 441q24 42 50 59t67 17q79 0 114 -60.5t35 -195.5q0 -80 -7.5 -127t-24.5 -79
q-38 -68 -121 -68q-38 0 -62.5 15t-44.5 50v-215h-167v665h161v-61z" />
    <glyph glyph-name="q" unicode="q" horiz-adv-x="479" 
d="M237 392q-14 0 -22.5 -6.5t-14 -23t-7.5 -44t-2 -69.5t2 -68.5t7 -42t14.5 -21.5t23.5 -6t23.5 6.5t15 22.5t7.5 43t2 69q0 41 -2 68t-7.5 43t-15 22.5t-24.5 6.5zM449 -163h-166v216q-30 -67 -111 -67q-95 0 -129 91q-21 54 -21 178q0 78 8.5 126.5t28.5 77.5
q39 58 114 58q43 0 68 -17t46 -61v63h162v-665z" />
    <glyph glyph-name="r" unicode="r" horiz-adv-x="339" 
d="M191 504v-74q23 46 51 65.5t70 19.5h9.5t11.5 -2v-155q-12 2 -21 3t-19 1q-59 0 -84 -31q-8 -9 -10.5 -23t-2.5 -40v-268h-166v504h161z" />
    <glyph glyph-name="s" unicode="s" horiz-adv-x="427" 
d="M161 161q0 -38 12 -54.5t39 -16.5q46 0 46 44q0 27 -20 38q-4 3 -7.5 4.5t-12 5t-24.5 9t-45 15.5q-37 13 -62 28t-40.5 33.5t-22.5 42.5t-7 55q0 75 50.5 115t146.5 40q137 0 176 -77q8 -15 11 -33.5t3 -47.5h-145q0 31 -9.5 43.5t-35.5 12.5q-43 0 -43 -37
q0 -19 12.5 -29.5t45.5 -21.5q46 -14 75 -24.5t48 -21.5q32 -17 48 -50t16 -78q0 -83 -53 -126t-155 -43q-100 0 -147.5 40t-47.5 124v10h148z" />
    <glyph glyph-name="t" unicode="t" horiz-adv-x="278" 
d="M46 504v145h167v-145h67v-111h-67v-233q0 -32 9 -42t40 -10h8t10 1v-110q-20 -4 -42.5 -5.5t-48.5 -1.5q-56 0 -85.5 10.5t-43.5 33.5q-7 11 -10.5 37.5t-3.5 61.5v258h-59v111h59z" />
    <glyph glyph-name="u" unicode="u" horiz-adv-x="475" 
d="M194 504v-311q0 -25 1 -36t3 -19q9 -23 34 -23q14 0 25.5 8t15.5 21q2 8 3 17.5t1 26.5v316h168v-504h-162v60q-40 -73 -127 -73q-42 0 -72 16t-44 46q-8 16 -11 37.5t-3 54.5v363h168z" />
    <glyph glyph-name="v" unicode="v" horiz-adv-x="434" 
d="M169 504l52 -360l50 360h168l-124 -504h-197l-124 504h175z" />
    <glyph glyph-name="w" unicode="w" horiz-adv-x="689" 
d="M164 504l43 -363l52 363h177l52 -364l44 364h159l-102 -504h-193l-50 343l-51 -343h-193l-104 504h166z" />
    <glyph glyph-name="x" unicode="x" horiz-adv-x="448" 
d="M170 504l50 -135l56 135h171l-129 -243l135 -261h-168l-60 155l-60 -155h-171l135 261l-128 243h169z" />
    <glyph glyph-name="y" unicode="y" horiz-adv-x="434" 
d="M167 504l56 -355l52 355h164l-127 -495q-14 -54 -29 -88.5t-36.5 -53.5t-52.5 -26t-77 -7q-19 0 -35.5 0.5t-38.5 2.5v115q14 -2 19.5 -2h12.5q30 0 43 10t19 38l-143 506h173z" />
    <glyph glyph-name="z" unicode="z" horiz-adv-x="396" 
d="M386 504v-125l-185 -247h191v-132h-389v129l182 244h-173v131h374z" />
    <glyph glyph-name="braceleft" unicode="{" horiz-adv-x="358" 
d="M222 381q0 -29 -5.5 -53.5t-16.5 -38.5q-5 -8 -13 -14.5t-25 -18.5q34 -23 47 -50.5t13 -76.5v-79q0 -24 2.5 -38t11 -20.5t25 -8.5t45.5 -2h16v-137h-19q-55 0 -85 0.5t-46.5 2.5t-25 5.5t-20.5 9.5q-30 17 -43.5 46t-13.5 79v105q0 46 -12.5 67.5t-42.5 27.5v137
q31 8 42 29q5 9 9 28.5t4 36.5v105q0 50 13.5 79.5t43.5 45.5q12 6 23 10t29.5 6t48 2.5t76.5 0.5h19v-137h-16q-29 0 -46 -2t-25.5 -8.5t-10.5 -20.5t-2 -38v-80z" />
    <glyph glyph-name="bar" unicode="|" horiz-adv-x="500" 
d="M352 667v-834h-204v834h204z" />
    <glyph glyph-name="braceright" unicode="}" horiz-adv-x="358" 
d="M136 130q0 30 5.5 54.5t16.5 38.5q5 8 13 14.5t25 18.5q-35 22 -47.5 49.5t-12.5 77.5v78q0 24 -2.5 38t-11 20.5t-25 8.5t-45.5 2h-16v137h19q55 0 85 -0.5t46.5 -2.5t25 -5.5t20.5 -9.5q30 -16 43.5 -45.5t13.5 -79.5v-105q0 -46 12.5 -67t42.5 -28v-137
q-31 -7 -42 -29q-5 -9 -9 -28.5t-4 -35.5v-106q0 -50 -13.5 -79.5t-43.5 -45.5q-12 -6 -23 -9.5t-29.5 -6t-48 -3t-76.5 -0.5h-19v137h16q29 0 46 2t25.5 8.5t10.5 20.5t2 38v80z" />
    <glyph glyph-name="asciitilde" unicode="~" horiz-adv-x="667" 
d="M92 613q31 81 68.5 117.5t90.5 36.5q9 0 18 -1t23.5 -5.5t38.5 -13t64 -23.5q18 -7 32 -7q16 0 28 11t28 42l96 -82q-9 -23 -17 -40t-15.5 -29.5t-15 -23t-17.5 -20.5q-39 -41 -94 -41q-9 0 -18 1t-21 4.5t-29.5 9.5t-42.5 16q-32 12 -44 15.5t-22 3.5q-15 0 -27.5 -12
t-27.5 -41z" />
    <glyph glyph-name="uni00A0" unicode="&#xa0;" horiz-adv-x="250" 
 />
    <glyph glyph-name="exclamdown" unicode="&#xa1;" horiz-adv-x="245" 
d="M43 519v148h159v-148h-159zM41 0v222l18 251h127l18 -251v-222h-163z" />
    <glyph glyph-name="cent" unicode="&#xa2;" 
d="M458 275q2 -91 -40.5 -143t-122.5 -58v-87h-78v87q-74 3 -119 48q-31 32 -45 81t-14 129q0 91 14.5 144t49.5 85q22 20 52 31.5t62 13.5v73h78v-73q80 -4 122.5 -52.5t40.5 -133.5h-149q0 45 -11.5 64t-38.5 19q-19 0 -30.5 -6t-18 -23.5t-9 -49t-2.5 -81.5
q0 -51 2.5 -83t9 -50.5t18.5 -25.5t31 -7q29 0 40 22t12 76h146z" />
    <glyph glyph-name="sterling" unicode="&#xa3;" 
d="M86 369q-21 38 -30.5 68t-9.5 59q0 81 55.5 126t155.5 45q112 0 163.5 -47t51.5 -148h-152q-1 23 -1.5 33t-2.5 18q-10 37 -49 37q-52 0 -52 -61q0 -35 27 -89q10 -20 13.5 -28t5.5 -13h159v-98h-128q2 -6 2 -9.5v-8.5q0 -37 -24.5 -73t-69.5 -68q15 6 24.5 8t20.5 2
q12 0 21 -2t30 -10q15 -6 26.5 -8.5t21.5 -2.5q19 0 47 11t48 27l47 -106q-12 -9 -29.5 -17t-37 -14t-39 -9.5t-37.5 -3.5q-39 0 -90 15q-23 7 -36 10.5t-22 5.5t-16.5 2.5t-17.5 0.5q-25 0 -45.5 -6t-53.5 -23l-41 97q49 32 78 75t29 82q0 13 -4 25h-100v98h62z" />
    <glyph glyph-name="currency" unicode="&#xa4;" horiz-adv-x="723" 
d="M364 441q-43 0 -72.5 -29.5t-29.5 -72.5q0 -21 8 -39.5t22 -32.5t32 -22t39 -8t39.5 8t32 22t21.5 33t8 40t-8 39t-21.5 32t-32 22t-38.5 8zM128 213q-14 29 -22 61.5t-8 62.5q0 65 34 130l-109 108l103 104l112 -111q34 17 62.5 23.5t61.5 6.5t62 -7t61 -22l110 108
l102 -102l-106 -106q19 -35 27.5 -65.5t8.5 -66.5q0 -33 -7 -61t-24 -62l106 -106l-102 -103l-105 105q-33 -19 -65.5 -27.5t-67.5 -8.5t-65 8t-67 27l-106 -104l-102 102z" />
    <glyph glyph-name="yen" unicode="&#xa5;" 
d="M7 653h179l65 -225l62 225h172l-96 -246h71v-81h-102l-27 -68v-38h103v-81h-103v-139h-167v139h-105v81h105v38l-27 68h-105v81h73z" />
    <glyph glyph-name="brokenbar" unicode="&#xa6;" horiz-adv-x="500" 
d="M352 153v-320h-204v320h204zM352 667v-365h-204v365h204z" />
    <glyph glyph-name="section" unicode="&#xa7;" 
d="M300 210q36 30 36 62q0 14 -7 26.5t-19 17.5l-114 50q-40 -34 -40 -63q0 -26 33 -42zM195 54q0 -43 10.5 -61t36.5 -18q43 0 43 56q0 24 -13 36q-5 4 -9.5 7.5t-17.5 9t-38.5 16t-71.5 28.5q-113 45 -113 151q0 47 17.5 79.5t59.5 61.5q-54 35 -54 105q0 166 208 166
q100 0 147 -40t47 -125h-148q-1 32 -12 44.5t-37 12.5q-22 0 -34 -11t-12 -31q0 -21 23 -35q5 -3 9.5 -5t16 -6.5t33 -12.5t60.5 -23q64 -24 94.5 -63t30.5 -98q0 -90 -70 -138q29 -23 42 -51.5t13 -70.5q0 -171 -210 -171q-111 0 -160 44t-49 143h158z" />
    <glyph glyph-name="dieresis" unicode="&#xa8;" horiz-adv-x="500" 
d="M402 705v-129h-132v129h132zM231 705v-129h-132v129h132z" />
    <glyph glyph-name="copyright" unicode="&#xa9;" horiz-adv-x="716" 
d="M363 620q-137 0 -224 -102q-32 -38 -49.5 -85.5t-17.5 -96.5q0 -60 22.5 -113t61 -92t90.5 -61.5t112 -22.5q59 0 111 22.5t91 61.5t61.5 91t22.5 112q0 58 -22.5 110t-60.5 91t-89.5 62t-108.5 23zM364 684q70 0 132.5 -28t109.5 -75.5t74.5 -111t27.5 -135.5
q0 -73 -27.5 -137t-75 -111.5t-111.5 -75t-136 -27.5q-73 0 -136.5 27.5t-111 75.5t-75 112t-27.5 138q0 72 28 135.5t76 111t113 74.5t139 27zM496 300q0 -23 -0.5 -39.5t-2.5 -28.5t-5.5 -21.5t-8.5 -18.5q-17 -30 -45.5 -43.5t-76.5 -13.5q-86 0 -117 56
q-11 20 -15.5 51.5t-4.5 92.5q0 34 1.5 58.5t5 42.5t9 30.5t13.5 22.5q34 43 112 43q95 0 122 -62q6 -14 8 -31.5t2 -55.5h-105l1 2v4v12t-1 16.5t-1.5 15.5t-1.5 9q-6 19 -24 19q-10 0 -16 -4t-9 -17t-4 -38.5t-1 -68.5q0 -41 1 -65.5t4.5 -38.5t9.5 -18.5t15 -4.5t15 3.5
t9.5 14t4.5 28.5t1 48h105z" />
    <glyph glyph-name="ordfeminine" unicode="&#xaa;" horiz-adv-x="316" 
d="M183 391v10t1 11q-6 -4 -8.5 -5t-10.5 -4q-25 -8 -31.5 -15t-6.5 -25q0 -33 26 -33q16 0 23 10.5t7 34.5v16zM29 474q1 56 31.5 80t101.5 24q82 0 111 -36q8 -12 11 -26.5t3 -48.5v-123q0 -34 2 -49t10 -28h-108q-2 8 -3 14t-3 17q-16 -22 -33 -30t-46 -8q-87 0 -87 90
q0 55 32 76q7 4 13.5 7.5t17 6.5t27 6.5t43.5 9.5q17 4 24.5 10.5t7.5 20.5q0 27 -27 27q-30 0 -30 -40h-98z" />
    <glyph glyph-name="guillemotleft" unicode="&#xab;" horiz-adv-x="298" 
d="M154 178v166l122 119v-140l-59 -58l59 -59v-147zM14 178v168l122 119v-142l-60 -58l60 -62v-145z" />
    <glyph glyph-name="logicalnot" unicode="&#xac;" horiz-adv-x="500" 
d="M269 123h-236v177h433v-300h-197v123z" />
    <glyph glyph-name="uni00AD" unicode="&#xad;" horiz-adv-x="294" 
d="M294 341v-141h-294v141h294z" />
    <glyph glyph-name="registered" unicode="&#xae;" horiz-adv-x="716" 
d="M333 366h12q25 0 35.5 10t10.5 33t-10.5 31.5t-36.5 8.5h-11v-83zM370 523q33 0 53.5 -4t34.5 -12q41 -26 41 -87q0 -37 -12.5 -56.5t-44.5 -31.5q18 -5 28.5 -12t16.5 -20.5t8 -35.5t2 -58q0 -14 0.5 -22.5t2 -15t4 -12t7.5 -13.5h-112q-8 13 -10 57q-1 36 -2 55
t-4.5 28t-11.5 10.5t-22 1.5h-16v-152h-108v380h145zM363 620q-137 0 -224 -102q-32 -38 -49.5 -85.5t-17.5 -96.5q0 -60 22.5 -113t61 -92t90.5 -61.5t112 -22.5q59 0 111 22.5t91 61.5t61.5 91t22.5 112q0 58 -22.5 110t-60.5 91t-89.5 62t-108.5 23zM364 684
q70 0 132.5 -28t109.5 -75.5t74.5 -111t27.5 -135.5q0 -73 -27.5 -137t-75 -111.5t-111.5 -75t-136 -27.5q-73 0 -136.5 27.5t-111 75.5t-75 112t-27.5 138q0 72 28 135.5t76 111t113 74.5t139 27z" />
    <glyph glyph-name="macron" unicode="&#xaf;" horiz-adv-x="500" 
d="M394 672v-81h-287v81h287z" />
    <glyph glyph-name="degree" unicode="&#xb0;" horiz-adv-x="364" 
d="M181 601q-15 0 -28.5 -6.5t-24 -17.5t-16.5 -25t-6 -30q0 -32 22 -54.5t53 -22.5t54 22.5t23 53.5q0 33 -22.5 56.5t-54.5 23.5zM182 667q30 0 56.5 -11.5t46 -31t30.5 -46t11 -57.5q0 -29 -11.5 -55t-31 -45.5t-45.5 -30.5t-56 -11t-56.5 11t-46 30.5t-30.5 45.5t-11 55
q0 30 11 57t30.5 46.5t46 31t56.5 11.5z" />
    <glyph glyph-name="plusminus" unicode="&#xb1;" 
d="M460 96v-118h-428v118h428zM187 386v155h118v-155h155v-118h-155v-140h-118v140h-155v118h155z" />
    <glyph glyph-name="twosuperior" unicode="&#xb2;" horiz-adv-x="329" 
d="M26 529q0 38 5 59.5t18 37.5q32 41 115 41q69 0 101 -28t32 -88q0 -20 -3 -36t-11 -30.5t-21 -30t-34 -33.5q-31 -28 -45.5 -43t-22.5 -29h138v-83h-275v9q0 69 43 126q4 5 7 8.5t11 11.5t23 22.5t42 41.5q22 22 29 34.5t7 33.5q0 23 -5.5 33t-19.5 10q-17 0 -22.5 -13
t-5.5 -54h-106z" />
    <glyph glyph-name="threesuperior" unicode="&#xb3;" horiz-adv-x="329" 
d="M131 390q0 -35 6 -48t23 -13q15 0 21 10.5t6 39.5q0 19 -1.5 30.5t-8 17.5t-18.5 7.5t-33 1.5h-7v69h12q16 0 26 2t15.5 8t7.5 16.5t2 27.5q0 20 -5.5 28.5t-18.5 8.5q-16 0 -21 -10t-6 -42h-103q0 63 32.5 92.5t101.5 29.5q66 0 97.5 -26t31.5 -81q0 -32 -11 -50.5
t-37 -33.5q31 -12 44.5 -33t13.5 -59q0 -125 -142 -125q-73 0 -104.5 31t-31.5 101h108z" />
    <glyph glyph-name="acute" unicode="&#xb4;" horiz-adv-x="500" 
d="M368 702l-85 -135h-98l40 135h143z" />
    <glyph glyph-name="mu" unicode="&#xb5;" horiz-adv-x="479" 
d="M197 -163h-167v667h167v-311q0 -26 1 -36.5t3 -18.5q9 -23 35 -23q15 0 26.5 8t15.5 21q4 12 4 43v317h167v-504h-159v63q-37 -48 -106 -59z" />
    <glyph glyph-name="paragraph" unicode="&#xb6;" 
d="M176 323h-11q-34 0 -62 12.5t-48 34.5t-31 53t-11 69q0 53 19.5 91.5t57.5 59.5q12 7 24 11.5t26 7.5t32.5 4t44.5 1h249v-72h-47v-708h-90v708h-63v-708h-90v436z" />
    <glyph glyph-name="periodcentered" unicode="&#xb7;" horiz-adv-x="211" 
d="M183 351v-184h-155v184h155z" />
    <glyph glyph-name="cedilla" unicode="&#xb8;" horiz-adv-x="500" 
d="M278 0l-27 -53q12 4 28 4q37 0 60.5 -21t23.5 -54q0 -42 -32.5 -67t-86.5 -25q-27 0 -53 5t-54 15l20 53q20 -8 37.5 -12t31.5 -4q20 0 31.5 8.5t11.5 23.5q0 13 -11.5 21t-28.5 8q-11 0 -26 -5l-26 19l43 84h58z" />
    <glyph glyph-name="onesuperior" unicode="&#xb9;" horiz-adv-x="329" 
d="M58 605q88 0 100 60h80v-399h-111v269h-78v70h9z" />
    <glyph glyph-name="ordmasculine" unicode="&#xba;" horiz-adv-x="313" 
d="M158 511q-19 0 -25 -18.5t-6 -71.5q0 -57 6 -76t23 -19q9 0 15 4.5t9.5 15t5 28.5t1.5 46q0 55 -6 73t-23 18zM158 578q77 0 108.5 -35.5t31.5 -121.5q0 -88 -33 -125t-111 -37q-38 0 -64.5 8.5t-43 27.5t-23.5 49.5t-7 75.5q0 85 32.5 121.5t109.5 36.5z" />
    <glyph glyph-name="guillemotright" unicode="&#xbb;" horiz-adv-x="298" 
d="M143 345v-166l-122 -119v140l59 58l-59 59v147zM283 345v-168l-122 -119v142l60 58l-60 62v145z" />
    <glyph glyph-name="onequarter" unicode="&#xbc;" horiz-adv-x="749" 
d="M499 153h58v120zM408 154l131 239h121v-240h37v-81h-37v-72h-107v72h-145v82zM529 654l-281 -654h-94l281 654h94zM25 605q88 0 100 60h80v-399h-111v269h-78v70h9z" />
    <glyph glyph-name="onehalf" unicode="&#xbd;" horiz-adv-x="749" 
d="M422 263q0 38 5 59.5t18 37.5q33 40 115 40q69 0 101 -28t32 -87q0 -20 -3 -36t-11 -31t-21 -30t-34 -33q-16 -14 -27 -24.5t-18.5 -18.5t-13 -15t-9.5 -14h138v-83h-275v9q0 70 43 125q4 5 7 8.5t11 11.5t23 22.5t42 41.5q22 22 29 34.5t7 33.5q0 23 -5.5 33t-19.5 10
q-17 0 -22.5 -12.5t-5.5 -53.5h-106zM519 654l-281 -654h-94l281 654h94zM35 605q88 0 100 60h80v-399h-111v269h-78v70h9z" />
    <glyph glyph-name="threequarters" unicode="&#xbe;" horiz-adv-x="749" 
d="M533 153h58v120zM442 154l131 239h121v-240h36v-81h-36v-72h-107v72h-145v82zM582 654l-281 -654h-94l282 654h93zM131 390q0 -35 6 -48t23 -13q15 0 21 10.5t6 39.5q0 19 -1.5 30.5t-8 17.5t-18.5 7.5t-33 1.5h-7v69h12q16 0 26 2t15.5 8t7.5 16.5t2 27.5
q0 20 -5.5 28.5t-18.5 8.5q-16 0 -21 -10t-6 -42h-103q0 63 32.5 92.5t101.5 29.5q66 0 97.5 -26t31.5 -81q0 -32 -11 -50.5t-37 -33.5q31 -12 44.5 -33t13.5 -59q0 -125 -142 -125q-73 0 -104.5 31t-31.5 101h108z" />
    <glyph glyph-name="questiondown" unicode="&#xbf;" horiz-adv-x="434" 
d="M150 519v148h159v-148h-159zM426 216q0 -56 -7 -89t-25 -59q-50 -76 -173 -76q-96 0 -148.5 47.5t-52.5 135.5q0 27 5.5 53t16.5 46q8 15 22 33t44 50q15 16 23.5 28t13.5 24t6.5 26.5t2.5 37.5h152q0 -43 -2.5 -70.5t-10 -48.5t-21 -39.5t-35.5 -42.5
q-16 -17 -26.5 -30.5t-17 -26.5t-9 -26t-2.5 -29q0 -59 43 -59q38 0 44 48q2 12 2 24.5v42.5h155z" />
    <glyph glyph-name="Agrave" unicode="&#xc0;" horiz-adv-x="534" 
d="M219 248h94l-48 279zM379 667l161 -667h-183l-20 111h-140l-20 -111h-182l164 667h220zM293 713h-98l-85 135h143z" />
    <glyph glyph-name="Aacute" unicode="&#xc1;" horiz-adv-x="534" 
d="M219 248h94l-48 279zM379 667l161 -667h-183l-20 111h-140l-20 -111h-182l164 667h220zM399 848l-85 -135h-98l40 135h143z" />
    <glyph glyph-name="Acircumflex" unicode="&#xc2;" horiz-adv-x="534" 
d="M219 248h94l-48 279zM379 667l161 -667h-183l-20 111h-140l-20 -111h-182l164 667h220zM339 848l59 -135h-118l-31 77l-33 -77h-115l60 135h178z" />
    <glyph glyph-name="Atilde" unicode="&#xc3;" horiz-adv-x="534" 
d="M219 248h94l-48 279zM379 667l161 -667h-183l-20 111h-140l-20 -111h-182l164 667h220zM112 727q4 21 7.5 35t7 23.5t8 17t11.5 15.5q22 26 54 26q13 0 25.5 -3t33.5 -11q23 -9 33 -12.5t16 -3.5q16 0 22 29h78q-2 -5 -9 -45q-7 -35 -30 -57t-52 -22q-7 0 -12.5 0.5
t-13.5 3t-21 7t-34 13.5q-17 7 -25 7q-18 0 -22 -30h-78z" />
    <glyph glyph-name="Adieresis" unicode="&#xc4;" horiz-adv-x="534" 
d="M219 248h94l-48 279zM379 667l161 -667h-183l-20 111h-140l-20 -111h-182l164 667h220zM403 842v-129h-132v129h132zM232 842v-129h-132v129h132z" />
    <glyph glyph-name="Aring" unicode="&#xc5;" horiz-adv-x="534" 
d="M219 248h94l-48 279zM379 667l161 -667h-183l-20 111h-140l-20 -111h-182l164 667h220zM267 876q-22 0 -37.5 -16t-15.5 -39q0 -24 15.5 -40.5t38.5 -16.5q22 0 37.5 16.5t15.5 39.5t-15.5 39.5t-38.5 16.5zM268 937q24 0 45.5 -9t37 -25t25 -37.5t9.5 -45.5t-9.5 -45.5
t-25 -37t-37 -25t-45.5 -9.5q-25 0 -46.5 9t-37.5 25t-25 38t-9 47q0 24 9.5 44.5t25.5 36.5t37.5 25t45.5 9z" />
    <glyph glyph-name="AE" unicode="&#xc6;" horiz-adv-x="717" 
d="M241 248h95v283h-6zM697 667v-137h-197v-120h183v-134h-183v-138h206v-138h-370v114h-136l-36 -114h-181l251 667h463z" />
    <glyph glyph-name="Ccedilla" unicode="&#xc7;" horiz-adv-x="502" 
d="M482 269v-23q0 -71 -10 -113.5t-35 -74.5q-54 -69 -161 -72l-22 -40q11 4 28 4q37 0 60.5 -21t23.5 -54q0 -41 -32.5 -66t-85.5 -25q-27 0 -54 5t-54 14l20 53q20 -8 37.5 -11.5t31.5 -3.5q20 0 31.5 8.5t11.5 22.5q0 13 -11.5 21t-28.5 8q-11 0 -26 -5l-26 19l38 71
q-45 2 -86.5 22.5t-64.5 54.5q-13 19 -21.5 41t-14 53.5t-7.5 75t-2 104.5q0 59 2.5 102t8 74.5t14.5 54t23 40.5q57 74 187 74q81 0 130.5 -26t72.5 -81q5 -12 8 -24.5t5 -29.5t2.5 -39.5t0.5 -54.5h-168v10q0 38 -2.5 62.5t-8 39t-15.5 20.5t-25 6q-18 0 -28.5 -7.5
t-16.5 -30t-8 -64t-2 -108.5q0 -83 2 -132.5t8 -76.5t17 -35.5t29 -8.5q16 0 26.5 7t17 24t9 45.5t2.5 72.5v18h169z" />
    <glyph glyph-name="Egrave" unicode="&#xc8;" horiz-adv-x="447" 
d="M426 667v-140h-220v-116h206v-137h-206v-134h230v-140h-404v667h394zM253 713h-98l-85 135h143z" />
    <glyph glyph-name="Eacute" unicode="&#xc9;" horiz-adv-x="447" 
d="M426 667v-140h-220v-116h206v-137h-206v-134h230v-140h-404v667h394zM327 848l-85 -135h-98l40 135h143z" />
    <glyph glyph-name="Ecircumflex" unicode="&#xca;" horiz-adv-x="447" 
d="M426 667v-140h-220v-116h206v-137h-206v-134h230v-140h-404v667h394zM299 848l59 -135h-118l-31 77l-33 -77h-115l60 135h178z" />
    <glyph glyph-name="Edieresis" unicode="&#xcb;" horiz-adv-x="447" 
d="M426 667v-140h-220v-116h206v-137h-206v-134h230v-140h-404v667h394zM365 842v-129h-132v129h132zM194 842v-129h-132v129h132z" />
    <glyph glyph-name="Igrave" unicode="&#xcc;" horiz-adv-x="243" 
d="M211 667v-667h-177l-2 667h179zM154 713h-98l-85 135h143z" />
    <glyph glyph-name="Iacute" unicode="&#xcd;" horiz-adv-x="243" 
d="M211 667v-667h-177l-2 667h179zM254 848l-85 -135h-98l40 135h143z" />
    <glyph glyph-name="Icircumflex" unicode="&#xce;" horiz-adv-x="243" 
d="M211 667v-667h-177l-2 667h179zM193 848l59 -135h-118l-31 77l-33 -77h-115l60 135h178z" />
    <glyph glyph-name="Idieresis" unicode="&#xcf;" horiz-adv-x="243" 
d="M211 667v-667h-177l-2 667h179zM270 842v-129h-132v129h132zM99 842v-129h-132v129h132z" />
    <glyph glyph-name="Eth" unicode="&#xd0;" horiz-adv-x="532" 
d="M278 421v-121h-56v-176h18q31 0 49 6.5t27.5 29.5t12 67.5t2.5 120.5q0 44 -1.5 74t-4.5 50.5t-8 33t-12 20.5q-4 4 -6.5 6t-7 3.5t-11 2t-17.5 2.5l-17.5 2.5t-5.5 0.5h-18v-122h56zM46 667h228q36 0 64 -3t49.5 -10.5t38 -19t30.5 -28.5q15 -18 25.5 -40.5t17 -52.5
t9.5 -70t3 -94q0 -59 -3.5 -112t-9.5 -87q-8 -43 -33.5 -77t-62.5 -51q-27 -13 -53 -17.5t-69 -4.5h-234v300h-48v121h48v246z" />
    <glyph glyph-name="Ntilde" unicode="&#xd1;" horiz-adv-x="533" 
d="M224 667l112 -367v367h164v-667h-189l-117 380v-380h-162v667h192zM110 727q4 21 7.5 35t7 23.5t8 17t11.5 15.5q22 26 54 26q13 0 25.5 -3t33.5 -11q23 -9 33 -12.5t16 -3.5q16 0 22 29h78q-2 -5 -9 -45q-7 -35 -30 -57t-52 -22q-7 0 -12.5 0.5t-13.5 3t-21 7t-34 13.5
q-17 7 -25 7q-18 0 -22 -30h-78z" />
    <glyph glyph-name="Ograve" unicode="&#xd2;" horiz-adv-x="520" 
d="M259 563q-38 0 -49 -42q-2 -11 -3.5 -25t-2.5 -34.5t-1.5 -49t-0.5 -66.5q0 -80 2 -128t8 -74.5t17.5 -35t30.5 -8.5q18 0 29.5 8t18 31.5t8.5 66.5t2 112q0 45 -0.5 77.5t-1.5 56t-2.5 40t-4.5 28.5q-9 43 -50 43zM259 682q79 0 128.5 -24t75.5 -74q10 -20 17 -42
t11 -52t5.5 -69.5t1.5 -94.5q0 -83 -6 -135t-20 -90q-42 -117 -212 -117t-213 120q-13 37 -19 92.5t-6 143.5q0 51 2 89t6.5 67.5t12 52t18.5 42.5q49 91 198 91zM286 713h-98l-85 135h143z" />
    <glyph glyph-name="Oacute" unicode="&#xd3;" horiz-adv-x="520" 
d="M259 563q-38 0 -49 -42q-2 -11 -3.5 -25t-2.5 -34.5t-1.5 -49t-0.5 -66.5q0 -80 2 -128t8 -74.5t17.5 -35t30.5 -8.5q18 0 29.5 8t18 31.5t8.5 66.5t2 112q0 45 -0.5 77.5t-1.5 56t-2.5 40t-4.5 28.5q-9 43 -50 43zM259 682q79 0 128.5 -24t75.5 -74q10 -20 17 -42
t11 -52t5.5 -69.5t1.5 -94.5q0 -83 -6 -135t-20 -90q-42 -117 -212 -117t-213 120q-13 37 -19 92.5t-6 143.5q0 51 2 89t6.5 67.5t12 52t18.5 42.5q49 91 198 91zM392 848l-85 -135h-98l40 135h143z" />
    <glyph glyph-name="Ocircumflex" unicode="&#xd4;" horiz-adv-x="520" 
d="M259 563q-38 0 -49 -42q-2 -11 -3.5 -25t-2.5 -34.5t-1.5 -49t-0.5 -66.5q0 -80 2 -128t8 -74.5t17.5 -35t30.5 -8.5q18 0 29.5 8t18 31.5t8.5 66.5t2 112q0 45 -0.5 77.5t-1.5 56t-2.5 40t-4.5 28.5q-9 43 -50 43zM259 682q79 0 128.5 -24t75.5 -74q10 -20 17 -42
t11 -52t5.5 -69.5t1.5 -94.5q0 -83 -6 -135t-20 -90q-42 -117 -212 -117t-213 120q-13 37 -19 92.5t-6 143.5q0 51 2 89t6.5 67.5t12 52t18.5 42.5q49 91 198 91zM332 848l59 -135h-118l-31 77l-33 -77h-115l60 135h178z" />
    <glyph glyph-name="Otilde" unicode="&#xd5;" horiz-adv-x="520" 
d="M259 563q-38 0 -49 -42q-2 -11 -3.5 -25t-2.5 -34.5t-1.5 -49t-0.5 -66.5q0 -80 2 -128t8 -74.5t17.5 -35t30.5 -8.5q18 0 29.5 8t18 31.5t8.5 66.5t2 112q0 45 -0.5 77.5t-1.5 56t-2.5 40t-4.5 28.5q-9 43 -50 43zM259 682q79 0 128.5 -24t75.5 -74q10 -20 17 -42
t11 -52t5.5 -69.5t1.5 -94.5q0 -83 -6 -135t-20 -90q-42 -117 -212 -117t-213 120q-13 37 -19 92.5t-6 143.5q0 51 2 89t6.5 67.5t12 52t18.5 42.5q49 91 198 91zM105 727q4 21 7.5 35t7 23.5t8 17t11.5 15.5q22 26 54 26q13 0 25.5 -3t33.5 -11q23 -9 33 -12.5t16 -3.5
q16 0 22 29h78q-2 -5 -9 -45q-7 -35 -30 -57t-52 -22q-7 0 -12.5 0.5t-13.5 3t-21 7t-34 13.5q-17 7 -25 7q-18 0 -22 -30h-78z" />
    <glyph glyph-name="Odieresis" unicode="&#xd6;" horiz-adv-x="520" 
d="M259 563q-38 0 -49 -42q-2 -11 -3.5 -25t-2.5 -34.5t-1.5 -49t-0.5 -66.5q0 -80 2 -128t8 -74.5t17.5 -35t30.5 -8.5q18 0 29.5 8t18 31.5t8.5 66.5t2 112q0 45 -0.5 77.5t-1.5 56t-2.5 40t-4.5 28.5q-9 43 -50 43zM259 682q79 0 128.5 -24t75.5 -74q10 -20 17 -42
t11 -52t5.5 -69.5t1.5 -94.5q0 -83 -6 -135t-20 -90q-42 -117 -212 -117t-213 120q-13 37 -19 92.5t-6 143.5q0 51 2 89t6.5 67.5t12 52t18.5 42.5q49 91 198 91zM398 842v-129h-132v129h132zM227 842v-129h-132v129h132z" />
    <glyph glyph-name="multiply" unicode="&#xd7;" 
d="M246 411l122 122l84 -84l-122 -122l122 -123l-84 -83l-122 122l-122 -122l-84 83l122 123l-122 122l84 84z" />
    <glyph glyph-name="Oslash" unicode="&#xd8;" horiz-adv-x="520" 
d="M211 142q7 -23 18.5 -33t31.5 -10q18 0 29.5 8t18 32t8.5 67t2 114v68zM307 531q-8 18 -19 25.5t-29 7.5q-39 0 -50 -43q-5 -21 -6.5 -60t-1.5 -116v-56zM389 721l65 -28l-27 -62q21 -19 34.5 -43t22 -59t11.5 -84.5t3 -119.5q0 -83 -6 -134.5t-20 -89.5
q-42 -117 -211 -117q-32 0 -61.5 4t-49.5 12l-26 -60l-64 30l30 69q-20 20 -33 44.5t-20.5 59t-11 82t-3.5 113.5q0 52 2 90.5t6.5 68t12 52t18.5 42.5q50 91 197 91q33 0 58.5 -3.5t48.5 -11.5z" />
    <glyph glyph-name="Ugrave" unicode="&#xd9;" horiz-adv-x="509" 
d="M204 667v-457q0 -35 1 -49.5t4 -24.5q9 -35 46 -35q42 0 48 47q2 10 2.5 23.5t0.5 41.5v454h176v-421q0 -35 -1.5 -61t-5.5 -46.5t-9.5 -36.5t-14.5 -30q-27 -46 -75.5 -67t-125.5 -21q-158 0 -203 105q-11 24 -15 59.5t-4 97.5v421h176zM281 713h-98l-85 135h143z" />
    <glyph glyph-name="Uacute" unicode="&#xda;" horiz-adv-x="509" 
d="M204 667v-457q0 -35 1 -49.5t4 -24.5q9 -35 46 -35q42 0 48 47q2 10 2.5 23.5t0.5 41.5v454h176v-421q0 -35 -1.5 -61t-5.5 -46.5t-9.5 -36.5t-14.5 -30q-27 -46 -75.5 -67t-125.5 -21q-158 0 -203 105q-11 24 -15 59.5t-4 97.5v421h176zM386 848l-85 -135h-98l40 135
h143z" />
    <glyph glyph-name="Ucircumflex" unicode="&#xdb;" horiz-adv-x="509" 
d="M204 667v-457q0 -35 1 -49.5t4 -24.5q9 -35 46 -35q42 0 48 47q2 10 2.5 23.5t0.5 41.5v454h176v-421q0 -35 -1.5 -61t-5.5 -46.5t-9.5 -36.5t-14.5 -30q-27 -46 -75.5 -67t-125.5 -21q-158 0 -203 105q-11 24 -15 59.5t-4 97.5v421h176zM326 848l59 -135h-118l-31 77
l-33 -77h-115l60 135h178z" />
    <glyph glyph-name="Udieresis" unicode="&#xdc;" horiz-adv-x="509" 
d="M204 667v-457q0 -35 1 -49.5t4 -24.5q9 -35 46 -35q42 0 48 47q2 10 2.5 23.5t0.5 41.5v454h176v-421q0 -35 -1.5 -61t-5.5 -46.5t-9.5 -36.5t-14.5 -30q-27 -46 -75.5 -67t-125.5 -21q-158 0 -203 105q-11 24 -15 59.5t-4 97.5v421h176zM392 842v-129h-132v129h132z
M221 842v-129h-132v129h132z" />
    <glyph glyph-name="Yacute" unicode="&#xdd;" horiz-adv-x="487" 
d="M180 667l68 -228l64 228h189l-170 -404v-263h-174v263l-171 404h194zM375 848l-85 -135h-98l40 135h143z" />
    <glyph glyph-name="Thorn" unicode="&#xde;" horiz-adv-x="498" 
d="M205 279h21q45 0 62.5 17t17.5 62q0 46 -17.5 64.5t-59.5 18.5h-24v-162zM205 0h-173v667h173v-102h50q60 0 96.5 -7.5t60.5 -24.5q35 -26 54.5 -71t19.5 -102q0 -73 -31 -122.5t-88 -69.5q-23 -8 -51 -11t-79 -3h-32v-154z" />
    <glyph glyph-name="germandbls" unicode="&#xdf;" horiz-adv-x="491" 
d="M30 464q0 66 10.5 104t36.5 62q26 26 67.5 38t104.5 12q106 0 155 -41t49 -129q0 -58 -19.5 -89.5t-63.5 -44.5q27 -5 46 -16.5t30.5 -32.5t17 -51.5t5.5 -73.5q0 -56 -9.5 -96t-30 -65t-53.5 -36.5t-79 -11.5q-20 0 -35.5 1t-33.5 4v110q7 -2 11.5 -2h9.5q30 0 41 24.5
t11 89.5q0 52 -11.5 73.5t-40.5 21.5h-14h-7v110h8q31 0 41 13.5t10 53.5q0 45 -10.5 62t-36.5 17q-28 0 -37.5 -18t-9.5 -69v-484h-163v464z" />
    <glyph glyph-name="agrave" unicode="&#xe0;" horiz-adv-x="449" 
d="M235 230q-20 -8 -32 -14t-18.5 -13.5t-8.5 -18t-2 -26.5q0 -58 42 -58q26 0 37.5 18t11.5 61v63zM28 349q1 89 49 128.5t155 39.5q125 0 167 -60q7 -9 11 -19t6.5 -23.5t3.5 -33t1 -47.5v-207q0 -54 3.5 -81t12.5 -46h-160q-4 15 -6 31t-3 28q-35 -72 -124 -72
q-132 0 -132 150q0 91 49 127q10 7 19.5 12.5t25.5 10.5t41.5 11.5t67.5 15.5q28 7 39.5 19.5t11.5 36.5q0 46 -43 46q-25 0 -36 -16t-11 -51h-148zM270 567h-98l-85 135h143z" />
    <glyph glyph-name="aacute" unicode="&#xe1;" horiz-adv-x="449" 
d="M235 230q-20 -8 -32 -14t-18.5 -13.5t-8.5 -18t-2 -26.5q0 -58 42 -58q26 0 37.5 18t11.5 61v63zM28 349q1 89 49 128.5t155 39.5q125 0 167 -60q7 -9 11 -19t6.5 -23.5t3.5 -33t1 -47.5v-207q0 -54 3.5 -81t12.5 -46h-160q-4 15 -6 31t-3 28q-35 -72 -124 -72
q-132 0 -132 150q0 91 49 127q10 7 19.5 12.5t25.5 10.5t41.5 11.5t67.5 15.5q28 7 39.5 19.5t11.5 36.5q0 46 -43 46q-25 0 -36 -16t-11 -51h-148zM363 702l-85 -135h-98l40 135h143z" />
    <glyph glyph-name="acircumflex" unicode="&#xe2;" horiz-adv-x="449" 
d="M235 230q-20 -8 -32 -14t-18.5 -13.5t-8.5 -18t-2 -26.5q0 -58 42 -58q26 0 37.5 18t11.5 61v63zM28 349q1 89 49 128.5t155 39.5q125 0 167 -60q7 -9 11 -19t6.5 -23.5t3.5 -33t1 -47.5v-207q0 -54 3.5 -81t12.5 -46h-160q-4 15 -6 31t-3 28q-35 -72 -124 -72
q-132 0 -132 150q0 91 49 127q10 7 19.5 12.5t25.5 10.5t41.5 11.5t67.5 15.5q28 7 39.5 19.5t11.5 36.5q0 46 -43 46q-25 0 -36 -16t-11 -51h-148zM314 705l59 -135h-118l-31 77l-33 -77h-115l60 135h178z" />
    <glyph glyph-name="atilde" unicode="&#xe3;" horiz-adv-x="449" 
d="M235 230q-20 -8 -32 -14t-18.5 -13.5t-8.5 -18t-2 -26.5q0 -58 42 -58q26 0 37.5 18t11.5 61v63zM28 349q1 89 49 128.5t155 39.5q125 0 167 -60q7 -9 11 -19t6.5 -23.5t3.5 -33t1 -47.5v-207q0 -54 3.5 -81t12.5 -46h-160q-4 15 -6 31t-3 28q-35 -72 -124 -72
q-132 0 -132 150q0 91 49 127q10 7 19.5 12.5t25.5 10.5t41.5 11.5t67.5 15.5q28 7 39.5 19.5t11.5 36.5q0 46 -43 46q-25 0 -36 -16t-11 -51h-148zM78 584q4 21 7.5 35t7 23.5t8 17t11.5 15.5q22 26 54 26q13 0 25.5 -3t33.5 -11q23 -9 33 -12.5t16 -3.5q16 0 22 29h78
q-2 -5 -9 -45q-7 -35 -30 -57t-52 -22q-7 0 -12.5 0.5t-13.5 3t-21 7t-34 13.5q-17 7 -25 7q-18 0 -22 -30h-78z" />
    <glyph glyph-name="adieresis" unicode="&#xe4;" horiz-adv-x="449" 
d="M235 230q-20 -8 -32 -14t-18.5 -13.5t-8.5 -18t-2 -26.5q0 -58 42 -58q26 0 37.5 18t11.5 61v63zM28 349q1 89 49 128.5t155 39.5q125 0 167 -60q7 -9 11 -19t6.5 -23.5t3.5 -33t1 -47.5v-207q0 -54 3.5 -81t12.5 -46h-160q-4 15 -6 31t-3 28q-35 -72 -124 -72
q-132 0 -132 150q0 91 49 127q10 7 19.5 12.5t25.5 10.5t41.5 11.5t67.5 15.5q28 7 39.5 19.5t11.5 36.5q0 46 -43 46q-25 0 -36 -16t-11 -51h-148zM377 705v-129h-132v129h132zM206 705v-129h-132v129h132z" />
    <glyph glyph-name="aring" unicode="&#xe5;" horiz-adv-x="449" 
d="M235 230q-20 -8 -32 -14t-18.5 -13.5t-8.5 -18t-2 -26.5q0 -58 42 -58q26 0 37.5 18t11.5 61v63zM28 349q1 89 49 128.5t155 39.5q125 0 167 -60q7 -9 11 -19t6.5 -23.5t3.5 -33t1 -47.5v-207q0 -54 3.5 -81t12.5 -46h-160q-4 15 -6 31t-3 28q-35 -72 -124 -72
q-132 0 -132 150q0 91 49 127q10 7 19.5 12.5t25.5 10.5t41.5 11.5t67.5 15.5q28 7 39.5 19.5t11.5 36.5q0 46 -43 46q-25 0 -36 -16t-11 -51h-148zM225 716q-22 0 -37.5 -16t-15.5 -39q0 -24 15.5 -40.5t38.5 -16.5q22 0 37.5 16.5t15.5 39.5t-15.5 39.5t-38.5 16.5z
M226 777q24 0 45.5 -9t37 -25t25 -37.5t9.5 -45.5t-9.5 -45.5t-25 -37t-37 -25t-45.5 -9.5q-25 0 -46.5 9t-37.5 25t-25 38t-9 47q0 24 9.5 44.5t25.5 36.5t37.5 25t45.5 9z" />
    <glyph glyph-name="ae" unicode="&#xe6;" horiz-adv-x="690" 
d="M511 316q-1 23 -1 34t-2 23q-6 43 -41 43q-25 0 -36 -19t-11 -62v-14v-5h91zM234 228q-19 -7 -31 -13t-18.5 -13.5t-8.5 -17.5t-2 -26q0 -58 42 -58q48 0 48 63v76zM28 349q1 87 46.5 127.5t142.5 40.5q52 0 84 -13t50 -42q18 29 48.5 42t79.5 13q51 0 87.5 -14.5
t59.5 -45.5t33.5 -80t10.5 -119v-15t-1 -18h-249v-10q0 -36 1.5 -55.5t4.5 -35.5q2 -16 13.5 -25.5t27.5 -9.5q25 0 35.5 20t10.5 66h152q-1 -30 -7.5 -58t-18.5 -51q-22 -40 -65 -59t-113 -19q-67 0 -104.5 20t-55.5 65q-13 -35 -43 -58q-18 -15 -40.5 -21t-57.5 -6
q-77 0 -112.5 36t-35.5 113q0 98 56 131q10 6 19 10.5t24.5 9t40.5 10.5t67 16q25 5 35.5 17.5t10.5 35.5q0 48 -42 48q-26 0 -36.5 -15.5t-10.5 -50.5h-148z" />
    <glyph glyph-name="ccedilla" unicode="&#xe7;" horiz-adv-x="461" 
d="M440 210q4 -113 -42.5 -167t-147.5 -56l-22 -40q12 4 27 4q38 0 61.5 -21t23.5 -55q0 -41 -32.5 -66t-86.5 -25q-50 0 -107 20l21 52q19 -7 36.5 -11t31.5 -4q20 0 31.5 9t11.5 23q0 13 -11.5 21t-28.5 8q-7 0 -12.5 -1t-13.5 -4l-25 19l38 73q-90 5 -130.5 66.5
t-40.5 190.5q0 74 11.5 125.5t37 84t67 47t100.5 14.5q75 0 119.5 -21.5t66.5 -68.5q9 -20 12.5 -45.5t3.5 -70.5h-155q1 58 -8.5 78t-36.5 20q-15 0 -25 -7t-16 -25.5t-8 -50.5t-2 -81q0 -46 2 -75t8 -45.5t15.5 -23t24.5 -6.5t24.5 5t15 18t7.5 35.5t2 56.5h152z" />
    <glyph glyph-name="egrave" unicode="&#xe8;" horiz-adv-x="460" 
d="M280 316q0 31 -2 50.5t-7 30.5t-13.5 15t-21.5 4q-27 0 -37 -21.5t-10 -78.5h91zM189 225v-38t0.5 -22.5t1.5 -14.5t2 -14q6 -47 44 -47q25 0 35 19t11 67h152q-3 -99 -51 -143.5t-151 -44.5q-59 0 -99.5 14t-65 45.5t-35.5 83t-11 126.5q0 72 11 122.5t36 81.5t65.5 45
t98.5 14q57 0 96.5 -13.5t63.5 -44t35 -79.5t11 -120v-37h-250zM275 567h-98l-85 135h143z" />
    <glyph glyph-name="eacute" unicode="&#xe9;" horiz-adv-x="460" 
d="M280 316q0 31 -2 50.5t-7 30.5t-13.5 15t-21.5 4q-27 0 -37 -21.5t-10 -78.5h91zM189 225v-38t0.5 -22.5t1.5 -14.5t2 -14q6 -47 44 -47q25 0 35 19t11 67h152q-3 -99 -51 -143.5t-151 -44.5q-59 0 -99.5 14t-65 45.5t-35.5 83t-11 126.5q0 72 11 122.5t36 81.5t65.5 45
t98.5 14q57 0 96.5 -13.5t63.5 -44t35 -79.5t11 -120v-37h-250zM368 702l-85 -135h-98l40 135h143z" />
    <glyph glyph-name="ecircumflex" unicode="&#xea;" horiz-adv-x="460" 
d="M280 316q0 31 -2 50.5t-7 30.5t-13.5 15t-21.5 4q-27 0 -37 -21.5t-10 -78.5h91zM189 225v-38t0.5 -22.5t1.5 -14.5t2 -14q6 -47 44 -47q25 0 35 19t11 67h152q-3 -99 -51 -143.5t-151 -44.5q-59 0 -99.5 14t-65 45.5t-35.5 83t-11 126.5q0 72 11 122.5t36 81.5t65.5 45
t98.5 14q57 0 96.5 -13.5t63.5 -44t35 -79.5t11 -120v-37h-250zM319 705l59 -135h-118l-31 77l-33 -77h-115l60 135h178z" />
    <glyph glyph-name="edieresis" unicode="&#xeb;" horiz-adv-x="460" 
d="M280 316q0 31 -2 50.5t-7 30.5t-13.5 15t-21.5 4q-27 0 -37 -21.5t-10 -78.5h91zM189 225v-38t0.5 -22.5t1.5 -14.5t2 -14q6 -47 44 -47q25 0 35 19t11 67h152q-3 -99 -51 -143.5t-151 -44.5q-59 0 -99.5 14t-65 45.5t-35.5 83t-11 126.5q0 72 11 122.5t36 81.5t65.5 45
t98.5 14q57 0 96.5 -13.5t63.5 -44t35 -79.5t11 -120v-37h-250zM382 705v-129h-132v129h132zM211 705v-129h-132v129h132z" />
    <glyph glyph-name="igrave" unicode="&#xec;" horiz-adv-x="227" 
d="M198 504v-504h-168v504h168zM166 567h-98l-85 135h143z" />
    <glyph glyph-name="iacute" unicode="&#xed;" horiz-adv-x="227" 
d="M198 504v-504h-168v504h168zM253 702l-85 -135h-98l40 135h143z" />
    <glyph glyph-name="icircumflex" unicode="&#xee;" horiz-adv-x="227" 
d="M198 504v-504h-168v504h168zM204 705l59 -135h-118l-31 77l-33 -77h-115l60 135h178z" />
    <glyph glyph-name="idieresis" unicode="&#xef;" horiz-adv-x="227" 
d="M198 504v-504h-168v504h168zM283 705v-129h-132v129h132zM112 705v-129h-132v129h132z" />
    <glyph glyph-name="eth" unicode="&#xf0;" horiz-adv-x="472" 
d="M237 413q-14 0 -23.5 -7t-15 -24t-7.5 -47t-2 -75q0 -49 2 -80.5t7 -49.5t14.5 -25t23.5 -7t23.5 7t15 25t7.5 49t2 79q0 47 -2 77t-7.5 47.5t-14.5 24t-23 6.5zM220 624l-14 48l89 27l24 -49l54 16l16 -54l-45 -14l67 -136q22 -45 31 -89t9 -105q0 -77 -11.5 -130
t-37 -86t-66.5 -47.5t-101 -14.5t-100.5 13.5t-65.5 45t-36 82.5t-11 126q0 72 10.5 119t34.5 79q23 31 64 48t94 17h12.5t12.5 -2l-15 49l-51 -14l-16 55z" />
    <glyph glyph-name="ntilde" unicode="&#xf1;" horiz-adv-x="476" 
d="M192 446q16 34 49.5 53t77.5 19q46 0 77 -18t43 -53q6 -16 8.5 -38.5t2.5 -58.5v-350h-169v320q0 41 -8 55.5t-31 14.5q-45 0 -45 -65v-325h-167v504h162v-58zM93 584q4 21 7.5 35t7 23.5t8 17t11.5 15.5q22 26 54 26q13 0 25.5 -3t33.5 -11q23 -9 33 -12.5t16 -3.5
q16 0 22 29h78q-2 -5 -9 -45q-7 -35 -30 -57t-52 -22q-7 0 -12.5 0.5t-13.5 3t-21 7t-34 13.5q-17 7 -25 7q-18 0 -22 -30h-78z" />
    <glyph glyph-name="ograve" unicode="&#xf2;" horiz-adv-x="473" 
d="M237 411q-14 0 -23.5 -7t-15 -24.5t-7.5 -47.5t-2 -75q0 -49 2 -80.5t7 -50t14.5 -25.5t23.5 -7t23.5 7.5t15 25.5t7.5 49t2 79q0 47 -2 77.5t-7.5 48t-14.5 24t-23 6.5zM240 519q58 0 98.5 -14t65.5 -45t36 -81t11 -122q0 -74 -12 -125t-38 -83.5t-67.5 -47
t-101.5 -14.5q-59 0 -99 14t-64.5 45.5t-35.5 83t-11 126.5q0 71 12 121t38 81.5t67.5 46t100.5 14.5zM282 567h-98l-85 135h143z" />
    <glyph glyph-name="oacute" unicode="&#xf3;" horiz-adv-x="473" 
d="M237 411q-14 0 -23.5 -7t-15 -24.5t-7.5 -47.5t-2 -75q0 -49 2 -80.5t7 -50t14.5 -25.5t23.5 -7t23.5 7.5t15 25.5t7.5 49t2 79q0 47 -2 77.5t-7.5 48t-14.5 24t-23 6.5zM240 519q58 0 98.5 -14t65.5 -45t36 -81t11 -122q0 -74 -12 -125t-38 -83.5t-67.5 -47
t-101.5 -14.5q-59 0 -99 14t-64.5 45.5t-35.5 83t-11 126.5q0 71 12 121t38 81.5t67.5 46t100.5 14.5zM374 702l-85 -135h-98l40 135h143z" />
    <glyph glyph-name="ocircumflex" unicode="&#xf4;" horiz-adv-x="473" 
d="M237 411q-14 0 -23.5 -7t-15 -24.5t-7.5 -47.5t-2 -75q0 -49 2 -80.5t7 -50t14.5 -25.5t23.5 -7t23.5 7.5t15 25.5t7.5 49t2 79q0 47 -2 77.5t-7.5 48t-14.5 24t-23 6.5zM240 519q58 0 98.5 -14t65.5 -45t36 -81t11 -122q0 -74 -12 -125t-38 -83.5t-67.5 -47
t-101.5 -14.5q-59 0 -99 14t-64.5 45.5t-35.5 83t-11 126.5q0 71 12 121t38 81.5t67.5 46t100.5 14.5zM327 705l59 -135h-118l-31 77l-33 -77h-115l60 135h178z" />
    <glyph glyph-name="otilde" unicode="&#xf5;" horiz-adv-x="473" 
d="M237 411q-14 0 -23.5 -7t-15 -24.5t-7.5 -47.5t-2 -75q0 -49 2 -80.5t7 -50t14.5 -25.5t23.5 -7t23.5 7.5t15 25.5t7.5 49t2 79q0 47 -2 77.5t-7.5 48t-14.5 24t-23 6.5zM240 519q58 0 98.5 -14t65.5 -45t36 -81t11 -122q0 -74 -12 -125t-38 -83.5t-67.5 -47
t-101.5 -14.5q-59 0 -99 14t-64.5 45.5t-35.5 83t-11 126.5q0 71 12 121t38 81.5t67.5 46t100.5 14.5zM90 584q4 21 7.5 35t7 23.5t8 17t11.5 15.5q22 26 54 26q13 0 25.5 -3t33.5 -11q23 -9 33 -12.5t16 -3.5q16 0 22 29h78q-2 -5 -9 -45q-7 -35 -30 -57t-52 -22
q-7 0 -12.5 0.5t-13.5 3t-21 7t-34 13.5q-17 7 -25 7q-18 0 -22 -30h-78z" />
    <glyph glyph-name="odieresis" unicode="&#xf6;" horiz-adv-x="473" 
d="M237 411q-14 0 -23.5 -7t-15 -24.5t-7.5 -47.5t-2 -75q0 -49 2 -80.5t7 -50t14.5 -25.5t23.5 -7t23.5 7.5t15 25.5t7.5 49t2 79q0 47 -2 77.5t-7.5 48t-14.5 24t-23 6.5zM240 519q58 0 98.5 -14t65.5 -45t36 -81t11 -122q0 -74 -12 -125t-38 -83.5t-67.5 -47
t-101.5 -14.5q-59 0 -99 14t-64.5 45.5t-35.5 83t-11 126.5q0 71 12 121t38 81.5t67.5 46t100.5 14.5zM389 705v-129h-132v129h132zM218 705v-129h-132v129h132z" />
    <glyph glyph-name="divide" unicode="&#xf7;" 
d="M246 225q31 0 53.5 -22.5t22.5 -54.5t-22.5 -54.5t-54.5 -22.5t-54.5 23t-22.5 55t23 54t55 22zM246 583q31 0 53.5 -22.5t22.5 -54.5t-22.5 -54.5t-54.5 -22.5t-54.5 23t-22.5 55t23 54t55 22zM460 386v-118h-428v118h428z" />
    <glyph glyph-name="oslash" unicode="&#xf8;" horiz-adv-x="473" 
d="M195 129q9 -38 41 -38q28 0 39 32t11 114v33v13zM276 386q-10 28 -39 28q-15 0 -24.5 -7t-15.5 -25t-8 -49t-2 -79v-6v-13zM379 564l58 -34l-38 -64q28 -32 40 -80t12 -128q0 -74 -12 -125.5t-38 -83.5t-67 -47t-100 -15q-35 0 -61 4t-49 14l-38 -64l-57 33l42 71
q-26 32 -37.5 80.5t-11.5 125.5q0 84 13 133.5t43 80.5q28 28 66 41t94 13q63 0 105 -15z" />
    <glyph glyph-name="ugrave" unicode="&#xf9;" horiz-adv-x="475" 
d="M194 504v-311q0 -25 1 -36t3 -19q9 -23 34 -23q14 0 25.5 8t15.5 21q2 8 3 17.5t1 26.5v316h168v-504h-162v60q-40 -73 -127 -73q-42 0 -72 16t-44 46q-8 16 -11 37.5t-3 54.5v363h168zM281 567h-98l-85 135h143z" />
    <glyph glyph-name="uacute" unicode="&#xfa;" horiz-adv-x="475" 
d="M194 504v-311q0 -25 1 -36t3 -19q9 -23 34 -23q14 0 25.5 8t15.5 21q2 8 3 17.5t1 26.5v316h168v-504h-162v60q-40 -73 -127 -73q-42 0 -72 16t-44 46q-8 16 -11 37.5t-3 54.5v363h168zM374 702l-85 -135h-98l40 135h143z" />
    <glyph glyph-name="ucircumflex" unicode="&#xfb;" horiz-adv-x="475" 
d="M194 504v-311q0 -25 1 -36t3 -19q9 -23 34 -23q14 0 25.5 8t15.5 21q2 8 3 17.5t1 26.5v316h168v-504h-162v60q-40 -73 -127 -73q-42 0 -72 16t-44 46q-8 16 -11 37.5t-3 54.5v363h168zM326 705l59 -135h-118l-31 77l-33 -77h-115l60 135h178z" />
    <glyph glyph-name="udieresis" unicode="&#xfc;" horiz-adv-x="475" 
d="M194 504v-311q0 -25 1 -36t3 -19q9 -23 34 -23q14 0 25.5 8t15.5 21q2 8 3 17.5t1 26.5v316h168v-504h-162v60q-40 -73 -127 -73q-42 0 -72 16t-44 46q-8 16 -11 37.5t-3 54.5v363h168zM388 705v-129h-132v129h132zM217 705v-129h-132v129h132z" />
    <glyph glyph-name="yacute" unicode="&#xfd;" horiz-adv-x="434" 
d="M167 504l56 -355l52 355h164l-127 -495q-14 -54 -29 -88.5t-36.5 -53.5t-52.5 -26t-77 -7q-19 0 -35.5 0.5t-38.5 2.5v115q14 -2 19.5 -2h12.5q30 0 43 10t19 38l-143 506h173zM355 702l-85 -135h-98l40 135h143z" />
    <glyph glyph-name="thorn" unicode="&#xfe;" horiz-adv-x="479" 
d="M242 393q-14 0 -23.5 -6.5t-15 -22t-8 -41t-2.5 -64.5q0 -44 2 -72.5t7 -45t14.5 -23t23.5 -6.5t23 6t14.5 21t8 40.5t2.5 64.5q0 44 -2 72.5t-7.5 45.5t-14.5 24t-22 7zM191 441q23 42 49.5 59t67.5 17q79 0 114 -60t35 -196q0 -80 -7.5 -127t-24.5 -79
q-38 -68 -121 -68q-38 0 -62.5 15t-44.5 50v-215h-167v830h161v-226z" />
    <glyph glyph-name="ydieresis" unicode="&#xff;" horiz-adv-x="434" 
d="M167 504l56 -355l52 355h164l-127 -495q-14 -54 -29 -88.5t-36.5 -53.5t-52.5 -26t-77 -7q-19 0 -35.5 0.5t-38.5 2.5v115q14 -2 19.5 -2h12.5q30 0 43 10t19 38l-143 506h173zM369 705v-129h-132v129h132zM198 705v-129h-132v129h132z" />
    <glyph glyph-name="dotlessi" unicode="&#x131;" horiz-adv-x="227" 
d="M198 504v-504h-168v504h168z" />
    <glyph glyph-name="OE" unicode="&#x152;" horiz-adv-x="707" 
d="M315 376q0 60 -2 98.5t-6 52.5q-13 36 -50 36q-17 0 -30.5 -11t-18.5 -29q-2 -9 -3.5 -22t-2.5 -34.5t-1.5 -53.5t-0.5 -78q0 -43 0.5 -73.5t1.5 -53t2.5 -37.5t3.5 -26q9 -45 50 -45q17 0 29 8t17 22q6 18 8.5 61.5t2.5 132.5v52zM689 667v-138h-210v-120h198v-135h-198
v-136h217v-138h-356v34q-27 -48 -115 -48q-155 0 -188 143q-8 34 -11.5 87t-3.5 133q0 50 1.5 87t5.5 65t11 49t17 39q48 92 163 92q44 0 74.5 -13t43.5 -36v35h351z" />
    <glyph glyph-name="oe" unicode="&#x153;" horiz-adv-x="706" 
d="M527 316v6q-1 54 -10 74t-34 20q-39 0 -45 -52q-2 -8 -2 -18.5v-29.5h91zM237 411q-14 0 -23.5 -7t-15 -24t-7.5 -46t-2 -74q0 -50 2 -82t7 -51t14.5 -26t23.5 -7t23 7.5t14.5 26.5t7.5 51t2 81q0 46 -2 75t-7 46t-14 23.5t-23 6.5zM681 175q-4 -98 -50 -143t-143 -45
q-101 0 -130 63q-35 -63 -137 -63q-54 0 -91.5 14.5t-61.5 45t-35 79.5t-11 118q0 87 13.5 139.5t43.5 83.5q52 52 148 52q101 0 137 -58q21 30 52 44t77 14q157 0 184 -143q3 -15 4.5 -28t2 -29.5t1 -38.5t0.5 -55h-249q0 -56 3 -83q6 -53 44 -53q24 0 35 20.5t11 65.5h152
z" />
    <glyph glyph-name="Scaron" unicode="&#x160;" horiz-adv-x="490" 
d="M180 201q0 -58 12 -79t45 -21q27 0 42 17.5t15 49.5q0 43 -31 64q-5 4 -9.5 6.5t-16 8t-34 15t-63.5 27.5q-64 28 -93 72t-29 115q0 204 224 204q111 0 162 -48.5t51 -153.5h-165q0 46 -12 65t-39 19q-23 0 -36.5 -15.5t-13.5 -41.5q0 -16 4 -28t13 -22.5t24.5 -19.5
t38.5 -19q64 -27 103.5 -48.5t61.5 -45t29.5 -53.5t7.5 -73q0 -111 -57 -161t-183 -50q-116 0 -167.5 48t-51.5 157v11h168zM195 848l34 -76l37 76h113l-62 -135h-179l-62 135h119z" />
    <glyph glyph-name="scaron" unicode="&#x161;" horiz-adv-x="427" 
d="M161 161q0 -38 12 -54.5t39 -16.5q46 0 46 44q0 27 -20 38q-4 3 -7.5 4.5t-12 5t-24.5 9t-45 15.5q-37 13 -62 28t-40.5 33.5t-22.5 42.5t-7 55q0 75 50.5 115t146.5 40q137 0 176 -77q8 -15 11 -33.5t3 -47.5h-145q0 31 -9.5 43.5t-35.5 12.5q-43 0 -43 -37
q0 -19 12.5 -29.5t45.5 -21.5q46 -14 75 -24.5t48 -21.5q32 -17 48 -50t16 -78q0 -83 -53 -126t-155 -43q-100 0 -147.5 40t-47.5 124v10h148zM183 705l34 -76l37 76h113l-62 -135h-179l-62 135h119z" />
    <glyph glyph-name="Ydieresis" unicode="&#x178;" horiz-adv-x="487" 
d="M180 667l68 -228l64 228h189l-170 -404v-263h-174v263l-171 404h194zM380 842v-129h-132v129h132zM209 842v-129h-132v129h132z" />
    <glyph glyph-name="Zcaron" unicode="&#x17d;" horiz-adv-x="436" 
d="M422 667v-121l-210 -406h210v-140h-411v121l209 407h-195v139h397zM170 848l34 -76l37 76h113l-62 -135h-179l-62 135h119z" />
    <glyph glyph-name="zcaron" unicode="&#x17e;" horiz-adv-x="396" 
d="M386 504v-125l-185 -247h191v-132h-389v129l182 244h-173v131h374zM166 705l34 -76l37 76h113l-62 -135h-179l-62 135h119z" />
    <glyph glyph-name="florin" unicode="&#x192;" 
d="M198 476l12 68q6 34 11.5 58t12.5 41t16 29.5t21 23.5q26 23 58.5 33t81.5 10q20 0 39 -1.5t43 -4.5l-19 -106q-18 3 -29 3q-18 0 -31 -4.5t-22 -16.5t-15 -32t-11 -50l-8 -51h102l-17 -98h-102l-51 -290q-9 -56 -19.5 -92.5t-22.5 -56.5q-13 -21 -28 -36t-35 -24
t-46 -13t-60 -4q-22 0 -40.5 1.5t-40.5 6.5l21 104q11 -2 17 -2h13q36 0 51 15q5 6 8.5 11.5t6.5 15.5t6 27t8 44l52 293h-99l17 98h99z" />
    <glyph glyph-name="circumflex" unicode="&#x2c6;" horiz-adv-x="500" 
d="M339 705l59 -135h-118l-31 77l-33 -77h-115l60 135h178z" />
    <glyph glyph-name="caron" unicode="&#x2c7;" horiz-adv-x="500" 
d="M217 705l34 -76l37 76h113l-62 -135h-179l-62 135h119z" />
    <glyph glyph-name="ring" unicode="&#x2da;" horiz-adv-x="500" 
d="M250 716q-22 0 -37.5 -16t-15.5 -39q0 -24 15.5 -40.5t38.5 -16.5q22 0 37.5 16.5t15.5 39.5t-15.5 39.5t-38.5 16.5zM251 777q24 0 45.5 -9t37 -25t25 -37.5t9.5 -45.5t-9.5 -45.5t-25 -37t-37 -25t-45.5 -9.5q-25 0 -46.5 9t-37.5 25t-25 38t-9 47q0 24 9.5 44.5
t25.5 36.5t37.5 25t45.5 9z" />
    <glyph glyph-name="tilde" unicode="&#x2dc;" horiz-adv-x="500" 
d="M103 584q4 21 7.5 35t7 23.5t8 17t11.5 15.5q22 26 54 26q13 0 25.5 -3t33.5 -11q23 -9 33 -12.5t16 -3.5q16 0 22 29h78q-2 -5 -9 -45q-7 -35 -30 -57t-52 -22q-7 0 -12.5 0.5t-13.5 3t-21 7t-34 13.5q-17 7 -25 7q-18 0 -22 -30h-78z" />
    <glyph glyph-name="endash" unicode="&#x2013;" horiz-adv-x="670" 
d="M636 338v-134h-601v134h601z" />
    <glyph glyph-name="emdash" unicode="&#x2014;" horiz-adv-x="668" 
d="M668 338v-134h-668v134h668z" />
    <glyph glyph-name="quoteleft" unicode="&#x2018;" horiz-adv-x="224" 
d="M34 450q0 36 1.5 61.5t5 45t9.5 34.5t15 28q39 55 125 55v-79q-33 -2 -45.5 -22t-12.5 -68h58v-179h-156v124z" />
    <glyph glyph-name="quoteright" unicode="&#x2019;" horiz-adv-x="223" 
d="M189 667v-109q0 -41 -1 -67.5t-3.5 -45t-7.5 -32t-12 -28.5q-18 -33 -49 -49t-82 -17v79q33 3 45 21t13 64h-58v184h155z" />
    <glyph glyph-name="quotesinglbase" unicode="&#x201a;" horiz-adv-x="224" 
d="M190 179v-125q0 -35 -1.5 -60.5t-5 -45t-10 -34.5t-15.5 -28q-20 -28 -49.5 -40.5t-74.5 -13.5v79q33 3 45.5 22t12.5 67h-58v179h156z" />
    <glyph glyph-name="quotedblleft" unicode="&#x201c;" horiz-adv-x="412" 
d="M222 465q0 57 8 96t26 63.5t48 36t74 13.5v-79q-33 -3 -45 -21.5t-14 -67.5h59v-179h-156v138zM34 461q0 57 6 92t20 59q19 32 50 46.5t79 15.5v-79q-32 -2 -44.5 -21.5t-13.5 -67.5h58v-179h-155v134z" />
    <glyph glyph-name="quotedblright" unicode="&#x201d;" horiz-adv-x="412" 
d="M378 667v-127q0 -35 -1.5 -60t-5 -44t-10 -34t-15.5 -28q-19 -28 -48.5 -40.5t-75.5 -14.5v80q32 2 45 21.5t13 67.5h-58v179h156zM190 667v-127q0 -35 -1.5 -60t-5.5 -44.5t-10.5 -34.5t-15.5 -28q-19 -27 -47.5 -39.5t-75.5 -13.5v79q32 2 45 21.5t13 67.5h-58v179h156
z" />
    <glyph glyph-name="quotedblbase" unicode="&#x201e;" horiz-adv-x="412" 
d="M378 185v-111q2 -65 -5 -109.5t-25 -72.5t-48.5 -40.5t-76.5 -14.5v79q33 3 45 22t13 67h-58v180h155zM189 185v-111q0 -39 -1 -65.5t-3.5 -45t-7.5 -32t-13 -28.5q-17 -33 -48 -48.5t-82 -17.5v79q32 3 44.5 22.5t13.5 66.5h-58v180h155z" />
    <glyph glyph-name="dagger" unicode="&#x2020;" 
d="M163 507v179h167v-179h155v-130h-155v-489h-167v489h-155v130h155z" />
    <glyph glyph-name="daggerdbl" unicode="&#x2021;" 
d="M163 495v191h167v-191h135v-130h-135v-188h135v-130h-135v-190h-167v190h-135v130h135v188h-135v130h135z" />
    <glyph glyph-name="bullet" unicode="&#x2022;" horiz-adv-x="667" 
d="M337 477q28 0 52.5 -11t43 -30t29.5 -44t11 -53q0 -29 -11 -54.5t-29.5 -44t-44 -29.5t-53.5 -11q-29 0 -54 11t-44 29.5t-30 43.5t-11 54t11 54.5t30 44t44.5 29.5t55.5 11z" />
    <glyph glyph-name="ellipsis" unicode="&#x2026;" horiz-adv-x="635" 
d="M607 183v-183h-156v183h156zM396 183v-183h-156v183h156zM184 183v-183h-156v183h156z" />
    <glyph glyph-name="perthousand" unicode="&#x2030;" horiz-adv-x="336" 
d="M168 271q-18 0 -24 -21t-6 -83q0 -60 6 -80.5t24 -20.5q9 0 15 4t9.5 15.5t4.5 31.5t1 52q0 31 -1.5 50.5t-4.5 31t-9 16t-15 4.5zM168 347q41 0 69 -9.5t45.5 -30.5t25 -55t7.5 -84t-7.5 -84t-25.5 -55t-47 -30t-71 -9q-39 0 -66.5 9.5t-44.5 31t-24.5 56.5t-7.5 85
q0 48 8 81.5t25 54t45 30t69 9.5z" />
    <glyph glyph-name="guilsinglleft" unicode="&#x2039;" horiz-adv-x="157" 
d="M14 178v167l122 118v-139l-59 -59l59 -59v-147z" />
    <glyph glyph-name="guilsinglright" unicode="&#x203a;" horiz-adv-x="157" 
d="M143 344v-166l-122 -119v140l59 59l-59 58v147z" />
    <glyph glyph-name="Euro" unicode="&#x20ac;" horiz-adv-x="657" 
d="M31 452h66q11 63 35.5 114t60.5 87.5t81.5 56t99.5 19.5q51 0 92.5 -15.5t72 -43t50 -65t25.5 -82.5h-94q-12 58 -48.5 91t-98.5 33q-75 0 -118.5 -52t-57.5 -143h203v-57h-209q-1 -10 -1 -20v-20v-21t1 -20h209v-57h-202q16 -94 63 -142t120 -48q69 0 107 45t46 114h90
q-2 -50 -19.5 -94t-49 -76.5t-75.5 -51.5t-98 -19t-101 18t-84 53t-63 85.5t-37 115.5h-66v57h59q-1 10 -1 20v21v20t1 20h-59v57z" />
    <glyph glyph-name="trademark" unicode="&#x2122;" horiz-adv-x="737" 
d="M460 667l41 -214l39 214h152v-380h-102v249l-51 -249h-79l-51 249v-249h-101v380h152zM270 667v-87h-78v-293h-108v293h-79v87h265z" />
    </font>
</defs>
</svg>
