<?xml version="1.0" standalone="no"?>
<!DOCTYPE svg PUBLIC "-//W3C//DTD SVG 1.1//EN" "http://www.w3.org/Graphics/SVG/1.1/DTD/svg11.dtd" >
<svg>
<metadata>
Created by FontForge 20120731 at Mon Dec  1 10:34:50 2014
 By Orthosie Webhosting
(URW)++,Copyright 2003 by (URW)++ Design &#38; Development
</metadata>
<defs>
<font id="NimbusSansNovusW01DCnRegular" horiz-adv-x="429" >
  <font-face 
    font-family="NimbusSansNovusW01DCnRegular"
    font-weight="400"
    font-stretch="normal"
    units-per-em="1000"
    panose-1="4 0 5 6 0 0 0 0 0 0"
    ascent="749"
    descent="-251"
    x-height="495"
    cap-height="667"
    bbox="-51 -191 831 863"
    underline-thickness="43"
    underline-position="-41"
    unicode-range="U+000D-2122"
  />
<missing-glyph horiz-adv-x="0" 
 />
    <glyph glyph-name=".notdef" horiz-adv-x="0" 
 />
    <glyph glyph-name=".null" horiz-adv-x="0" 
 />
    <glyph glyph-name="nonmarkingreturn" unicode="&#xd;" horiz-adv-x="0" 
 />
    <glyph glyph-name="space" unicode=" " horiz-adv-x="250" 
 />
    <glyph glyph-name="exclam" unicode="!" horiz-adv-x="164" 
d="M114 90v-90h-63v90h63zM113 667v-209l-10 -285h-40l-12 285v209h62z" />
    <glyph glyph-name="quotedbl" unicode="&#x22;" horiz-adv-x="267" 
d="M176 400l-9 267h63l-8 -267h-46zM46 400l-9 267h63l-8 -267h-46z" />
    <glyph glyph-name="numbersign" unicode="#" 
d="M169 390l-12 -111h104l11 111h-103zM281 60h-43l18 177h-103l-19 -177h-43l19 177h-97l4 42h97l12 111h-97l5 43h96l17 161h44l-17 -161h103l17 161h43l-17 -161h97l-5 -43h-96l-12 -111h97l-5 -42h-96z" />
    <glyph glyph-name="dollar" unicode="$" 
d="M191 618q-51 -5 -79.5 -36t-28.5 -83q0 -24 5.5 -42.5t18 -33.5t33 -27.5t51.5 -24.5v247zM228 35q55 8 85 42.5t30 91.5q0 25 -5.5 44t-19 34.5t-35.5 28t-55 25.5v-266zM191 312q-27 9 -44 16t-29 12.5t-20 11t-17 12.5q-57 45 -57 128q0 78 43 123t124 51v54h37v-54
q78 -5 118.5 -51t39.5 -128h-58q-1 61 -24.5 92t-75.5 39v-258q9 -3 18 -6.5t18 -7.5q24 -9 41 -16.5t29.5 -15t21 -16t16.5 -19.5q32 -43 32 -105q0 -40 -12.5 -73.5t-36 -58.5t-56 -39.5t-71.5 -15.5v-80h-37v79q-179 9 -179 203v13h60q-1 -5 -1 -8.5v-4.5q0 -54 13.5 -85
t45.5 -51q31 -18 61 -19v278z" />
    <glyph glyph-name="percent" unicode="%" horiz-adv-x="594" 
d="M448 296q-37 0 -53 -31.5t-16 -103.5q0 -70 15 -99t52 -29q38 0 53.5 30.5t15.5 105.5q0 70 -15 98.5t-52 28.5zM449 336q63 0 89.5 -39t26.5 -131t-28.5 -132.5t-92.5 -40.5q-61 0 -87.5 38.5t-26.5 126.5q0 95 27.5 136.5t91.5 41.5zM461 671l-287 -683h-45l288 683h44
zM147 625q-37 0 -53 -31.5t-16 -103.5q0 -70 15 -99t52 -29q38 0 53.5 30.5t15.5 104.5q0 71 -15 99.5t-52 28.5zM148 665q63 0 89.5 -39t26.5 -131t-28.5 -132.5t-92.5 -40.5q-61 0 -87.5 38.5t-26.5 127.5q0 95 27.5 136t91.5 41z" />
    <glyph glyph-name="ampersand" unicode="&#x26;" horiz-adv-x="514" 
d="M204 341q-65 -46 -92 -85t-27 -85q0 -29 10.5 -54t28.5 -43t43 -28t55 -10q86 0 138 85zM217 408q50 38 70.5 68t20.5 64q0 35 -21 55.5t-57 20.5q-35 0 -56.5 -21t-21.5 -54q0 -23 16.5 -57.5t48.5 -75.5zM466 294q0 -20 -3 -43t-9 -46t-14.5 -45t-17.5 -38l86 -122h-64
l-56 80q-63 -93 -176 -93q-41 0 -75 13t-59 37t-38.5 56.5t-13.5 71.5q0 45 19 83t60 74q3 3 6 5.5t10 8t19.5 15.5t34.5 27q-24 36 -39 59.5t-23.5 40.5t-11 30.5t-2.5 29.5q0 27 10 49.5t27.5 39t42 25.5t53.5 9q58 0 93.5 -33.5t35.5 -88.5q0 -24 -5.5 -43.5t-19 -39
t-36 -40t-56.5 -45.5l145 -202q4 9 8.5 24t8 32.5t5.5 35.5t2 33h53z" />
    <glyph glyph-name="quotesingle" unicode="'" horiz-adv-x="137" 
d="M46 400l-9 267h63l-8 -267h-46z" />
    <glyph glyph-name="parenleft" unicode="(" horiz-adv-x="235" 
d="M195 667q-29 -53 -49 -103.5t-33 -100.5t-19 -102.5t-6 -110.5q0 -57 6 -109.5t19 -103t33 -100.5t49 -104h-35q-61 96 -94 204t-33 214q0 109 31 211t96 205h35z" />
    <glyph glyph-name="parenright" unicode=")" horiz-adv-x="235" 
d="M40 -167q29 54 49.5 104t33.5 100.5t19 102.5t6 110q0 57 -6 109.5t-19.5 103t-34 101t-48.5 103.5h36q62 -97 94.5 -204.5t32.5 -213.5q0 -109 -31 -210.5t-96 -205.5h-36z" />
    <glyph glyph-name="asterisk" unicode="*" 
d="M233 685v-106l95 38l13 -36l-94 -35l63 -83l-31 -23l-64 88l-64 -88l-31 23l63 83l-94 35l13 36l95 -38v106h36z" />
    <glyph glyph-name="plus" unicode="+" 
d="M193 349v165h43v-165h165v-43h-165v-165h-43v165h-165v43h165z" />
    <glyph glyph-name="comma" unicode="," horiz-adv-x="137" 
d="M100 95v-75q0 -35 -3 -59.5t-11.5 -41.5t-22 -28.5t-34.5 -20.5v38q20 12 27.5 31.5t7.5 60.5h-27v95h63z" />
    <glyph glyph-name="hyphen" unicode="-" horiz-adv-x="201" 
d="M201 293v-53h-201v53h201z" />
    <glyph glyph-name="period" unicode="." horiz-adv-x="137" 
d="M100 95v-95h-63v95h63z" />
    <glyph glyph-name="slash" unicode="/" horiz-adv-x="375" 
d="M329 667l-295 -834h-48l295 834h48z" />
    <glyph glyph-name="zero" unicode="0" 
d="M216 620q-88 0 -115 -115q-7 -29 -10 -75.5t-3 -121.5t6.5 -127t21.5 -84.5t38.5 -47.5t57.5 -15q36 0 61 15.5t40 51t21.5 93.5t6.5 144q0 78 -6.5 131.5t-21.5 87t-39 48.5t-58 15zM217 667q104 0 148 -92q36 -75 36 -233q0 -96 -10.5 -163t-33.5 -110t-59.5 -62.5
t-87.5 -19.5q-59 0 -99.5 31t-59.5 91q-12 38 -17.5 89t-5.5 127q0 85 8 141.5t25 96.5q44 104 156 104z" />
    <glyph glyph-name="one" unicode="1" 
d="M71 551q80 2 117 28t45 86h43v-665h-55v513h-150v38z" />
    <glyph glyph-name="two" unicode="2" 
d="M36 459q1 102 47 154.5t135 52.5q83 0 129 -48t46 -134q0 -87 -54 -147q-10 -12 -17 -19.5t-19 -18t-32.5 -27.5t-57.5 -47q-29 -24 -49 -44t-34 -40.5t-22.5 -42t-13.5 -48.5h305v-50h-366q1 48 10.5 85t32 72t61.5 71.5t99 84.5q27 23 46 43t30 40t16 41t5 47
q0 63 -31 98.5t-86 35.5q-118 0 -123 -159h-57z" />
    <glyph glyph-name="three" unicode="3" 
d="M84 177q3 -71 34.5 -107.5t88.5 -36.5q60 0 95 40t35 109q0 61 -29 97.5t-83 41.5q-6 1 -21.5 1.5t-41.5 0.5v46q10 -1 13.5 -1h6.5q134 0 134 128q0 59 -29 91t-80 32q-54 0 -84 -36.5t-30 -101.5h-57q1 89 45.5 136.5t125.5 47.5q78 0 123 -44t45 -121
q0 -61 -29 -101.5t-81 -50.5q63 -8 97.5 -50.5t34.5 -111.5q0 -93 -51 -146t-141 -53q-85 0 -132.5 50t-46.5 140h58z" />
    <glyph glyph-name="four" unicode="4" 
d="M70 220h207v356zM22 227l253 440h58v-447h78v-50h-78v-170h-56v170h-255v57z" />
    <glyph glyph-name="five" unicode="5" 
d="M86 168q1 -62 32.5 -97.5t86.5 -35.5q63 0 97.5 48t34.5 133q0 81 -34 125t-96 44q-81 0 -113 -77l-53 3l36 342h290v-51h-244l-28 -234q26 35 55.5 50t71.5 15q81 0 128 -58t47 -158q0 -109 -51.5 -169.5t-142.5 -60.5q-82 0 -129 48t-46 133h58z" />
    <glyph glyph-name="six" unicode="6" 
d="M220 376q-58 0 -91 -43.5t-33 -118.5q0 -85 32.5 -133t91.5 -48q58 0 91.5 46.5t33.5 127.5t-32.5 125t-92.5 44zM329 512q-3 51 -30.5 79.5t-73.5 28.5q-36 0 -62 -16.5t-42.5 -52t-24.5 -91.5t-8 -135q39 100 145 100q81 0 127 -56t46 -156q0 -106 -50 -166.5
t-138 -60.5q-111 0 -157 100q-17 36 -24.5 89.5t-7.5 134.5q0 92 9.5 153t29.5 103q50 101 159 101q72 0 114 -41t46 -114h-58z" />
    <glyph glyph-name="seven" unicode="7" 
d="M400 653v-51q-48 -59 -88.5 -131t-71 -150.5t-50.5 -160t-26 -160.5h-64q6 75 27 158.5t54 163.5t75.5 152.5t89.5 125.5h-318v53h372z" />
    <glyph glyph-name="eight" unicode="8" 
d="M215 332q-58 0 -92 -39.5t-34 -105.5q0 -73 33 -113.5t93 -40.5t93.5 40.5t33.5 112.5q0 69 -33.5 107.5t-93.5 38.5zM217 620q-51 0 -80 -32t-29 -87q0 -57 28.5 -89t79.5 -32t79.5 31.5t28.5 86.5q0 57 -28 89.5t-79 32.5zM151 357q-45 10 -73.5 50t-28.5 94
q0 76 45 121t122 45t122 -44.5t45 -119.5q0 -56 -27.5 -96t-73.5 -50q59 -14 89.5 -58t30.5 -115q0 -92 -50 -144.5t-137 -52.5t-137 52t-50 143q0 69 32.5 115.5t90.5 59.5z" />
    <glyph glyph-name="nine" unicode="9" 
d="M210 619q-58 0 -91.5 -47t-33.5 -128q0 -80 32.5 -124t92.5 -44q57 0 90 43t33 118q0 86 -32.5 134t-90.5 48zM100 141q2 -51 30 -79.5t74 -28.5q77 0 109 80q7 16 12.5 39t9.5 49t6.5 54t2.5 54v7.5t-1 13.5q-38 -102 -146 -102q-81 0 -127 56t-46 156q0 105 50.5 166
t138.5 61q108 0 155 -100q17 -35 24.5 -89.5t7.5 -135.5q0 -91 -9 -151t-29 -102q-52 -103 -160 -103q-72 0 -114 41t-45 114h57z" />
    <glyph glyph-name="colon" unicode=":" horiz-adv-x="137" 
d="M100 95v-95h-63v95h63zM100 467v-95h-63v95h63z" />
    <glyph glyph-name="semicolon" unicode=";" horiz-adv-x="137" 
d="M96 467v-95h-63v95h63zM100 95v-75q0 -35 -3 -59.5t-11.5 -41.5t-22 -28.5t-34.5 -20.5v38q20 12 27.5 31.5t7.5 60.5h-27v95h63z" />
    <glyph glyph-name="less" unicode="&#x3c;" horiz-adv-x="500" 
d="M466 499l-366 -165l366 -164v-63l-433 200v55l433 200v-63z" />
    <glyph glyph-name="equal" unicode="=" 
d="M401 419v-43h-373v43h373zM401 280v-43h-373v43h373z" />
    <glyph glyph-name="greater" unicode="&#x3e;" horiz-adv-x="500" 
d="M34 170l365 165l-365 164v63l433 -200v-55l-433 -200v63z" />
    <glyph glyph-name="question" unicode="?" horiz-adv-x="373" 
d="M204 90v-90h-62v90h62zM12 474q0 98 44.5 151t127.5 53q77 0 121.5 -44.5t44.5 -121.5q0 -31 -8 -58.5t-22 -49.5q-5 -8 -8.5 -13t-10 -12.5t-18.5 -20t-33 -34.5q-18 -20 -28 -34.5t-15.5 -30t-7 -35.5t-1.5 -51h-54q0 40 2 66.5t12 48.5t29.5 45.5t52.5 58.5
q28 30 40 58t12 65q0 54 -29 85t-80 31q-35 0 -61 -18t-40 -50q-8 -19 -10.5 -38t-3.5 -51h-56z" />
    <glyph glyph-name="at" unicode="@" horiz-adv-x="702" 
d="M366 473q-21 0 -41.5 -15t-35.5 -43q-8 -14 -14.5 -32t-12 -36.5t-8.5 -36t-3 -30.5q0 -45 18 -71.5t47 -26.5q27 0 48 23t34 67q11 40 18.5 75t7.5 49q0 35 -16 56t-42 21zM644 164q-8 -17 -16 -30t-16.5 -24.5t-19 -22t-24.5 -22.5q-89 -76 -198 -76q-68 0 -126.5 26
t-102.5 71.5t-69 106.5t-25 131q0 71 25.5 133.5t70 109t103.5 73.5t127 27q59 0 110.5 -21t89.5 -58t59.5 -87t21.5 -107q0 -48 -15.5 -91.5t-41.5 -77.5t-60 -54t-71 -20q-53 0 -67 56q-22 -29 -42 -41t-46 -12q-45 0 -73 38t-28 98q0 41 12.5 79.5t32.5 68t46.5 47.5
t55.5 18q58 0 81 -63l13 51h38l-49 -220l-4.5 -21t-2.5 -11.5t-1 -7v-5.5q0 -22 10.5 -34.5t29.5 -12.5q23 0 47.5 15t47.5 41q57 66 57 157q0 52 -19.5 97.5t-53 78.5t-79.5 52t-100 19q-61 0 -114.5 -24.5t-93.5 -67t-63 -100t-23 -122.5t22.5 -121t62 -97.5t93 -65.5
t114.5 -24q75 0 140 39t103 108h31z" />
    <glyph glyph-name="A" unicode="A" horiz-adv-x="475" 
d="M134 244h209l-103 381zM280 667l193 -667h-63l-54 195h-236l-55 -195h-62l199 667h78z" />
    <glyph glyph-name="B" unicode="B" horiz-adv-x="459" 
d="M110 48h87q48 0 74 4t43 14q61 34 61 122q0 49 -21.5 82t-63.5 46q-8 3 -16 4.5t-20 2.5t-29 1.5t-43 0.5h-72v-277zM110 371h73q51 0 75 3.5t42 13.5q26 15 39.5 43t13.5 66q0 46 -20 76t-56 40q-7 2 -14 3t-18 2t-27.5 1h-41.5h-66v-248zM188 667q30 0 51 -0.5t36 -2
t26 -4.5t22 -7q42 -17 66 -57t24 -94q0 -60 -28 -98.5t-82 -52.5q63 -8 98 -51t35 -112q0 -58 -24.5 -102.5t-69.5 -65.5q-20 -10 -51.5 -15t-70.5 -5h-169v667h137z" />
    <glyph glyph-name="C" unicode="C" horiz-adv-x="461" 
d="M440 226q0 -84 -40 -152q-27 -45 -64.5 -65.5t-94.5 -20.5q-110 0 -161 82t-51 259q0 84 10.5 144.5t32.5 103.5q25 49 69 75t103 26q89 0 138 -52.5t52 -152.5h-60q0 54 -25 98q-31 58 -106 58q-80 0 -116.5 -72t-36.5 -229q0 -151 36.5 -221t115.5 -70q63 0 99 49
t39 140h60z" />
    <glyph glyph-name="D" unicode="D" horiz-adv-x="481" 
d="M110 49h84q53 0 85.5 10.5t52.5 35.5q59 68 59 252q0 91 -15.5 146.5t-49.5 86.5q-22 20 -55.5 29t-87.5 9h-73v-569zM181 667q70 0 111.5 -10t71.5 -35q45 -38 66.5 -103t21.5 -168q0 -205 -74 -289q-29 -34 -68.5 -48t-104.5 -14h-154v667h130z" />
    <glyph glyph-name="E" unicode="E" horiz-adv-x="401" 
d="M380 667v-52h-270v-242h253v-51h-253v-270h280v-52h-339v667h329z" />
    <glyph glyph-name="F" unicode="F" horiz-adv-x="377" 
d="M379 667v-52h-268v-241h252v-51h-252v-323h-60v667h328z" />
    <glyph glyph-name="G" unicode="G" horiz-adv-x="483" 
d="M440 339v-339h-47v112q-23 -64 -61.5 -94t-97.5 -30q-205 0 -205 340q0 180 52 265t163 85q86 0 135.5 -52t53.5 -146h-60q-4 72 -37.5 110.5t-92.5 38.5q-80 0 -116.5 -72.5t-36.5 -233.5q0 -147 37 -217t115 -70q44 0 76.5 25.5t47.5 72.5q10 31 14 65.5t4 91.5h-158
v48h214z" />
    <glyph glyph-name="H" unicode="H" horiz-adv-x="482" 
d="M372 383v284h59v-667h-59v331h-262v-331h-59v667h59v-284h262z" />
    <glyph glyph-name="I" unicode="I" horiz-adv-x="162" 
d="M111 667v-667h-60v667h60z" />
    <glyph glyph-name="J" unicode="J" horiz-adv-x="360" 
d="M62 196q0 -44 3 -68t11 -41q23 -50 81 -50q77 0 94 75q3 14 4 34t1 57v464h59v-464q0 -56 -4 -86.5t-15 -52.5q-38 -76 -142 -76q-78 0 -114 47t-36 148v13h58z" />
    <glyph glyph-name="K" unicode="K" horiz-adv-x="441" 
d="M109 667v-349l256 349h66l-204 -278l223 -389h-66l-197 340l-78 -106v-234h-58v667h58z" />
    <glyph glyph-name="L" unicode="L" horiz-adv-x="383" 
d="M111 667v-615h276v-52h-336v667h60z" />
    <glyph glyph-name="M" unicode="M" horiz-adv-x="620" 
d="M149 667l162 -568l159 568h98v-667h-57v614l-174 -614h-55l-175 614v-614h-56v667h98z" />
    <glyph glyph-name="N" unicode="N" horiz-adv-x="495" 
d="M129 667l258 -580v580h57v-667h-78l-258 582v-582h-57v667h78z" />
    <glyph glyph-name="O" unicode="O" horiz-adv-x="486" 
d="M244 629q-81 0 -118 -69.5t-37 -222.5q0 -158 36 -229.5t115 -71.5q82 0 119.5 71t37.5 226t-36.5 225.5t-116.5 70.5zM245 678q109 0 161 -82t52 -255q0 -183 -52.5 -268t-165.5 -85q-109 0 -160 85t-51 265q0 340 216 340z" />
    <glyph glyph-name="P" unicode="P" horiz-adv-x="420" 
d="M110 338h88q40 0 64 5t41 18q51 37 51 119q0 44 -16 75.5t-45 48.5q-29 15 -93 15h-90v-281zM215 667q45 0 75 -6.5t53 -22.5q35 -23 53 -64t18 -95q0 -61 -25 -106t-71 -65q-11 -5 -23 -8.5t-26.5 -5.5t-32.5 -3t-42 -1h-84v-290h-59v667h164z" />
    <glyph glyph-name="Q" unicode="Q" horiz-adv-x="486" 
d="M288 171l67 -67q22 36 32 90t10 143q0 153 -36.5 222.5t-117.5 69.5t-117.5 -70.5t-36.5 -227.5q0 -153 36 -224t114 -71q27 0 47.5 7t39.5 23l-71 70zM364 31q-29 -23 -57.5 -33t-68.5 -10q-209 0 -209 343q0 177 53 262t163 85q109 0 160.5 -82t51.5 -255
q0 -102 -14.5 -169t-45.5 -107l71 -69l-33 -34z" />
    <glyph glyph-name="R" unicode="R" horiz-adv-x="467" 
d="M109 351h104q71 0 104 27q45 37 45 109q0 43 -16 73.5t-45 44.5q-13 6 -36.5 10t-46.5 4h-109v-268zM228 667q47 0 76 -6.5t50 -20.5q33 -23 50.5 -60.5t17.5 -85.5q0 -66 -30.5 -110t-85.5 -56q34 -7 56 -19t34 -36.5t17 -66t7 -107.5q1 -23 2.5 -38.5t4.5 -26.5t8 -19
t12 -15h-71q-5 8 -7.5 17t-5 25t-4 41.5t-2.5 65.5q-2 32 -4.5 54t-7.5 37t-12.5 25t-18.5 18q-17 12 -40 16.5t-66 4.5h-99v-304h-58v667h177z" />
    <glyph glyph-name="S" unicode="S" horiz-adv-x="423" 
d="M69 207v-16q0 -44 6.5 -68t23.5 -44q37 -43 105 -43q64 0 101.5 36.5t37.5 99.5q0 65 -44 99q-9 6 -15.5 10.5t-20 10t-36.5 14t-65 22.5q-75 25 -108 65.5t-33 105.5q0 84 49 131t137 47q89 0 134.5 -45.5t45.5 -136.5h-59q-2 69 -31 101t-90 32q-60 0 -93 -32.5
t-33 -89.5q0 -70 56 -104q8 -5 14 -8.5t18 -8t34 -12.5t61 -21q76 -26 108.5 -66t32.5 -108q0 -88 -53.5 -139t-147.5 -51q-195 0 -195 203v16h60z" />
    <glyph glyph-name="T" unicode="T" horiz-adv-x="385" 
d="M395 667v-52h-172v-615h-59v615h-174v52h405z" />
    <glyph glyph-name="U" unicode="U" horiz-adv-x="469" 
d="M104 667v-463q0 -41 4 -65t13 -42q15 -29 44 -45t67 -16q96 0 124 83q5 15 7 37.5t2 55.5v455h59v-455q0 -50 -5.5 -80.5t-18.5 -54.5q-47 -89 -172 -89q-62 0 -105 25.5t-63 75.5q-8 21 -11.5 46.5t-3.5 70.5v461h59z" />
    <glyph glyph-name="V" unicode="V" horiz-adv-x="431" 
d="M66 667l149 -609l152 609h61l-175 -667h-76l-174 667h63z" />
    <glyph glyph-name="W" unicode="W" horiz-adv-x="662" 
d="M67 667l117 -594l112 594h71l113 -594l117 594h59l-141 -667h-73l-112 590l-111 -590h-73l-140 667h61z" />
    <glyph glyph-name="X" unicode="X" horiz-adv-x="427" 
d="M76 667l139 -274l140 274h63l-171 -327l182 -340h-66l-150 290l-152 -290h-64l184 340l-171 327h66z" />
    <glyph glyph-name="Y" unicode="Y" horiz-adv-x="413" 
d="M64 667l143 -338l147 338h63l-181 -398v-269h-59v269l-180 398h67z" />
    <glyph glyph-name="Z" unicode="Z" horiz-adv-x="406" 
d="M391 667v-53l-318 -562h323v-52h-389v52l319 564h-300v51h365z" />
    <glyph glyph-name="bracketleft" unicode="[" horiz-adv-x="235" 
d="M201 667v-44h-92v-746h92v-44h-146v834h146z" />
    <glyph glyph-name="backslash" unicode="\" horiz-adv-x="375" 
d="M388 -167h-47l-296 834h48z" />
    <glyph glyph-name="bracketright" unicode="]" horiz-adv-x="235" 
d="M35 -167v44h92v746h-92v44h146v-834h-146z" />
    <glyph glyph-name="asciicircum" unicode="^" horiz-adv-x="500" 
d="M35 379l179 289h72l179 -289h-61l-155 246l-153 -246h-61z" />
    <glyph glyph-name="underscore" unicode="_" horiz-adv-x="500" 
d="M500 -62v-43h-500v43h500z" />
    <glyph glyph-name="grave" unicode="`" horiz-adv-x="500" 
d="M216 675l69 -132h-45l-92 132h68z" />
    <glyph glyph-name="a" unicode="a" horiz-adv-x="371" 
d="M269 278q-5 -5 -11.5 -9.5t-18.5 -9t-31.5 -10t-50.5 -14.5q-45 -13 -63.5 -36t-18.5 -66q0 -46 21.5 -71t60.5 -25q55 0 88 47q14 19 19 40.5t5 58.5v95zM31 351q0 157 150 157q50 0 84.5 -17.5t48.5 -49.5q6 -14 8 -34.5t2 -61.5v-243q0 -37 6 -49t23 -12q8 0 17 4v-42
q-18 -6 -35 -6q-64 0 -64 63v5t1 8q-37 -82 -129 -82q-61 0 -94 36.5t-33 102.5q0 35 11 63t31 45q7 6 15 11t20 10t29 10t43 12q38 10 59 17t31 16t12 22.5t2 37.5q0 90 -89 90q-49 0 -71.5 -26.5t-22.5 -86.5h-55z" />
    <glyph glyph-name="b" unicode="b" horiz-adv-x="405" 
d="M212 459q-65 0 -93 -70q-18 -45 -18 -139q0 -58 5.5 -95t17.5 -62q28 -57 85 -57t83 52.5t26 164.5q0 108 -25 157t-81 49zM103 423q41 83 122 83q152 0 152 -253q0 -131 -40 -197.5t-118 -66.5q-41 0 -71.5 21t-47.5 60v-70h-53v667h56v-244z" />
    <glyph glyph-name="c" unicode="c" horiz-adv-x="364" 
d="M351 168q-2 -85 -43.5 -132.5t-115.5 -47.5q-83 0 -123 63.5t-40 195.5q0 133 42 197t129 64q67 0 107.5 -43t42.5 -118h-57q-9 115 -96 115q-57 0 -84 -51.5t-27 -161.5q0 -114 26 -165t84 -51q45 0 71.5 36t28.5 99h55z" />
    <glyph glyph-name="d" unicode="d" horiz-adv-x="405" 
d="M197 459q-57 0 -83.5 -49.5t-26.5 -158.5q0 -114 25.5 -165t81.5 -51q57 0 84 51t27 161q0 112 -25.5 162t-82.5 50zM359 0h-52v78q-20 -48 -49 -68.5t-75 -20.5q-79 0 -116.5 63.5t-37.5 197.5q0 256 156 256q85 0 118 -78v239h56v-667z" />
    <glyph glyph-name="e" unicode="e" horiz-adv-x="387" 
d="M300 289q-1 89 -25 130.5t-76 41.5q-75 0 -99 -86q-5 -17 -8 -41.5t-3 -44.5h211zM88 246q1 -51 4 -81.5t11 -54.5q23 -77 93 -77q45 0 71.5 33t31.5 96h55q-1 -19 -6 -42.5t-14 -43.5q-18 -43 -54 -65.5t-86 -22.5q-85 0 -125 63t-40 195q0 260 171 260q81 0 120 -58.5
t39 -183.5v-18h-271z" />
    <glyph glyph-name="f" unicode="f" horiz-adv-x="196" 
d="M61 495q0 39 0.5 63t2.5 38.5t6 23t10 17.5q14 18 34.5 25.5t55.5 7.5h16.5t18.5 -1v-48q-9 1 -15.5 1h-13.5q-43 0 -54 -29q-3 -11 -4 -30t-1 -68h85v-45h-85v-450h-56v450h-70v45h70z" />
    <glyph glyph-name="g" unicode="g" horiz-adv-x="401" 
d="M195 459q-56 0 -81.5 -49t-25.5 -155q0 -108 25 -157t79 -49q57 0 83.5 51t26.5 159q0 103 -26 151.5t-81 48.5zM101 -51q9 -77 91 -77q108 0 108 137v74q-22 -43 -50 -62t-70 -19q-151 0 -151 248q0 257 156 257q41 0 68.5 -19t48.5 -61v68h53v-415q0 -36 -0.5 -60
t-2 -40.5t-4.5 -29.5t-7 -26q-32 -97 -151 -97q-135 0 -144 122h55z" />
    <glyph glyph-name="h" unicode="h" horiz-adv-x="398" 
d="M103 431q46 77 126 77q42 0 72.5 -20.5t42.5 -56.5q5 -15 7.5 -37t2.5 -58v-336h-57v322q0 41 -2 60t-8 32q-9 22 -29 34t-47 12q-31 0 -57 -18t-40 -47q-7 -15 -9 -31t-2 -50v-314h-56v667h56v-236z" />
    <glyph glyph-name="i" unicode="i" horiz-adv-x="152" 
d="M105 671v-93h-58v93h58zM104 495v-495h-56v495h56z" />
    <glyph glyph-name="j" unicode="j" horiz-adv-x="152" 
d="M105 671v-93h-59v93h59zM104 495v-469q0 -43 -0.5 -67t-1.5 -37t-3 -19.5t-5 -15.5q-11 -29 -35 -42.5t-68 -13.5h-13.5t-13.5 1v47h22q27 0 40 9.5t18 32.5q1 9 2 30t1 74v470h57z" />
    <glyph glyph-name="k" unicode="k" horiz-adv-x="371" 
d="M102 667v-417l196 245h66l-151 -185l177 -310h-66l-149 264l-73 -89v-175h-55v667h55z" />
    <glyph glyph-name="l" unicode="l" horiz-adv-x="150" 
d="M103 667v-667h-56v667h56z" />
    <glyph glyph-name="m" unicode="m" horiz-adv-x="615" 
d="M100 495v-63q19 36 50.5 55.5t71.5 19.5q82 0 107 -77q23 40 52.5 58.5t71.5 18.5q38 0 66 -16.5t40 -45.5q3 -8 5.5 -17t4 -21.5t2 -29t0.5 -39.5v-338h-57v338q0 21 -0.5 35t-2 24t-3.5 16.5t-6 12.5q-21 32 -62 32q-31 0 -56 -17.5t-37 -47.5q-3 -8 -5 -14t-3 -14
t-1.5 -20t-0.5 -30v-315h-56v316q-2 70 -3 83q-5 28 -24.5 44t-48.5 16t-52.5 -15.5t-36.5 -42.5q-8 -15 -10.5 -32t-2.5 -46v-323h-56v495h53z" />
    <glyph glyph-name="n" unicode="n" horiz-adv-x="398" 
d="M100 426q43 81 130 81q42 0 72 -20t43 -55q3 -8 4.5 -16.5t2.5 -20t1.5 -27.5t0.5 -38v-330h-57v321q0 42 -2.5 62t-8.5 34q-9 20 -29 31t-46 11q-61 0 -92 -57q-9 -18 -12.5 -35.5t-3.5 -48.5v-318h-56v495h53v-69z" />
    <glyph glyph-name="o" unicode="o" horiz-adv-x="396" 
d="M201 461q-60 0 -87.5 -51t-27.5 -163t26.5 -162.5t85.5 -50.5q58 0 85.5 51t27.5 159q0 114 -26 165.5t-84 51.5zM202 507q86 0 126 -62.5t40 -196.5q0 -135 -41.5 -197t-131.5 -62q-87 0 -126.5 62.5t-39.5 199.5q0 256 173 256z" />
    <glyph glyph-name="p" unicode="p" horiz-adv-x="405" 
d="M213 459q-33 0 -58 -19t-38 -54q-17 -45 -17 -133q0 -113 26 -165t83 -52t83.5 52.5t26.5 164.5q0 106 -25.5 156t-80.5 50zM100 422q39 84 123 84q42 0 74 -19.5t50 -56.5q30 -60 30 -173q0 -268 -158 -268q-38 0 -68 19t-47 54v-229h-57v662h53v-73z" />
    <glyph glyph-name="q" unicode="q" horiz-adv-x="405" 
d="M196 459q-58 0 -84 -51t-26 -164q0 -110 25 -159.5t82 -49.5t84.5 52t27.5 163q0 109 -26 159t-83 50zM358 -167h-55v233q-23 -42 -50.5 -59.5t-70.5 -17.5q-78 0 -116 63t-38 195q0 259 157 259q81 0 119 -84v73h54v-662z" />
    <glyph glyph-name="r" unicode="r" horiz-adv-x="237" 
d="M102 495v-79q44 87 125 87h9.5t11.5 -1v-57q-7 2 -11 2h-9q-71 0 -105 -55q-6 -10 -10.5 -19t-6.5 -19.5t-3 -23.5t-1 -31v-299h-55v495h55z" />
    <glyph glyph-name="s" unicode="s" horiz-adv-x="344" 
d="M69 159v-10q0 -61 23 -89t74 -28q46 0 72 24.5t26 68.5q0 45 -28 68q-6 5 -12.5 9.5t-16.5 9t-25.5 10.5t-40.5 15q-33 12 -55 25t-36 29t-20 36t-6 46q0 63 38 97.5t107 34.5q48 0 80.5 -18t46.5 -51q11 -26 11 -84h-55v8q-1 17 -2 28t-3 19t-5 14t-7 12q-22 28 -68 28
q-42 0 -65.5 -22t-23.5 -60q0 -35 18.5 -55.5t68.5 -38.5q25 -9 42.5 -15.5t29.5 -12t21 -11t18 -11.5q44 -33 44 -101q0 -69 -41 -107.5t-115 -38.5q-51 0 -86 19t-50 54q-13 32 -13 98h54z" />
    <glyph glyph-name="t" unicode="t" horiz-adv-x="206" 
d="M57 495v142h56v-142h86v-45h-86v-330q0 -24 2 -38.5t8 -22.5t16.5 -11t27.5 -3q8 0 16 0.5t19 2.5v-46q-14 -3 -24.5 -4t-23.5 -1q-29 0 -48 5t-30 18t-15 36t-4 58v336h-70v45h70z" />
    <glyph glyph-name="u" unicode="u" horiz-adv-x="398" 
d="M101 495v-329q0 -29 2 -47.5t7 -32.5q18 -49 75 -49q32 0 58.5 18t40.5 49q6 15 8.5 33t2.5 50v308h56v-495h-53v68q-42 -80 -129 -80q-102 0 -120 103q-3 16 -4 31.5t-1 43.5v329h57z" />
    <glyph glyph-name="v" unicode="v" horiz-adv-x="326" 
d="M54 495l114 -437l104 437h57l-130 -495h-65l-138 495h58z" />
    <glyph glyph-name="w" unicode="w" horiz-adv-x="533" 
d="M57 495l88 -440l90 440h66l90 -440l87 440h56l-112 -495h-62l-92 441l-90 -441h-67l-111 495h57z" />
    <glyph glyph-name="x" unicode="x" horiz-adv-x="325" 
d="M63 495l100 -200l99 200h60l-126 -240l132 -255h-62l-105 215l-105 -215h-60l133 255l-128 240h62z" />
    <glyph glyph-name="y" unicode="y" horiz-adv-x="327" 
d="M54 495l115 -436l103 436h58l-123 -463q-17 -63 -29.5 -100.5t-22.5 -52.5q-17 -26 -39.5 -36.5t-60.5 -10.5q-8 0 -16.5 0.5t-22.5 1.5v48q13 -2 20.5 -2.5t15.5 -0.5q26 0 41 10t26 35q2 4 5 12t5.5 16.5t5 16t2.5 10.5l3 14l-144 502h58z" />
    <glyph glyph-name="z" unicode="z" horiz-adv-x="298" 
d="M299 495v-47l-231 -400h230v-48h-295v44l233 404h-221v47h284z" />
    <glyph glyph-name="braceleft" unicode="{" horiz-adv-x="264" 
d="M129 357q0 -47 -12.5 -72t-43.5 -42q31 -17 43.5 -42.5t12.5 -73.5v-161q0 -32 5.5 -51t17.5 -30q8 -8 25.5 -12.5t34.5 -4.5h11v-47h-8q-76 0 -107.5 33.5t-31.5 115.5v157q0 44 -12.5 65t-44.5 30v46q31 9 44 29.5t13 62.5v171q0 72 32.5 104t106.5 32h8v-47h-11
q-20 0 -38 -6t-26 -16q-11 -11 -15 -27.5t-4 -44.5v-169z" />
    <glyph glyph-name="bar" unicode="|" horiz-adv-x="500" 
d="M282 667v-834h-63v834h63z" />
    <glyph glyph-name="braceright" unicode="}" horiz-adv-x="264" 
d="M135 131q0 47 12 72t44 42q-32 16 -44 42t-12 74v161q0 32 -5.5 51t-17.5 30q-8 8 -25.5 12.5t-34.5 4.5h-11v47h8q76 0 107.5 -33.5t31.5 -115.5v-157q0 -44 12.5 -65t44.5 -30v-46q-31 -9 -44 -29.5t-13 -62.5v-171q0 -72 -32.5 -104t-106.5 -32h-8v47h11q20 0 38 6
t26 16q11 11 15 27.5t4 44.5v169z" />
    <glyph glyph-name="asciitilde" unicode="~" horiz-adv-x="667" 
d="M95 614q53 107 133 107q20 0 46.5 -9t69.5 -32q21 -11 35.5 -18t25.5 -10.5t19 -5t17 -1.5q29 0 51 18t46 60l35 -27q-50 -107 -138 -107q-11 0 -20.5 1.5t-23 6.5t-33 14.5t-49.5 25.5q-29 15 -48.5 21.5t-35.5 6.5q-27 0 -49.5 -18t-45.5 -60z" />
    <glyph glyph-name="uni00A0" unicode="&#xa0;" horiz-adv-x="250" 
 />
    <glyph glyph-name="exclamdown" unicode="&#xa1;" horiz-adv-x="164" 
d="M51 577v90h63v-90h-63zM52 0v209l10 284h40l12 -284v-209h-62z" />
    <glyph glyph-name="cent" unicode="&#xa2;" 
d="M202 554q-18 -2 -35.5 -14.5t-28.5 -30.5q-31 -50 -31 -168q0 -59 6.5 -99t20.5 -66q11 -21 29 -34.5t39 -15.5v428zM379 259q-2 -78 -41 -127t-102 -51v-84h-34v84q-78 3 -115 66.5t-37 193.5q0 75 12.5 124.5t38.5 82.5q19 23 45.5 36.5t55.5 15.5v69h34v-69
q63 -2 100 -44.5t41 -115.5h-56q-3 51 -25 80.5t-60 33.5v-428q39 5 62 39t27 94h54z" />
    <glyph glyph-name="sterling" unicode="&#xa3;" 
d="M97 347q-2 6 -4.5 10.5l-12.5 22.5q-20 36 -28.5 64.5t-8.5 57.5q0 36 13.5 66t38 51.5t58.5 33.5t75 12q85 0 134 -50.5t50 -140.5h-57q-1 69 -34 107t-93 38q-57 0 -91.5 -31t-34.5 -82q0 -46 37 -115q12 -23 16 -31t6 -13h141v-39h-124q15 -39 15 -73q0 -97 -116 -191
q26 14 45 20.5t38 6.5q14 0 26.5 -3t38.5 -12q24 -9 38.5 -12.5t28.5 -3.5q23 0 48.5 11t60.5 36l26 -45q-71 -54 -137 -54q-8 0 -15.5 1t-16.5 3t-21 6t-29 10q-26 10 -42.5 14t-32.5 4q-20 0 -38 -7t-48 -27l-29 48q57 41 87 90t30 101q0 38 -20 77h-91v39h73z" />
    <glyph glyph-name="currency" unicode="&#xa4;" horiz-adv-x="649" 
d="M327 532q-37 0 -69.5 -13.5t-56.5 -37.5t-37.5 -56.5t-13.5 -69.5q0 -36 14 -68t37.5 -56t55.5 -38t68 -14t68 14t55.5 38t37.5 56t14 68t-13.5 68.5t-37 56.5t-55 38t-67.5 14zM147 212q-52 67 -52 144q0 39 12 72.5t40 69.5l-94 92l34 34l92 -92q38 28 71.5 40.5
t74.5 12.5t74.5 -12.5t69.5 -40.5l93 92l34 -34l-93 -92q27 -36 39.5 -70t12.5 -73q0 -40 -12 -74t-39 -69l93 -93l-34 -33l-93 93q-65 -53 -144 -53q-38 0 -72.5 12.5t-72.5 39.5l-92 -92l-33 33z" />
    <glyph glyph-name="yen" unicode="&#xa5;" 
d="M10 653h65l141 -332l143 332h62l-121 -266h106v-40h-124l-38 -83v-37h142v-40h-142v-187h-58v187h-141v40h141v37l-37 83h-124v40h105z" />
    <glyph glyph-name="brokenbar" unicode="&#xa6;" horiz-adv-x="500" 
d="M282 153v-320h-63v320h63zM282 667v-331h-63v331h63z" />
    <glyph glyph-name="section" unicode="&#xa7;" 
d="M281 146q71 35 71 98q0 42 -34 73q-8 7 -15.5 13t-18.5 14t-28.5 19.5t-44.5 28.5q-15 9 -23.5 14.5t-14 9.5t-9.5 6.5t-9 5.5q-76 -40 -76 -98q0 -41 38 -71q14 -11 35.5 -26.5t67.5 -44.5q24 -15 37.5 -24.5t23.5 -17.5zM116 31v-8v-5q1 -48 27 -75t74 -27
q45 0 72.5 24t27.5 63q0 43 -35 73q-9 7 -15.5 12.5t-21.5 15.5t-42.5 28t-78.5 50q-54 34 -77 66.5t-23 72.5q0 42 22.5 74t72.5 58q-58 40 -58 104q0 59 43 95t115 36q69 0 110 -37.5t40 -99.5h-58q-5 92 -96 92q-43 0 -69 -22.5t-26 -58.5q0 -14 3.5 -25.5t12.5 -22.5
t24 -23t38 -26q39 -24 65.5 -41t44.5 -29t30 -21t21 -17q23 -20 35 -47t12 -58q0 -82 -87 -132q30 -26 43.5 -53t13.5 -60q0 -62 -43.5 -100t-113.5 -38q-50 0 -87.5 18.5t-55.5 52.5q-18 33 -18 91h58z" />
    <glyph glyph-name="dieresis" unicode="&#xa8;" horiz-adv-x="500" 
d="M348 665v-93h-55v93h55zM208 665v-93h-55v93h55z" />
    <glyph glyph-name="copyright" unicode="&#xa9;" horiz-adv-x="716" 
d="M482 278q0 -52 -24 -91q-17 -26 -39 -38t-57 -12q-66 0 -96.5 47t-30.5 147q0 102 31.5 150.5t97.5 48.5q54 0 83 -31t31 -92h-42v1v2q1 3 0 10.5t-3.5 15.5l-5 16t-5.5 12q-18 30 -58 30q-45 0 -65 -39t-20 -125q0 -82 20 -120t63 -38q36 0 55.5 27.5t21.5 78.5h43z
M363 636q-145 0 -236 -108q-34 -41 -52.5 -90.5t-18.5 -101.5q0 -63 23.5 -119t65 -97t96.5 -65t118 -24q62 0 117 24t96 65t65 96t24 118q0 61 -24 116t-64.5 96.5t-94.5 65.5t-115 24zM364 677q69 0 130.5 -27.5t107.5 -74t73 -109t27 -132.5q0 -71 -27 -134t-73.5 -109.5
t-109 -73.5t-133.5 -27q-72 0 -134.5 27t-109 74t-73.5 110t-27 135q0 71 27 133t74.5 108.5t111 73t136.5 26.5z" />
    <glyph glyph-name="ordfeminine" unicode="&#xaa;" horiz-adv-x="253" 
d="M179 427q-11 -6 -17 -8t-23 -7q-24 -6 -39.5 -12t-23.5 -13t-11 -16.5t-3 -23.5q0 -53 49 -53q32 0 50 21.5t18 61.5v30v20zM29 473q0 99 97 99q32 0 55 -10.5t32 -30.5q4 -8 5.5 -21t1.5 -37v-144q0 -20 2.5 -26t11.5 -6q3 0 6 0.5t9 2.5v-31q-13 -5 -26 -5
q-20 0 -29 7.5t-14 27.5q-14 -21 -32 -30t-46 -9q-39 0 -61 22t-22 63q0 51 35 72q6 3 10 5.5t13 5t25 7t46 12.5q20 5 25.5 12.5t5.5 30.5q0 49 -53 49q-30 0 -43 -15t-13 -51h-41z" />
    <glyph glyph-name="guillemotleft" unicode="&#xab;" horiz-adv-x="277" 
d="M137 228v57l109 118v-61l-76 -85l76 -84v-62zM20 229v57l110 117v-61l-73 -84l73 -83v-64z" />
    <glyph glyph-name="logicalnot" unicode="&#xac;" horiz-adv-x="500" 
d="M405 219h-372v55h433v-274h-61v219z" />
    <glyph glyph-name="uni00AD" unicode="&#xad;" horiz-adv-x="201" 
d="M201 293v-53h-201v53h201z" />
    <glyph glyph-name="registered" unicode="&#xae;" horiz-adv-x="716" 
d="M292 347h56q83 0 83 72q0 69 -80 69h-59v-141zM357 523q117 0 117 -100q0 -34 -13 -56t-42 -36q16 -6 26 -13.5t16 -21.5t8 -36.5t3 -57.5q1 -14 2 -22.5t3 -14.5t6 -11t11 -11h-53q-3 5 -5.5 10.5t-4 14.5t-2 23.5t-1.5 38.5q-1 27 -4.5 43t-12.5 25t-25 12t-41 3h-53
v-170h-42v380h107zM363 636q-145 0 -236 -108q-34 -41 -52.5 -90.5t-18.5 -101.5q0 -63 23.5 -119t65 -97t96.5 -65t118 -24q62 0 117 24t96 65t65 96t24 118q0 61 -24 116t-64.5 96.5t-94.5 65.5t-115 24zM364 677q69 0 130.5 -27.5t107.5 -74t73 -109t27 -132.5
q0 -71 -27 -134t-73.5 -109.5t-109 -73.5t-133.5 -27q-72 0 -134.5 27t-109 74t-73.5 110t-27 135q0 71 27 133t74.5 108.5t111 73t136.5 26.5z" />
    <glyph glyph-name="macron" unicode="&#xaf;" horiz-adv-x="500" 
d="M356 635v-37h-213v37h213z" />
    <glyph glyph-name="degree" unicode="&#xb0;" horiz-adv-x="340" 
d="M169 631q-18 0 -34.5 -7.5t-29 -20.5t-19.5 -29.5t-7 -35.5t7 -36t19.5 -29.5t29 -20t35.5 -7.5q18 0 34.5 7.5t29 20t20 29t7.5 34.5q0 20 -7 37.5t-19.5 30t-29.5 20t-36 7.5zM171 667q27 0 50 -10t40.5 -28t27.5 -41.5t10 -50.5q0 -26 -10 -49.5t-27.5 -41t-41 -27.5
t-49.5 -10q-27 0 -50.5 10t-41.5 27.5t-28 41t-10 50.5t10 50.5t28 41t41.5 27.5t50.5 10z" />
    <glyph glyph-name="plusminus" unicode="&#xb1;" 
d="M401 97v-43h-373v43h373zM193 349v165h43v-165h165v-43h-165v-165h-43v165h-165v43h165z" />
    <glyph glyph-name="twosuperior" unicode="&#xb2;" horiz-adv-x="283" 
d="M29 531q2 130 115 130q52 0 81 -29.5t29 -82.5q0 -52 -34 -89q-6 -7 -10.5 -11.5t-12 -10.5l-20 -16t-34.5 -28q-17 -14 -29 -25t-19.5 -21.5t-12.5 -22.5t-9 -27h185v-37h-231q1 30 6.5 52.5t19.5 43.5t37.5 43.5t61.5 51.5q33 26 45.5 47t12.5 50q0 36 -18 56t-50 20
q-68 0 -71 -94h-42z" />
    <glyph glyph-name="threesuperior" unicode="&#xb3;" horiz-adv-x="283" 
d="M65 373q3 -84 72 -84q35 0 55.5 22.5t20.5 60.5q0 49 -34 69q-9 6 -21 8t-35 2h-8.5t-8.5 1v34l8 -1h9q78 0 78 71q0 33 -16.5 51t-47.5 18t-48.5 -21t-17.5 -58v-2h-42q1 57 28.5 86.5t80.5 29.5q49 0 77.5 -27t28.5 -74q0 -64 -55 -88q68 -22 68 -96q0 -57 -32.5 -89
t-88.5 -32q-55 0 -84.5 31t-28.5 88h42z" />
    <glyph glyph-name="acute" unicode="&#xb4;" horiz-adv-x="500" 
d="M352 675l-93 -132h-44l69 132h68z" />
    <glyph glyph-name="mu" unicode="&#xb5;" horiz-adv-x="402" 
d="M104 495v-309q0 -41 2 -61t7 -36q18 -52 76 -52q32 0 58 18t40 49q6 15 8.5 33t2.5 51v307h57v-495h-51v76q-42 -88 -130 -88q-20 0 -35.5 5t-34.5 16v-176h-57v662h57z" />
    <glyph glyph-name="paragraph" unicode="&#xb6;" 
d="M178 314q-16 0 -26 0.5t-18 1.5t-15 3.5t-16 6.5q-44 18 -69 61t-25 101q0 51 20 91.5t55 62.5q40 25 111 25h212v-45h-43v-735h-57v735h-72v-735h-57v427z" />
    <glyph glyph-name="periodcentered" unicode="&#xb7;" horiz-adv-x="137" 
d="M100 301v-96h-63v96h63z" />
    <glyph glyph-name="cedilla" unicode="&#xb8;" horiz-adv-x="500" 
d="M281 0l-39 -56q13 4 31 4q31 0 52 -18t21 -45q0 -33 -29 -54.5t-74 -21.5q-19 0 -37 4t-42 12l11 27q33 -13 62 -13q26 0 42 12t16 32q0 16 -13.5 26t-34.5 10t-40 -10l-13 13l53 78h34z" />
    <glyph glyph-name="onesuperior" unicode="&#xb9;" horiz-adv-x="283" 
d="M50 593q51 0 73.5 15.5t26.5 51.5h33v-399h-41v302h-92v30z" />
    <glyph glyph-name="ordmasculine" unicode="&#xba;" horiz-adv-x="265" 
d="M134 538q-35 0 -51.5 -29.5t-16.5 -92.5q0 -64 16 -93t51 -29t51 29t16 91q0 66 -15.5 95t-50.5 29zM135 572q56 0 82 -37.5t26 -118.5t-27 -118.5t-86 -37.5q-56 0 -81.5 38t-25.5 120q0 154 112 154z" />
    <glyph glyph-name="guillemotright" unicode="&#xbb;" horiz-adv-x="277" 
d="M140 286v-57l-109 -118v61l76 85l-76 84v62zM257 285v-57l-110 -117v61l73 85l-73 83v63z" />
    <glyph glyph-name="onequarter" unicode="&#xbc;" horiz-adv-x="618" 
d="M360 137h116v192zM321 139l155 260h42v-262h48v-37h-48v-100h-42v100h-155v39zM433 653l-274 -653h-41l274 653h41zM16 593q51 0 73.5 15.5t26.5 51.5h33v-399h-41v302h-92v30z" />
    <glyph glyph-name="onehalf" unicode="&#xbd;" horiz-adv-x="618" 
d="M337 270q2 129 115 129q52 0 81 -29.5t29 -81.5q0 -54 -34 -89q-6 -7 -10.5 -11.5t-12 -10.5l-20 -16t-34.5 -28q-17 -14 -29 -25t-19.5 -22t-12.5 -22.5t-9 -26.5h185v-37h-231q1 30 6.5 52.5t19.5 44t37.5 43.5t61.5 51q33 26 45.5 47.5t12.5 50.5q0 35 -18 55t-50 20
q-68 0 -71 -94h-42zM416 653l-274 -653h-40l274 653h40zM23 593q51 0 73.5 15.5t26.5 51.5h33v-399h-41v302h-92v30z" />
    <glyph glyph-name="threequarters" unicode="&#xbe;" horiz-adv-x="618" 
d="M394 137h116v192zM355 139l155 260h42v-262h48v-37h-48v-100h-42v100h-155v39zM486 653l-274 -653h-40l274 653h40zM65 373q3 -84 72 -84q35 0 55.5 22.5t20.5 60.5q0 49 -34 69q-9 6 -21 8t-35 2h-8.5t-8.5 1v34l8 -1h9q78 0 78 71q0 33 -16.5 51t-47.5 18t-48.5 -21
t-17.5 -58v-2h-42q1 57 28.5 86.5t80.5 29.5q49 0 77.5 -27t28.5 -74q0 -64 -55 -88q68 -22 68 -96q0 -57 -32.5 -89t-88.5 -32q-55 0 -84.5 31t-28.5 88h42z" />
    <glyph glyph-name="questiondown" unicode="&#xbf;" horiz-adv-x="373" 
d="M169 577v90h62v-90h-62zM361 193q1 -98 -43.5 -151t-128.5 -53q-77 0 -121.5 44.5t-44.5 121.5q0 64 30 108q5 7 8.5 12t10 12.5t18.5 20t33 35.5q18 20 28.5 34.5t15.5 30t6.5 35.5t1.5 51h55q0 -41 -2.5 -67t-12.5 -48t-29 -45.5t-53 -58.5q-28 -30 -40 -58t-12 -65
q0 -54 29 -85t80 -31q73 0 101 68q8 19 11 38t3 51h56z" />
    <glyph glyph-name="Agrave" unicode="&#xc0;" horiz-adv-x="475" 
d="M134 244h209l-103 381zM280 667l193 -667h-63l-54 195h-236l-55 -195h-62l199 667h78zM168 829l69 -132h-45l-92 132h68z" />
    <glyph glyph-name="Aacute" unicode="&#xc1;" horiz-adv-x="475" 
d="M134 244h209l-103 381zM280 667l193 -667h-63l-54 195h-236l-55 -195h-62l199 667h78zM356 829l-93 -132h-44l69 132h68z" />
    <glyph glyph-name="Acircumflex" unicode="&#xc2;" horiz-adv-x="475" 
d="M134 244h209l-103 381zM280 667l193 -667h-63l-54 195h-236l-55 -195h-62l199 667h78zM251 828l87 -131h-53l-63 94l-64 -94h-51l89 131h55z" />
    <glyph glyph-name="Atilde" unicode="&#xc3;" horiz-adv-x="475" 
d="M134 244h209l-103 381zM280 667l193 -667h-63l-54 195h-236l-55 -195h-62l199 667h78zM111 720q7 45 25.5 68.5t47.5 23.5q8 0 13.5 -1t13 -4t17.5 -9t27 -17q17 -10 30 -10q24 0 32 45h37q-4 -42 -23 -66.5t-47 -24.5q-7 0 -12.5 0.5t-12 3.5t-16.5 9t-27 16
q-10 5 -18.5 8.5t-14.5 3.5q-12 0 -21.5 -12.5t-13.5 -33.5h-37z" />
    <glyph glyph-name="Adieresis" unicode="&#xc4;" horiz-adv-x="475" 
d="M134 244h209l-103 381zM280 667l193 -667h-63l-54 195h-236l-55 -195h-62l199 667h78zM327 813v-93h-55v93h55zM187 813v-93h-55v93h55z" />
    <glyph glyph-name="Aring" unicode="&#xc5;" horiz-adv-x="475" 
d="M134 244h209l-103 381zM280 667l193 -667h-63l-54 195h-236l-55 -195h-62l199 667h78zM240 831q-23 0 -39.5 -16.5t-16.5 -39.5q0 -24 16.5 -40.5t39.5 -16.5t39 16.5t16 39.5q0 24 -16 40.5t-39 16.5zM240 863q18 0 34 -7t28 -19t19 -28t7 -34t-7 -34.5t-19 -28.5
t-28 -19t-34 -7q-37 0 -63 26t-26 64q0 18 7 33.5t19.5 27.5t28.5 19t34 7z" />
    <glyph glyph-name="AE" unicode="&#xc6;" horiz-adv-x="627" 
d="M125 244h160v374h-10zM607 667v-52h-264v-241h248v-51h-248v-271h273v-52h-331v195h-177l-79 -195h-62l272 667h368z" />
    <glyph glyph-name="Ccedilla" unicode="&#xc7;" horiz-adv-x="461" 
d="M440 227q-2 -56 -16 -100t-38 -75t-58 -47t-75 -16l-32 -45q17 5 31 5q32 0 53 -18t21 -46q0 -34 -29 -55t-75 -21q-19 0 -37.5 4t-41.5 12l11 27q18 -6 32.5 -9t29.5 -3q27 0 43 11.5t16 31.5q0 16 -13.5 26t-35.5 10q-9 0 -18 -2t-21 -7l-13 13l45 66
q-99 9 -144.5 90.5t-45.5 248.5q0 164 43 249q25 49 69.5 75t103.5 26q88 0 137 -53.5t52 -151.5h-60q-2 74 -36.5 115t-94.5 41q-79 0 -116 -72t-37 -227q0 -151 36.5 -222t115.5 -71q63 0 99 49.5t40 140.5h59z" />
    <glyph glyph-name="Egrave" unicode="&#xc8;" horiz-adv-x="401" 
d="M380 667v-52h-270v-242h253v-51h-253v-270h280v-52h-339v667h329zM153 829l69 -132h-45l-92 132h68z" />
    <glyph glyph-name="Eacute" unicode="&#xc9;" horiz-adv-x="401" 
d="M380 667v-52h-270v-242h253v-51h-253v-270h280v-52h-339v667h329zM296 829l-93 -132h-44l69 132h68z" />
    <glyph glyph-name="Ecircumflex" unicode="&#xca;" horiz-adv-x="401" 
d="M380 667v-52h-270v-242h253v-51h-253v-270h280v-52h-339v667h329zM217 828l87 -131h-53l-63 94l-64 -94h-51l89 131h55z" />
    <glyph glyph-name="Edieresis" unicode="&#xcb;" horiz-adv-x="401" 
d="M380 667v-52h-270v-242h253v-51h-253v-270h280v-52h-339v667h329zM292 813v-93h-55v93h55zM152 813v-93h-55v93h55z" />
    <glyph glyph-name="Igrave" unicode="&#xcc;" horiz-adv-x="162" 
d="M111 667v-667h-60v667h60zM17 829l69 -132h-45l-92 132h68z" />
    <glyph glyph-name="Iacute" unicode="&#xcd;" horiz-adv-x="162" 
d="M111 667v-667h-60v667h60zM199 829l-93 -132h-44l69 132h68z" />
    <glyph glyph-name="Icircumflex" unicode="&#xce;" horiz-adv-x="162" 
d="M111 667v-667h-60v667h60zM114 828l87 -131h-53l-63 94l-64 -94h-51l89 131h55z" />
    <glyph glyph-name="Idieresis" unicode="&#xcf;" horiz-adv-x="162" 
d="M111 667v-667h-60v667h60zM192 813v-93h-55v93h55zM52 813v-93h-55v93h55z" />
    <glyph glyph-name="Eth" unicode="&#xd0;" horiz-adv-x="481" 
d="M240 378v-42h-130v-287h84q53 0 85.5 10.5t52.5 35.5q59 68 59 251q0 91 -15.5 147t-49.5 87q-22 20 -55.5 29t-87.5 9h-73v-240h130zM51 667h130q71 0 112 -10t71 -35q45 -38 66.5 -103t21.5 -168q0 -203 -73 -288q-30 -35 -69.5 -49t-104.5 -14h-154v336h-62v42h62v289
z" />
    <glyph glyph-name="Ntilde" unicode="&#xd1;" horiz-adv-x="495" 
d="M129 667l258 -580v580h57v-667h-78l-258 582v-582h-57v667h78zM120 720q7 45 25.5 68.5t47.5 23.5q8 0 13.5 -1t13 -4t17.5 -9t27 -17q17 -10 30 -10q24 0 32 45h37q-4 -42 -23 -66.5t-47 -24.5q-7 0 -12.5 0.5t-12 3.5t-16.5 9t-27 16q-10 5 -18.5 8.5t-14.5 3.5
q-12 0 -21.5 -12.5t-13.5 -33.5h-37z" />
    <glyph glyph-name="Ograve" unicode="&#xd2;" horiz-adv-x="486" 
d="M244 629q-81 0 -118 -69.5t-37 -222.5q0 -158 36 -229.5t115 -71.5q82 0 119.5 71t37.5 226t-36.5 225.5t-116.5 70.5zM245 678q109 0 161 -82t52 -255q0 -183 -52.5 -268t-165.5 -85q-109 0 -160 85t-51 265q0 340 216 340zM179 829l69 -132h-45l-92 132h68z" />
    <glyph glyph-name="Oacute" unicode="&#xd3;" horiz-adv-x="486" 
d="M244 629q-81 0 -118 -69.5t-37 -222.5q0 -158 36 -229.5t115 -71.5q82 0 119.5 71t37.5 226t-36.5 225.5t-116.5 70.5zM245 678q109 0 161 -82t52 -255q0 -183 -52.5 -268t-165.5 -85q-109 0 -160 85t-51 265q0 340 216 340zM354 829l-93 -132h-44l69 132h68z" />
    <glyph glyph-name="Ocircumflex" unicode="&#xd4;" horiz-adv-x="486" 
d="M244 629q-81 0 -118 -69.5t-37 -222.5q0 -158 36 -229.5t115 -71.5q82 0 119.5 71t37.5 226t-36.5 225.5t-116.5 70.5zM245 678q109 0 161 -82t52 -255q0 -183 -52.5 -268t-165.5 -85q-109 0 -160 85t-51 265q0 340 216 340zM256 828l87 -131h-53l-63 94l-64 -94h-51
l89 131h55z" />
    <glyph glyph-name="Otilde" unicode="&#xd5;" horiz-adv-x="486" 
d="M244 629q-81 0 -118 -69.5t-37 -222.5q0 -158 36 -229.5t115 -71.5q82 0 119.5 71t37.5 226t-36.5 225.5t-116.5 70.5zM245 678q109 0 161 -82t52 -255q0 -183 -52.5 -268t-165.5 -85q-109 0 -160 85t-51 265q0 340 216 340zM116 720q7 45 25.5 68.5t47.5 23.5
q8 0 13.5 -1t13 -4t17.5 -9t27 -17q17 -10 30 -10q24 0 32 45h37q-4 -42 -23 -66.5t-47 -24.5q-7 0 -12.5 0.5t-12 3.5t-16.5 9t-27 16q-10 5 -18.5 8.5t-14.5 3.5q-12 0 -21.5 -12.5t-13.5 -33.5h-37z" />
    <glyph glyph-name="Odieresis" unicode="&#xd6;" horiz-adv-x="486" 
d="M244 629q-81 0 -118 -69.5t-37 -222.5q0 -158 36 -229.5t115 -71.5q82 0 119.5 71t37.5 226t-36.5 225.5t-116.5 70.5zM245 678q109 0 161 -82t52 -255q0 -183 -52.5 -268t-165.5 -85q-109 0 -160 85t-51 265q0 340 216 340zM332 813v-93h-55v93h55zM192 813v-93h-55v93
h55z" />
    <glyph glyph-name="multiply" unicode="&#xd7;" 
d="M215 359l133 132l30 -30l-132 -133l132 -132l-30 -31l-133 133l-132 -133l-31 31l132 132l-132 133l31 30z" />
    <glyph glyph-name="Oslash" unicode="&#xd8;" horiz-adv-x="487" 
d="M154 68q18 -17 38.5 -24.5t48.5 -7.5q81 0 118.5 71t37.5 226q0 81 -8.5 134.5t-28.5 93.5zM332 598q-19 17 -39.5 24t-49.5 7q-80 0 -117 -70.5t-37 -223.5q0 -82 9 -137.5t29 -92.5zM377 706l37 -15l-28 -69q37 -41 54.5 -109.5t17.5 -171.5q0 -182 -52.5 -267.5
t-164.5 -85.5q-34 0 -59 6.5t-49 21.5l-24 -57l-36 16l29 69q-38 45 -55.5 115.5t-17.5 176.5q0 174 53 258t162 84q34 0 60.5 -7t49.5 -21z" />
    <glyph glyph-name="Ugrave" unicode="&#xd9;" horiz-adv-x="469" 
d="M104 667v-463q0 -41 4 -65t13 -42q15 -29 44 -45t67 -16q96 0 124 83q5 15 7 37.5t2 55.5v455h59v-455q0 -50 -5.5 -80.5t-18.5 -54.5q-47 -89 -172 -89q-62 0 -105 25.5t-63 75.5q-8 21 -11.5 46.5t-3.5 70.5v461h59zM171 829l69 -132h-45l-92 132h68z" />
    <glyph glyph-name="Uacute" unicode="&#xda;" horiz-adv-x="469" 
d="M104 667v-463q0 -41 4 -65t13 -42q15 -29 44 -45t67 -16q96 0 124 83q5 15 7 37.5t2 55.5v455h59v-455q0 -50 -5.5 -80.5t-18.5 -54.5q-47 -89 -172 -89q-62 0 -105 25.5t-63 75.5q-8 21 -11.5 46.5t-3.5 70.5v461h59zM346 829l-93 -132h-44l69 132h68z" />
    <glyph glyph-name="Ucircumflex" unicode="&#xdb;" horiz-adv-x="469" 
d="M104 667v-463q0 -41 4 -65t13 -42q15 -29 44 -45t67 -16q96 0 124 83q5 15 7 37.5t2 55.5v455h59v-455q0 -50 -5.5 -80.5t-18.5 -54.5q-47 -89 -172 -89q-62 0 -105 25.5t-63 75.5q-8 21 -11.5 46.5t-3.5 70.5v461h59zM248 828l87 -131h-53l-63 94l-64 -94h-51l89 131h55
z" />
    <glyph glyph-name="Udieresis" unicode="&#xdc;" horiz-adv-x="469" 
d="M104 667v-463q0 -41 4 -65t13 -42q15 -29 44 -45t67 -16q96 0 124 83q5 15 7 37.5t2 55.5v455h59v-455q0 -50 -5.5 -80.5t-18.5 -54.5q-47 -89 -172 -89q-62 0 -105 25.5t-63 75.5q-8 21 -11.5 46.5t-3.5 70.5v461h59zM323 813v-93h-55v93h55zM183 813v-93h-55v93h55z
" />
    <glyph glyph-name="Yacute" unicode="&#xdd;" horiz-adv-x="413" 
d="M64 667l143 -338l147 338h63l-181 -398v-269h-59v269l-180 398h67zM318 829l-93 -132h-44l69 132h68z" />
    <glyph glyph-name="Thorn" unicode="&#xde;" horiz-adv-x="424" 
d="M110 229h88q40 0 63.5 5t40.5 18q51 36 51 117q0 44 -16 75.5t-45 47.5q-14 8 -37.5 11.5t-54.5 3.5h-90v-278zM110 0h-59v667h59v-111h105q46 0 75.5 -7t52.5 -23q35 -24 53 -64t18 -93q0 -61 -25 -105.5t-71 -65.5q-11 -5 -23 -8.5t-26 -5.5t-32.5 -3t-42.5 -1h-84
v-180z" />
    <glyph glyph-name="germandbls" unicode="&#xdf;" horiz-adv-x="414" 
d="M47 483q0 50 7 80.5t24 52.5q20 26 52 40t71 14q72 0 111.5 -40t39.5 -111q0 -54 -25 -89.5t-72 -47.5q131 -21 131 -176q0 -59 -20 -107.5t-55 -74.5q-39 -30 -106 -30q-9 0 -17 0.5t-19 1.5v48q22 -3 36 -3q57 0 90 44t33 120q0 80 -35 116.5t-111 36.5h-9v43h7
q57 0 86 29t29 84q0 52 -25 81.5t-70 29.5q-32 0 -54.5 -15t-33.5 -42q-9 -24 -9 -79v-489h-56v483z" />
    <glyph glyph-name="agrave" unicode="&#xe0;" horiz-adv-x="371" 
d="M269 278q-5 -5 -11.5 -9.5t-18.5 -9t-31.5 -10t-50.5 -14.5q-45 -13 -63.5 -36t-18.5 -66q0 -46 21.5 -71t60.5 -25q55 0 88 47q14 19 19 40.5t5 58.5v95zM31 351q0 157 150 157q50 0 84.5 -17.5t48.5 -49.5q6 -14 8 -34.5t2 -61.5v-243q0 -37 6 -49t23 -12q8 0 17 4v-42
q-18 -6 -35 -6q-64 0 -64 63v5t1 8q-37 -82 -129 -82q-61 0 -94 36.5t-33 102.5q0 35 11 63t31 45q7 6 15 11t20 10t29 10t43 12q38 10 59 17t31 16t12 22.5t2 37.5q0 90 -89 90q-49 0 -71.5 -26.5t-22.5 -86.5h-55zM141 675l69 -132h-45l-92 132h68z" />
    <glyph glyph-name="aacute" unicode="&#xe1;" horiz-adv-x="371" 
d="M269 278q-5 -5 -11.5 -9.5t-18.5 -9t-31.5 -10t-50.5 -14.5q-45 -13 -63.5 -36t-18.5 -66q0 -46 21.5 -71t60.5 -25q55 0 88 47q14 19 19 40.5t5 58.5v95zM31 351q0 157 150 157q50 0 84.5 -17.5t48.5 -49.5q6 -14 8 -34.5t2 -61.5v-243q0 -37 6 -49t23 -12q8 0 17 4v-42
q-18 -6 -35 -6q-64 0 -64 63v5t1 8q-37 -82 -129 -82q-61 0 -94 36.5t-33 102.5q0 35 11 63t31 45q7 6 15 11t20 10t29 10t43 12q38 10 59 17t31 16t12 22.5t2 37.5q0 90 -89 90q-49 0 -71.5 -26.5t-22.5 -86.5h-55zM303 675l-93 -132h-44l69 132h68z" />
    <glyph glyph-name="acircumflex" unicode="&#xe2;" horiz-adv-x="371" 
d="M269 278q-5 -5 -11.5 -9.5t-18.5 -9t-31.5 -10t-50.5 -14.5q-45 -13 -63.5 -36t-18.5 -66q0 -46 21.5 -71t60.5 -25q55 0 88 47q14 19 19 40.5t5 58.5v95zM31 351q0 157 150 157q50 0 84.5 -17.5t48.5 -49.5q6 -14 8 -34.5t2 -61.5v-243q0 -37 6 -49t23 -12q8 0 17 4v-42
q-18 -6 -35 -6q-64 0 -64 63v5t1 8q-37 -82 -129 -82q-61 0 -94 36.5t-33 102.5q0 35 11 63t31 45q7 6 15 11t20 10t29 10t43 12q38 10 59 17t31 16t12 22.5t2 37.5q0 90 -89 90q-49 0 -71.5 -26.5t-22.5 -86.5h-55zM217 678l87 -131h-53l-63 94l-64 -94h-51l89 131h55z" />
    <glyph glyph-name="atilde" unicode="&#xe3;" horiz-adv-x="371" 
d="M269 278q-5 -5 -11.5 -9.5t-18.5 -9t-31.5 -10t-50.5 -14.5q-45 -13 -63.5 -36t-18.5 -66q0 -46 21.5 -71t60.5 -25q55 0 88 47q14 19 19 40.5t5 58.5v95zM31 351q0 157 150 157q50 0 84.5 -17.5t48.5 -49.5q6 -14 8 -34.5t2 -61.5v-243q0 -37 6 -49t23 -12q8 0 17 4v-42
q-18 -6 -35 -6q-64 0 -64 63v5t1 8q-37 -82 -129 -82q-61 0 -94 36.5t-33 102.5q0 35 11 63t31 45q7 6 15 11t20 10t29 10t43 12q38 10 59 17t31 16t12 22.5t2 37.5q0 90 -89 90q-49 0 -71.5 -26.5t-22.5 -86.5h-55zM67 567q7 45 25.5 68.5t47.5 23.5q8 0 13.5 -1t13 -4
t17.5 -9t27 -17q17 -10 30 -10q24 0 32 45h37q-4 -42 -23 -66.5t-47 -24.5q-7 0 -12.5 0.5t-12 3.5t-16.5 9t-27 16q-10 5 -18.5 8.5t-14.5 3.5q-12 0 -21.5 -12.5t-13.5 -33.5h-37z" />
    <glyph glyph-name="adieresis" unicode="&#xe4;" horiz-adv-x="371" 
d="M269 278q-5 -5 -11.5 -9.5t-18.5 -9t-31.5 -10t-50.5 -14.5q-45 -13 -63.5 -36t-18.5 -66q0 -46 21.5 -71t60.5 -25q55 0 88 47q14 19 19 40.5t5 58.5v95zM31 351q0 157 150 157q50 0 84.5 -17.5t48.5 -49.5q6 -14 8 -34.5t2 -61.5v-243q0 -37 6 -49t23 -12q8 0 17 4v-42
q-18 -6 -35 -6q-64 0 -64 63v5t1 8q-37 -82 -129 -82q-61 0 -94 36.5t-33 102.5q0 35 11 63t31 45q7 6 15 11t20 10t29 10t43 12q38 10 59 17t31 16t12 22.5t2 37.5q0 90 -89 90q-49 0 -71.5 -26.5t-22.5 -86.5h-55zM286 665v-93h-55v93h55zM146 665v-93h-55v93h55z" />
    <glyph glyph-name="aring" unicode="&#xe5;" horiz-adv-x="371" 
d="M269 278q-5 -5 -11.5 -9.5t-18.5 -9t-31.5 -10t-50.5 -14.5q-45 -13 -63.5 -36t-18.5 -66q0 -46 21.5 -71t60.5 -25q55 0 88 47q14 19 19 40.5t5 58.5v95zM31 351q0 157 150 157q50 0 84.5 -17.5t48.5 -49.5q6 -14 8 -34.5t2 -61.5v-243q0 -37 6 -49t23 -12q8 0 17 4v-42
q-18 -6 -35 -6q-64 0 -64 63v5t1 8q-37 -82 -129 -82q-61 0 -94 36.5t-33 102.5q0 35 11 63t31 45q7 6 15 11t20 10t29 10t43 12q38 10 59 17t31 16t12 22.5t2 37.5q0 90 -89 90q-49 0 -71.5 -26.5t-22.5 -86.5h-55zM189 679q-23 0 -39.5 -16.5t-16.5 -39.5
q0 -24 16.5 -40.5t39.5 -16.5t39 16.5t16 39.5q0 24 -16 40.5t-39 16.5zM189 711q18 0 34 -7t28 -19t19 -28t7 -34t-7 -34.5t-19 -28.5t-28 -19t-34 -7q-37 0 -63 26t-26 64q0 18 7 33.5t19.5 27.5t28.5 19t34 7z" />
    <glyph glyph-name="ae" unicode="&#xe6;" horiz-adv-x="592" 
d="M506 289q-1 20 -1.5 33t-1.5 22t-2.5 17t-3.5 17q-18 84 -87 84q-34 0 -57.5 -23.5t-32.5 -66.5q-4 -16 -5.5 -34.5t-1.5 -48.5h193zM257 268q-11 -8 -23 -13t-39 -12q-44 -11 -64.5 -19t-32.5 -20q-25 -25 -25 -73q0 -46 21 -71t59 -25q27 0 49.5 13.5t37.5 38.5
q10 17 13.5 35.5t3.5 50.5v95zM31 351q0 37 4.5 58.5t15.5 40.5q17 27 49 42.5t74 15.5q51 0 82 -21t41 -60q15 38 45 58.5t72 20.5q150 0 150 -236v-23h-252v-19q0 -46 3.5 -75t11.5 -52q25 -68 82 -68q42 0 67 35t29 99h55q-7 -88 -45.5 -133t-106.5 -45q-47 0 -82 28.5
t-46 76.5q-20 -55 -52 -79.5t-83 -24.5q-62 0 -95.5 36t-33.5 102q0 82 49 114q9 7 16.5 11t21 8.5t37.5 10.5t66 17q16 4 26.5 9t15.5 13.5t7 22.5t2 36q0 94 -83 94q-53 0 -75 -40q-8 -13 -10.5 -27.5t-3.5 -45.5h-54z" />
    <glyph glyph-name="ccedilla" unicode="&#xe7;" horiz-adv-x="364" 
d="M352 167q-1 -40 -12 -72.5t-30 -56t-45.5 -36.5t-58.5 -13l-32 -45q16 4 28 4q34 0 55.5 -17.5t21.5 -45.5q0 -34 -28.5 -55t-74.5 -21q-41 0 -79 16l10 27q38 -13 64 -13q25 0 41 11.5t16 31.5q0 16 -13 26t-35 10q-19 0 -40 -9l-13 13l46 67q-144 10 -144 256
q0 133 41.5 197t128.5 64q68 0 108 -42t43 -117h-57q-8 112 -95 112q-58 0 -84.5 -51.5t-26.5 -163.5q0 -109 26 -159t83 -50q45 0 71.5 34.5t28.5 97.5h56z" />
    <glyph glyph-name="egrave" unicode="&#xe8;" horiz-adv-x="387" 
d="M300 289q-1 89 -25 130.5t-76 41.5q-75 0 -99 -86q-5 -17 -8 -41.5t-3 -44.5h211zM88 246q1 -51 4 -81.5t11 -54.5q23 -77 93 -77q45 0 71.5 33t31.5 96h55q-1 -19 -6 -42.5t-14 -43.5q-18 -43 -54 -65.5t-86 -22.5q-85 0 -125 63t-40 195q0 260 171 260q81 0 120 -58.5
t39 -183.5v-18h-271zM153 675l69 -132h-45l-92 132h68z" />
    <glyph glyph-name="eacute" unicode="&#xe9;" horiz-adv-x="387" 
d="M300 289q-1 89 -25 130.5t-76 41.5q-75 0 -99 -86q-5 -17 -8 -41.5t-3 -44.5h211zM88 246q1 -51 4 -81.5t11 -54.5q23 -77 93 -77q45 0 71.5 33t31.5 96h55q-1 -19 -6 -42.5t-14 -43.5q-18 -43 -54 -65.5t-86 -22.5q-85 0 -125 63t-40 195q0 260 171 260q81 0 120 -58.5
t39 -183.5v-18h-271zM322 675l-93 -132h-44l69 132h68z" />
    <glyph glyph-name="ecircumflex" unicode="&#xea;" horiz-adv-x="387" 
d="M300 289q-1 89 -25 130.5t-76 41.5q-75 0 -99 -86q-5 -17 -8 -41.5t-3 -44.5h211zM88 246q1 -51 4 -81.5t11 -54.5q23 -77 93 -77q45 0 71.5 33t31.5 96h55q-1 -19 -6 -42.5t-14 -43.5q-18 -43 -54 -65.5t-86 -22.5q-85 0 -125 63t-40 195q0 260 171 260q81 0 120 -58.5
t39 -183.5v-18h-271zM228 678l87 -131h-53l-63 94l-64 -94h-51l89 131h55z" />
    <glyph glyph-name="edieresis" unicode="&#xeb;" horiz-adv-x="387" 
d="M300 289q-1 89 -25 130.5t-76 41.5q-75 0 -99 -86q-5 -17 -8 -41.5t-3 -44.5h211zM88 246q1 -51 4 -81.5t11 -54.5q23 -77 93 -77q45 0 71.5 33t31.5 96h55q-1 -19 -6 -42.5t-14 -43.5q-18 -43 -54 -65.5t-86 -22.5q-85 0 -125 63t-40 195q0 260 171 260q81 0 120 -58.5
t39 -183.5v-18h-271zM291 665v-93h-55v93h55zM151 665v-93h-55v93h55z" />
    <glyph glyph-name="igrave" unicode="&#xec;" horiz-adv-x="152" 
d="M104 495v-495h-57v495h57zM33 675l69 -132h-45l-92 132h68z" />
    <glyph glyph-name="iacute" unicode="&#xed;" horiz-adv-x="152" 
d="M104 495v-495h-57v495h57zM192 675l-93 -132h-44l69 132h68z" />
    <glyph glyph-name="icircumflex" unicode="&#xee;" horiz-adv-x="152" 
d="M104 495v-495h-57v495h57zM125 678l87 -131h-53l-63 94l-64 -94h-51l89 131h55z" />
    <glyph glyph-name="idieresis" unicode="&#xef;" horiz-adv-x="152" 
d="M104 495v-495h-57v495h57zM194 665v-93h-55v93h55zM54 665v-93h-55v93h55z" />
    <glyph glyph-name="eth" unicode="&#xf0;" horiz-adv-x="395" 
d="M200 457q-59 0 -86 -50t-27 -159q0 -111 26.5 -161t83.5 -50q58 0 85 50.5t27 157.5q0 112 -25.5 162t-83.5 50zM211 604l-28 67l33 11l31 -67l64 22l9 -27l-60 -21l65 -136q12 -25 20 -48t13 -47t7 -50.5t2 -59.5q0 -135 -41 -196.5t-130 -61.5q-86 0 -126.5 62
t-40.5 195q0 66 9.5 110.5t30.5 79.5q20 32 53 49.5t71 17.5q22 0 36 -4t34 -17l-42 94l-62 -22l-10 28z" />
    <glyph glyph-name="ntilde" unicode="&#xf1;" horiz-adv-x="398" 
d="M100 426q43 81 130 81q42 0 72 -20t43 -55q3 -8 4.5 -16.5t2.5 -20t1.5 -27.5t0.5 -38v-330h-57v321q0 42 -2.5 62t-8.5 34q-9 20 -29 31t-46 11q-61 0 -92 -57q-9 -18 -12.5 -35.5t-3.5 -48.5v-318h-56v495h53v-69zM94 567q7 45 25.5 68.5t47.5 23.5q8 0 13.5 -1t13 -4
t17.5 -9t27 -17q17 -10 30 -10q24 0 32 45h37q-4 -42 -23 -66.5t-47 -24.5q-7 0 -12.5 0.5t-12 3.5t-16.5 9t-27 16q-10 5 -18.5 8.5t-14.5 3.5q-12 0 -21.5 -12.5t-13.5 -33.5h-37z" />
    <glyph glyph-name="ograve" unicode="&#xf2;" horiz-adv-x="396" 
d="M201 461q-60 0 -87.5 -51t-27.5 -163t26.5 -162.5t85.5 -50.5q58 0 85.5 51t27.5 159q0 114 -26 165.5t-84 51.5zM202 507q86 0 126 -62.5t40 -196.5q0 -135 -41.5 -197t-131.5 -62q-87 0 -126.5 62.5t-39.5 199.5q0 256 173 256zM152 675l69 -132h-45l-92 132h68z" />
    <glyph glyph-name="oacute" unicode="&#xf3;" horiz-adv-x="396" 
d="M201 461q-60 0 -87.5 -51t-27.5 -163t26.5 -162.5t85.5 -50.5q58 0 85.5 51t27.5 159q0 114 -26 165.5t-84 51.5zM202 507q86 0 126 -62.5t40 -196.5q0 -135 -41.5 -197t-131.5 -62q-87 0 -126.5 62.5t-39.5 199.5q0 256 173 256zM314 675l-93 -132h-44l69 132h68z" />
    <glyph glyph-name="ocircumflex" unicode="&#xf4;" horiz-adv-x="396" 
d="M201 461q-60 0 -87.5 -51t-27.5 -163t26.5 -162.5t85.5 -50.5q58 0 85.5 51t27.5 159q0 114 -26 165.5t-84 51.5zM202 507q86 0 126 -62.5t40 -196.5q0 -135 -41.5 -197t-131.5 -62q-87 0 -126.5 62.5t-39.5 199.5q0 256 173 256zM228 678l87 -131h-53l-63 94l-64 -94
h-51l89 131h55z" />
    <glyph glyph-name="otilde" unicode="&#xf5;" horiz-adv-x="396" 
d="M201 461q-60 0 -87.5 -51t-27.5 -163t26.5 -162.5t85.5 -50.5q58 0 85.5 51t27.5 159q0 114 -26 165.5t-84 51.5zM202 507q86 0 126 -62.5t40 -196.5q0 -135 -41.5 -197t-131.5 -62q-87 0 -126.5 62.5t-39.5 199.5q0 256 173 256zM78 567q7 45 25.5 68.5t47.5 23.5
q8 0 13.5 -1t13 -4t17.5 -9t27 -17q17 -10 30 -10q24 0 32 45h37q-4 -42 -23 -66.5t-47 -24.5q-7 0 -12.5 0.5t-12 3.5t-16.5 9t-27 16q-10 5 -18.5 8.5t-14.5 3.5q-12 0 -21.5 -12.5t-13.5 -33.5h-37z" />
    <glyph glyph-name="odieresis" unicode="&#xf6;" horiz-adv-x="396" 
d="M201 461q-60 0 -87.5 -51t-27.5 -163t26.5 -162.5t85.5 -50.5q58 0 85.5 51t27.5 159q0 114 -26 165.5t-84 51.5zM202 507q86 0 126 -62.5t40 -196.5q0 -135 -41.5 -197t-131.5 -62q-87 0 -126.5 62.5t-39.5 199.5q0 256 173 256zM297 665v-93h-55v93h55zM157 665v-93
h-55v93h55z" />
    <glyph glyph-name="divide" unicode="&#xf7;" 
d="M215 226q15 0 26 -11t11 -27t-11 -27t-27 -11t-27 11t-11 27t11 27t28 11zM215 506q15 0 26 -11.5t11 -26.5q0 -16 -11 -27t-27 -11t-27 11t-11 27t11 27t28 11zM401 349v-43h-373v43h373z" />
    <glyph glyph-name="oslash" unicode="&#xf8;" horiz-adv-x="396" 
d="M138 53q15 -11 29 -15t31 -4q58 0 85.5 51t27.5 159q0 57 -6 95.5t-19 67.5zM260 442q-15 11 -28 15t-32 4q-60 0 -87 -52t-27 -164q0 -57 6 -93.5t20 -65.5zM303 545l35 -14l-27 -65q31 -35 44 -86t13 -133q0 -133 -41.5 -195.5t-129.5 -62.5q-24 0 -42.5 4t-36.5 12
l-24 -58l-34 14l27 67q-32 36 -45 86.5t-13 132.5q0 260 172 260q23 0 41 -4t37 -14z" />
    <glyph glyph-name="ugrave" unicode="&#xf9;" horiz-adv-x="398" 
d="M101 495v-329q0 -29 2 -47.5t7 -32.5q18 -49 75 -49q32 0 58.5 18t40.5 49q6 15 8.5 33t2.5 50v308h56v-495h-53v68q-42 -80 -129 -80q-102 0 -120 103q-3 16 -4 31.5t-1 43.5v329h57zM152 675l69 -132h-45l-92 132h68z" />
    <glyph glyph-name="uacute" unicode="&#xfa;" horiz-adv-x="398" 
d="M101 495v-329q0 -29 2 -47.5t7 -32.5q18 -49 75 -49q32 0 58.5 18t40.5 49q6 15 8.5 33t2.5 50v308h56v-495h-53v68q-42 -80 -129 -80q-102 0 -120 103q-3 16 -4 31.5t-1 43.5v329h57zM314 675l-93 -132h-44l69 132h68z" />
    <glyph glyph-name="ucircumflex" unicode="&#xfb;" horiz-adv-x="398" 
d="M101 495v-329q0 -29 2 -47.5t7 -32.5q18 -49 75 -49q32 0 58.5 18t40.5 49q6 15 8.5 33t2.5 50v308h56v-495h-53v68q-42 -80 -129 -80q-102 0 -120 103q-3 16 -4 31.5t-1 43.5v329h57zM227 678l87 -131h-53l-63 94l-64 -94h-51l89 131h55z" />
    <glyph glyph-name="udieresis" unicode="&#xfc;" horiz-adv-x="398" 
d="M101 495v-329q0 -29 2 -47.5t7 -32.5q18 -49 75 -49q32 0 58.5 18t40.5 49q6 15 8.5 33t2.5 50v308h56v-495h-53v68q-42 -80 -129 -80q-102 0 -120 103q-3 16 -4 31.5t-1 43.5v329h57zM297 665v-93h-55v93h55zM157 665v-93h-55v93h55z" />
    <glyph glyph-name="yacute" unicode="&#xfd;" horiz-adv-x="327" 
d="M54 495l115 -436l103 436h58l-123 -463q-17 -63 -29.5 -100.5t-22.5 -52.5q-17 -26 -39.5 -36.5t-60.5 -10.5q-8 0 -16.5 0.5t-22.5 1.5v48q13 -2 20.5 -2.5t15.5 -0.5q26 0 41 10t26 35q2 4 5 12t5.5 16.5t5 16t2.5 10.5l3 14l-144 502h58zM279 675l-93 -132h-44l69 132
h68z" />
    <glyph glyph-name="thorn" unicode="&#xfe;" horiz-adv-x="405" 
d="M213 459q-33 0 -58 -19t-38 -54q-17 -45 -17 -133q0 -113 26 -165t83 -52t83.5 52.5t26.5 164.5q0 106 -25.5 156t-80.5 50zM100 422q39 84 123 84q42 0 74 -19.5t50 -56.5q30 -60 30 -173q0 -268 -158 -268q-38 0 -68 19t-47 54v-229h-57v834h53v-245z" />
    <glyph glyph-name="ydieresis" unicode="&#xff;" horiz-adv-x="327" 
d="M54 495l115 -436l103 436h58l-123 -463q-17 -63 -29.5 -100.5t-22.5 -52.5q-17 -26 -39.5 -36.5t-60.5 -10.5q-8 0 -16.5 0.5t-22.5 1.5v48q13 -2 20.5 -2.5t15.5 -0.5q26 0 41 10t26 35q2 4 5 12t5.5 16.5t5 16t2.5 10.5l3 14l-144 502h58zM262 665v-93h-55v93h55z
M122 665v-93h-55v93h55z" />
    <glyph glyph-name="dotlessi" unicode="&#x131;" horiz-adv-x="151" 
d="M104 495v-495h-57v495h57z" />
    <glyph glyph-name="OE" unicode="&#x152;" horiz-adv-x="708" 
d="M371 419q0 54 -2.5 86.5t-8.5 51.5q-24 74 -113 74q-83 0 -121 -70.5t-38 -222.5q0 -159 37 -231t120 -72q104 0 120 104q6 39 6 134v146zM687 667v-52h-258v-241h241v-51h-241v-271h268v-52h-324v57q-25 -38 -55.5 -54t-79.5 -16q-108 0 -159 85t-51 266q0 342 212 342
q48 0 79 -15.5t54 -50.5v53h314z" />
    <glyph glyph-name="oe" unicode="&#x153;" horiz-adv-x="641" 
d="M554 289q-1 22 -1.5 35t-1.5 22t-2 15.5t-3 15.5q-9 42 -31.5 64t-55.5 22q-48 0 -73.5 -44.5t-26.5 -129.5h195zM200 461q-58 0 -85.5 -52t-27.5 -161q0 -111 26.5 -162.5t83.5 -51.5t82 51.5t25 166.5q0 114 -22 157q-28 52 -82 52zM608 167q-1 -41 -12.5 -73.5
t-31 -56t-47 -36t-60.5 -12.5q-48 0 -82 28t-46 77q-29 -105 -136 -105q-164 0 -164 258q0 260 171 260q52 0 86.5 -27t46.5 -77q13 49 47.5 76.5t82.5 27.5q53 0 89 -31.5t49 -88.5q7 -29 9.5 -61t2.5 -80h-255v-10q0 -202 99 -202q42 0 67.5 35t29.5 98h54z" />
    <glyph glyph-name="Scaron" unicode="&#x160;" horiz-adv-x="423" 
d="M69 207v-16q0 -44 6.5 -68t23.5 -44q37 -43 105 -43q64 0 101.5 36.5t37.5 99.5q0 65 -44 99q-9 6 -15.5 10.5t-20 10t-36.5 14t-65 22.5q-75 25 -108 65.5t-33 105.5q0 84 49 131t137 47q89 0 134.5 -45.5t45.5 -136.5h-59q-2 69 -31 101t-90 32q-60 0 -93 -32.5
t-33 -89.5q0 -70 56 -104q8 -5 14 -8.5t18 -8t34 -12.5t61 -21q76 -26 108.5 -66t32.5 -108q0 -88 -53.5 -139t-147.5 -51q-195 0 -195 203v16h60zM129 828l63 -93l64 93h50l-88 -131h-55l-87 131h53z" />
    <glyph glyph-name="scaron" unicode="&#x161;" horiz-adv-x="344" 
d="M69 159v-10q0 -61 23 -89t74 -28q46 0 72 24.5t26 68.5q0 45 -28 68q-6 5 -12.5 9.5t-16.5 9t-25.5 10.5t-40.5 15q-33 12 -55 25t-36 29t-20 36t-6 46q0 63 38 97.5t107 34.5q48 0 80.5 -18t46.5 -51q11 -26 11 -84h-55v8q-1 17 -2 28t-3 19t-5 14t-7 12q-22 28 -68 28
q-42 0 -65.5 -22t-23.5 -60q0 -35 18.5 -55.5t68.5 -38.5q25 -9 42.5 -15.5t29.5 -12t21 -11t18 -11.5q44 -33 44 -101q0 -69 -41 -107.5t-115 -38.5q-51 0 -86 19t-50 54q-13 32 -13 98h54zM108 678l63 -93l64 93h50l-88 -131h-55l-87 131h53z" />
    <glyph glyph-name="Ydieresis" unicode="&#x178;" horiz-adv-x="413" 
d="M64 667l143 -338l147 338h63l-181 -398v-269h-59v269l-180 398h67zM295 813v-93h-55v93h55zM155 813v-93h-55v93h55z" />
    <glyph glyph-name="Zcaron" unicode="&#x17d;" horiz-adv-x="406" 
d="M391 667v-53l-318 -562h323v-52h-389v52l319 564h-300v51h365zM130 828l63 -93l64 93h50l-88 -131h-55l-87 131h53z" />
    <glyph glyph-name="zcaron" unicode="&#x17e;" horiz-adv-x="298" 
d="M299 495v-47l-231 -400h230v-48h-295v44l233 404h-221v47h284zM90 678l63 -93l64 93h50l-88 -131h-55l-87 131h53z" />
    <glyph glyph-name="florin" unicode="&#x192;" 
d="M220 453l14 82q11 62 20.5 94.5t20.5 49.5q19 28 47.5 40.5t72.5 12.5q12 0 21 -0.5t22 -2.5l-9 -46q-12 2 -19 2h-14q-24 0 -40.5 -6t-28 -22.5t-20 -45.5t-16.5 -74l-15 -84h106l-8 -40h-105l-62 -351q-8 -42 -13.5 -68t-11 -42.5t-12 -27.5t-16.5 -22
q-34 -40 -103 -40q-11 0 -21.5 1t-25.5 4l9 46q13 -2 21.5 -2.5t18.5 -0.5q28 0 45.5 11.5t28.5 37.5q3 8 5.5 16.5t5.5 21t6 30t8 43.5l61 343h-97l7 40h97z" />
    <glyph glyph-name="circumflex" unicode="&#x2c6;" horiz-adv-x="500" 
d="M278 678l87 -131h-53l-63 94l-64 -94h-51l89 131h55z" />
    <glyph glyph-name="caron" unicode="&#x2c7;" horiz-adv-x="500" 
d="M188 678l63 -93l64 93h50l-88 -131h-55l-87 131h53z" />
    <glyph glyph-name="ring" unicode="&#x2da;" horiz-adv-x="500" 
d="M250 679q-23 0 -39.5 -16.5t-16.5 -39.5q0 -24 16.5 -40.5t39.5 -16.5t39 16.5t16 39.5q0 24 -16 40.5t-39 16.5zM250 711q18 0 34 -7t28 -19t19 -28t7 -34t-7 -34.5t-19 -28.5t-28 -19t-34 -7q-37 0 -63 26t-26 64q0 18 7 33.5t19.5 27.5t28.5 19t34 7z" />
    <glyph glyph-name="tilde" unicode="&#x2dc;" horiz-adv-x="500" 
d="M128 567q7 45 25.5 68.5t47.5 23.5q8 0 13.5 -1t13 -4t17.5 -9t27 -17q17 -10 30 -10q24 0 32 45h37q-4 -42 -23 -66.5t-47 -24.5q-7 0 -12.5 0.5t-12 3.5t-16.5 9t-27 16q-10 5 -18.5 8.5t-14.5 3.5q-12 0 -21.5 -12.5t-13.5 -33.5h-37z" />
    <glyph glyph-name="endash" unicode="&#x2013;" horiz-adv-x="497" 
d="M455 290v-48h-414v48h414z" />
    <glyph glyph-name="emdash" unicode="&#x2014;" horiz-adv-x="528" 
d="M528 290v-48h-528v48h528z" />
    <glyph glyph-name="quoteleft" unicode="&#x2018;" horiz-adv-x="150" 
d="M43 524q0 34 3.5 59t12 42.5t22.5 29t34 19.5v-37q-20 -13 -28 -32.5t-7 -61.5h27v-93h-64v74z" />
    <glyph glyph-name="quoteright" unicode="&#x2019;" horiz-adv-x="149" 
d="M106 667v-76q0 -35 -3 -59.5t-11.5 -42t-22 -29t-34.5 -20.5v39q20 12 27.5 31.5t7.5 60.5h-27v96h63z" />
    <glyph glyph-name="quotesinglbase" unicode="&#x201a;" horiz-adv-x="149" 
d="M105 93v-73q0 -35 -3.5 -59t-11.5 -41.5t-21.5 -29.5t-33.5 -22v39q19 13 26.5 31.5t7.5 61.5h-27v93h63z" />
    <glyph glyph-name="quotedblleft" unicode="&#x201c;" horiz-adv-x="254" 
d="M43 450v83q0 62 16.5 95t54.5 47v-39q-11 -7 -17.5 -14.5t-10.5 -18t-5.5 -25.5t-1.5 -36h27v-92h-63zM148 450v83q0 60 16 92.5t54 49.5v-39q-10 -7 -16.5 -14.5t-10.5 -18.5t-5.5 -26t-1.5 -36h27v-91h-63z" />
    <glyph glyph-name="quotedblright" unicode="&#x201d;" horiz-adv-x="254" 
d="M210 667v-83q0 -62 -16.5 -95t-54.5 -47v39q20 13 27.5 32.5t7.5 61.5h-27v92h63zM106 667v-83q0 -60 -17 -94t-54 -48v39q20 12 27.5 32t7.5 62h-27v92h63z" />
    <glyph glyph-name="quotedblbase" unicode="&#x201e;" horiz-adv-x="254" 
d="M210 95v-83q0 -62 -16.5 -95t-54.5 -47v39q20 13 27.5 32.5t7.5 61.5h-27v92h63zM106 95v-83q0 -60 -17 -94t-54 -48v39q20 12 27.5 32t7.5 62h-27v92h63z" />
    <glyph glyph-name="dagger" unicode="&#x2020;" 
d="M186 478v205h57v-205h164v-50h-164v-549h-57v549h-164v50h164z" />
    <glyph glyph-name="daggerdbl" unicode="&#x2021;" 
d="M187 462v205h57v-205h164v-49h-164v-322h164v-49h-164v-209h-57v209h-165v49h165v322h-165v49h165z" />
    <glyph glyph-name="bullet" unicode="&#x2022;" horiz-adv-x="667" 
d="M337 477q28 0 52.5 -11t43 -30t29.5 -44t11 -53q0 -29 -11 -54.5t-29.5 -44t-44 -29.5t-53.5 -11q-29 0 -54 11t-44 30t-30 44t-11 53q0 29 11 54.5t30 44t44.5 29.5t55.5 11z" />
    <glyph glyph-name="ellipsis" unicode="&#x2026;" horiz-adv-x="412" 
d="M374 95v-95h-63v95h63zM237 95v-95h-63v95h63zM100 95v-95h-63v95h63z" />
    <glyph glyph-name="perthousand" unicode="&#x2030;" horiz-adv-x="861" 
d="M715 296q-37 0 -53 -31.5t-16 -103.5q0 -70 15 -99t52 -29t52.5 30.5t15.5 104.5q0 70 -15 99t-51 29zM715 336q63 0 89.5 -39.5t26.5 -130.5q0 -92 -28.5 -132.5t-92.5 -40.5q-60 0 -86.5 38.5t-26.5 127.5q0 95 27.5 136t90.5 41zM448 296q-37 0 -53 -31.5t-16 -103.5
q0 -70 15 -99t52 -29q38 0 53.5 30.5t15.5 105.5q0 70 -15 98.5t-52 28.5zM449 336q63 0 89.5 -39t26.5 -131t-28.5 -132.5t-92.5 -40.5q-61 0 -87.5 38.5t-26.5 126.5q0 95 27.5 136.5t91.5 41.5zM461 671l-287 -683h-45l288 683h44zM147 625q-37 0 -53 -31.5t-16 -103.5
q0 -70 15 -99t52 -29q38 0 53.5 30.5t15.5 104.5q0 71 -15 99.5t-52 28.5zM148 665q63 0 89.5 -39t26.5 -131t-28.5 -132.5t-92.5 -40.5q-61 0 -87.5 38.5t-26.5 127.5q0 95 27.5 136t91.5 41z" />
    <glyph glyph-name="guilsinglleft" unicode="&#x2039;" horiz-adv-x="161" 
d="M20 229v57l110 117v-61l-73 -84l73 -83v-64z" />
    <glyph glyph-name="guilsinglright" unicode="&#x203a;" horiz-adv-x="161" 
d="M141 285v-57l-110 -117v61l73 85l-73 83v63z" />
    <glyph glyph-name="Euro" unicode="&#x20ac;" horiz-adv-x="657" 
d="M31 452h66q11 63 35.5 114t60.5 87.5t81.5 56t99.5 19.5q51 0 92.5 -15.5t72 -43t50 -65t25.5 -82.5h-94q-12 58 -48.5 91t-98.5 33q-75 0 -118.5 -52t-57.5 -143h203v-57h-209q-1 -10 -1 -20v-20v-21t1 -20h209v-57h-202q16 -94 63 -142t120 -48q69 0 107 45t46 114h90
q-2 -50 -19.5 -94t-49 -76.5t-75.5 -51.5t-98 -19t-101 18t-84 53t-63 85.5t-37 115.5h-66v57h59q-1 10 -1 20v21v20t1 20h-59v57z" />
    <glyph glyph-name="trademark" unicode="&#x2122;" horiz-adv-x="657" 
d="M356 667l90 -307l90 307h63v-380h-41v319l-93 -319h-38l-95 319v-319h-41v380h65zM244 667v-37h-100v-343h-42v343h-101v37h243z" />
    </font>
</defs>
</svg>
